<?xml version="1.0" encoding="UTF-8" standalone="no"?>
<!-- Created with Inkscape (http://www.inkscape.org/) -->

<svg
   width="210mm"
   height="297mm"
   viewBox="0 0 210 297"
   version="1.1"
   id="svg807"
   inkscape:version="1.3-dev (1:1.2.0-alpha1+devel+202302200944+d8117bccc8)"
   sodipodi:docname="u5_knob_assembly_positioning_aid.svg"
   xmlns:inkscape="http://www.inkscape.org/namespaces/inkscape"
   xmlns:sodipodi="http://sodipodi.sourceforge.net/DTD/sodipodi-0.dtd"
   xmlns="http://www.w3.org/2000/svg"
   xmlns:svg="http://www.w3.org/2000/svg"
   xmlns:rdf="http://www.w3.org/1999/02/22-rdf-syntax-ns#"
   xmlns:cc="http://creativecommons.org/ns#"
   xmlns:dc="http://purl.org/dc/elements/1.1/">
  <defs
     id="defs801" />
  <sodipodi:namedview
     id="base"
     pagecolor="#ffffff"
     bordercolor="#666666"
     borderopacity="1.0"
     inkscape:pageopacity="0.0"
     inkscape:pageshadow="2"
     inkscape:zoom="2.8571584"
     inkscape:cx="40.074782"
     inkscape:cy="35.874805"
     inkscape:document-units="mm"
     inkscape:current-layer="layer1"
     showgrid="false"
     inkscape:window-width="1920"
     inkscape:window-height="1049"
     inkscape:window-x="0"
     inkscape:window-y="0"
     inkscape:window-maximized="1"
     inkscape:showpageshadow="2"
     inkscape:pagecheckerboard="0"
     inkscape:deskcolor="#d1d1d1" />
  <metadata
     id="metadata804">
    <rdf:RDF>
      <cc:Work
         rdf:about="">
        <dc:format>image/svg+xml</dc:format>
        <dc:type
           rdf:resource="http://purl.org/dc/dcmitype/StillImage" />
      </cc:Work>
    </rdf:RDF>
  </metadata>
  <g
     inkscape:label="Layer 1"
     inkscape:groupmode="layer"
     id="layer1">
    <path
       sodipodi:nodetypes="sscsssccscccccccccscccccccccscccssscssscccccccccc"
       inkscape:connector-curvature="0"
       id="path18547"
       d="m 2.007204,0.05489396 c -1.11429995,0.002 -2.00939995,0.8958 -2.0071999532801,2.00378004 L 0.01900405,11.611554 v 1.02785 c 0,1.10799 0.9008,1.99813 2.01509995,1.99596 l 1.5523,-0.003 c 0.3778,-7.9e-4 0.7294,-0.10582 1.0304,-0.28519 0.149,-0.11664 0.3006,-0.23561 0.4488,-0.3652 0.3279,-0.35632 0.529,-0.83005 0.5279,-1.35341 v -1.02785 -1.97195 l 10e-4,-10e-6 c 5e-4,-0.31406 0.082,-0.6245 0.3172,-0.94733 0.4613,-0.63399 1.0593,-0.69972 1.7488,-0.72946 0.6894,-0.0297 1.4605,-0.0132 2.1571,-0.51839 0.6967,-0.50542 0.9142,-1.23793 1.1531,-1.88173 0.2389,-0.64383 0.484,-1.1911 1.2319,-1.43434 0.748,-0.24329 1.2724,0.0536 1.8478,0.4325 0.5754,0.37891 1.1878,0.84157 2.0502,0.83989 0.8624,-0.002 1.473,-0.46671 2.0469,-0.84789 0.5738,-0.38116 1.0945,-0.68009 1.8434,-0.43972 0.7488,0.24077 0.9976,0.78514 1.2391,1.42799 0.2415,0.64286 0.4634,1.37605 1.1621,1.87877 0.6986,0.50268 1.468,0.48388 2.1576,0.51103 0.6896,0.027 1.2889,0.0895 1.7527,0.72161 0.236,0.3217 0.3191,0.63194 0.3204,0.94608 h 0.001 v 1.97196 1.02784 c 0.001,0.52097 0.202,0.99217 0.5286,1.3467 2e-4,2.5e-4 8e-4,2.6e-4 8e-4,5e-4 0.1513,0.13138 0.3061,0.2521 0.458,0.37015 0.3008,0.17665 0.6513,0.27933 1.0274,0.27857 l 1.5523,-0.003 c 1.1142,-0.002 2.0093,-0.8958 2.0072,-2.00378 v -1.02788 l -0.019,-9.55287 c 0,-1.10798004 -0.901,-1.99812004 -2.0152,-1.9959500408852 z m 1.0136,4.09805004 c 0.5,-10e-4 0.9062,0.40123 0.907,0.89842 8e-4,0.49699 -0.4037,0.90059 -0.9035,0.90146 -0.4998,0.001 -0.9058,-0.4009 -0.907,-0.89792 -10e-4,-0.49721 0.4035,-0.90111 0.9035,-0.90196 z m 26.1462,-0.0509 c 0.4998,-7.9e-4 0.9056,0.40143 0.9065,0.89844 8e-4,0.49681 -0.4034,0.9003 -0.903,0.90145 -0.4998,0.001 -0.9059,-0.40091 -0.907,-0.89793 0,-0.4972 0.4035,-0.90109 0.9035,-0.90196 z"
       style="display:inline;vector-effect:none;fill:none;fill-opacity:0.501961;fill-rule:nonzero;stroke:#ff0000;stroke-width:0.1;stroke-linecap:round;stroke-linejoin:round;stroke-miterlimit:4;stroke-dasharray:none;stroke-dashoffset:0;stroke-opacity:1" />
    <g
       style="display:inline;fill:none;stroke-width:0.997067"
       id="g18617"
       transform="matrix(1.0058921,-0.00110985,0.00111639,0.99999938,-215.41291,-117.72879)">
      <path
         style="opacity:1;vector-effect:none;fill:none;fill-opacity:0.501961;fill-rule:nonzero;stroke:#ff0000;stroke-width:0.0997067;stroke-linecap:round;stroke-linejoin:round;stroke-miterlimit:4;stroke-dasharray:none;stroke-dashoffset:0;stroke-opacity:1"
         d="m 216.00005,133.99996 c -1.108,0 -1.99988,0.84615 -1.99988,1.99987 v 8.3602 2.22061 c 0,1.10799 0.89188,1.99988 1.99988,1.99988 h 3.11095 c 1.10799,0 1.70018,-0.59172 1.70018,-1.69971 v -2.52078 -0.007 h 0.001 c 4.2e-4,-0.27477 0.0719,-0.54554 0.27698,-0.82785 0.40203,-0.55335 0.91903,-0.61008 1.52187,-0.63511 0.60283,-0.025 1.28095,-0.007 1.89498,-0.45318 0.61403,-0.44614 0.80748,-1.09579 1.01751,-1.66139 0.21003,-0.56568 0.42282,-1.0413 1.07332,-1.25265 0.6505,-0.21137 1.10114,0.0488 1.60352,0.38293 0.50238,0.33412 1.04194,0.74568 1.80092,0.74568 0.75898,0 1.29544,-0.41156 1.79782,-0.74568 0.50239,-0.33414 0.95458,-0.59274 1.60507,-0.38139 0.6505,0.21137 0.86433,0.68543 1.07436,1.25111 0.21004,0.5656 0.40243,1.21422 1.01647,1.66034 0.61403,0.44614 1.29059,0.42928 1.89343,0.45423 0.60284,0.025 1.1214,0.0808 1.52342,0.63408 0.20511,0.28231 0.27669,0.55358 0.27698,0.82888 h 0.001 v 2.54816 c 0.0111,1.09828 0.59815,1.67905 1.69917,1.67905 h 3.11093 c 1.108,0 1.99988,-0.89183 1.99988,-1.99988 v -2.22061 -8.3602 c 0,-1.10799 -0.89188,-1.99987 -1.99988,-1.99987 z m 0.99994,4.10001 c 0.49721,-1.1e-4 0.90031,0.40298 0.9002,0.90019 -1.7e-4,0.49701 -0.40319,0.8998 -0.9002,0.89969 -0.49702,1.2e-4 -0.90004,-0.40267 -0.90021,-0.89969 -1.1e-4,-0.49721 0.403,-0.90031 0.90021,-0.90019 z m 26.00008,0 c 0.49701,1.7e-4 0.89979,0.40318 0.89969,0.90019 -1.7e-4,0.49681 -0.40288,0.89952 -0.89969,0.89969 -0.49701,1.1e-4 -0.90003,-0.40268 -0.9002,-0.89969 -1.1e-4,-0.49721 0.40299,-0.9003 0.9002,-0.90019 z"
         id="path18549-3"
         inkscape:connector-curvature="0"
         sodipodi:nodetypes="cscsssscccccccccscccccccccssscscccccccccccc" />
      <path
         style="color:#000000;font-style:normal;font-variant:normal;font-weight:normal;font-stretch:normal;font-size:medium;line-height:normal;font-family:sans-serif;font-variant-ligatures:normal;font-variant-position:normal;font-variant-caps:normal;font-variant-numeric:normal;font-variant-alternates:normal;font-feature-settings:normal;text-indent:0;text-align:start;text-decoration:none;text-decoration-line:none;text-decoration-style:solid;text-decoration-color:#000000;letter-spacing:normal;word-spacing:normal;text-transform:none;writing-mode:lr-tb;direction:ltr;text-orientation:mixed;dominant-baseline:auto;baseline-shift:baseline;text-anchor:start;white-space:normal;shape-padding:0;clip-rule:nonzero;display:inline;overflow:visible;visibility:visible;opacity:1;isolation:auto;mix-blend-mode:normal;color-interpolation:sRGB;color-interpolation-filters:linearRGB;solid-color:#000000;solid-opacity:1;vector-effect:none;fill:none;fill-opacity:1;fill-rule:evenodd;stroke:#00ff00;stroke-width:0.0997067;stroke-linecap:round;stroke-linejoin:miter;stroke-miterlimit:4;stroke-dasharray:none;stroke-dashoffset:0;stroke-opacity:1;color-rendering:auto;image-rendering:auto;shape-rendering:auto;text-rendering:auto;enable-background:accumulate"
         d="m 218.22848,148.57122 c 0.0715,-0.0605 0.14583,-0.12036 0.22208,-0.18074 0.53802,-0.426 1.16855,-0.86103 1.43355,-1.67661 0.26499,-0.81558 0.009,-1.53916 -0.1754,-2.20003 -0.18487,-0.66088 -0.30666,-1.24656 0.1533,-1.87963 v 0 c 0.45996,-0.6331 1.05449,-0.69805 1.74015,-0.72644 0.68566,-0.0284 1.45241,-0.01 2.14617,-0.51377 0.69377,-0.50406 0.91155,-1.23632 1.15043,-1.87963 0.23889,-0.64333 0.48354,-1.19036 1.22778,-1.43218 0.74423,-0.24181 1.26541,0.0564 1.83682,0.43643 0.5714,0.38004 1.17952,0.84383 2.03707,0.84383 0.85755,0 1.46567,-0.46379 2.03708,-0.84383 0.5714,-0.38005 1.08982,-0.67824 1.83405,-0.43643 0.74424,0.24182 0.99027,0.78747 1.22916,1.43078 0.23889,0.64334 0.45803,1.37697 1.1518,1.88103 0.69377,0.50406 1.45914,0.48673 2.1448,0.51514 0.68567,0.0284 1.28157,0.092 1.74153,0.72504 0.45996,0.6331 0.33678,1.22016 0.15192,1.88103 -0.18487,0.66088 -0.44039,1.38171 -0.1754,2.19729 0.265,0.81557 0.89553,1.2506 1.43355,1.67661 0.0765,0.0606 0.15114,0.12073 0.22285,0.18156"
         id="path18551-6"
         inkscape:connector-curvature="0" />
      <g
         style="display:inline;fill:none;stroke:#00ff00;stroke-width:1.11211;stroke-miterlimit:4;stroke-dasharray:none"
         inkscape:label="Hershey Text"
         transform="matrix(0.08965517,0,0,0.08965517,218.86292,135.41404)"
         id="g18615">
        <path
           inkscape:connector-curvature="0"
           d="M -7,-12 V 9 m 0,-21 h 9 l 3,1 1,1 1,2 v 3 l -1,2 -1,1 -3,1 h -9"
           style="fill:none;stroke:#00ff00;stroke-width:1.11211;stroke-miterlimit:4;stroke-dasharray:none"
           transform="translate(11)"
           id="path18553-7" />
        <path
           inkscape:connector-curvature="0"
           d="m -1,-5 -2,1 -2,2 -1,3 v 2 l 1,3 2,2 2,1 H 2 L 4,8 6,6 7,3 V 1 L 6,-2 4,-4 2,-5 h -3"
           style="fill:none;stroke:#00ff00;stroke-width:1.11211;stroke-miterlimit:4;stroke-dasharray:none"
           transform="translate(30)"
           id="path18555-5" />
        <path
           inkscape:connector-curvature="0"
           d="M 6,-2 5,-4 2,-5 h -3 l -3,1 -1,2 1,2 2,1 5,1 2,1 1,2 V 6 L 5,8 2,9 H -1 L -4,8 -5,6"
           style="fill:none;stroke:#00ff00;stroke-width:1.11211;stroke-miterlimit:4;stroke-dasharray:none"
           transform="translate(48)"
           id="path18557-3" />
        <path
           inkscape:connector-curvature="0"
           d="m -1,-12 1,1 1,-1 -1,-1 -1,1 m 1,7 V 9"
           style="fill:none;stroke:#00ff00;stroke-width:1.11211;stroke-miterlimit:4;stroke-dasharray:none"
           transform="translate(61)"
           id="path18559-5" />
        <path
           inkscape:connector-curvature="0"
           d="M 0,-12 V 5 L 1,8 3,9 H 5 M -3,-5 h 7"
           style="fill:none;stroke:#00ff00;stroke-width:1.11211;stroke-miterlimit:4;stroke-dasharray:none"
           transform="translate(70)"
           id="path18561-6" />
        <path
           inkscape:connector-curvature="0"
           d="m -1,-12 1,1 1,-1 -1,-1 -1,1 m 1,7 V 9"
           style="fill:none;stroke:#00ff00;stroke-width:1.11211;stroke-miterlimit:4;stroke-dasharray:none"
           transform="translate(81)"
           id="path18563-2" />
        <path
           inkscape:connector-curvature="0"
           d="m -1,-5 -2,1 -2,2 -1,3 v 2 l 1,3 2,2 2,1 H 2 L 4,8 6,6 7,3 V 1 L 6,-2 4,-4 2,-5 h -3"
           style="fill:none;stroke:#00ff00;stroke-width:1.11211;stroke-miterlimit:4;stroke-dasharray:none"
           transform="translate(94)"
           id="path18565-9" />
        <path
           inkscape:connector-curvature="0"
           d="M -5,-5 V 9 m 0,-10 3,-3 2,-1 h 3 l 2,1 1,3 V 9"
           style="fill:none;stroke:#00ff00;stroke-width:1.11211;stroke-miterlimit:4;stroke-dasharray:none"
           transform="translate(113)"
           id="path18567-1" />
        <path
           inkscape:connector-curvature="0"
           d="m -1,-12 1,1 1,-1 -1,-1 -1,1 m 1,7 V 9"
           style="fill:none;stroke:#00ff00;stroke-width:1.11211;stroke-miterlimit:4;stroke-dasharray:none"
           transform="translate(127)"
           id="path18569-2" />
        <path
           inkscape:connector-curvature="0"
           d="M -5,-5 V 9 m 0,-10 3,-3 2,-1 h 3 l 2,1 1,3 V 9"
           style="fill:none;stroke:#00ff00;stroke-width:1.11211;stroke-miterlimit:4;stroke-dasharray:none"
           transform="translate(140)"
           id="path18571-7" />
        <path
           inkscape:connector-curvature="0"
           d="M 6,-5 V 11 L 5,14 4,15 2,16 H -1 L -3,15 M 6,-2 4,-4 2,-5 h -3 l -2,1 -2,2 -1,3 v 2 l 1,3 2,2 2,1 H 2 L 4,8 6,6"
           style="fill:none;stroke:#00ff00;stroke-width:1.11211;stroke-miterlimit:4;stroke-dasharray:none"
           transform="translate(159)"
           id="path18573-0" />
        <path
           inkscape:connector-curvature="0"
           d=""
           style="fill:none;stroke:#00ff00;stroke-width:1.11211;stroke-miterlimit:4;stroke-dasharray:none"
           transform="translate(177)"
           id="path18575-9" />
        <path
           inkscape:connector-curvature="0"
           d="M 0,-12 -8,9 M 0,-12 8,9 M -5,2 H 5"
           style="fill:none;stroke:#00ff00;stroke-width:1.11211;stroke-miterlimit:4;stroke-dasharray:none"
           transform="translate(194)"
           id="path18577-3" />
        <path
           inkscape:connector-curvature="0"
           d="m -1,-12 1,1 1,-1 -1,-1 -1,1 m 1,7 V 9"
           style="fill:none;stroke:#00ff00;stroke-width:1.11211;stroke-miterlimit:4;stroke-dasharray:none"
           transform="translate(207)"
           id="path18579-6" />
        <path
           inkscape:connector-curvature="0"
           d="M 6,-12 V 9 M 6,-2 4,-4 2,-5 h -3 l -2,1 -2,2 -1,3 v 2 l 1,3 2,2 2,1 H 2 L 4,8 6,6"
           style="fill:none;stroke:#00ff00;stroke-width:1.11211;stroke-miterlimit:4;stroke-dasharray:none"
           transform="translate(220)"
           id="path18581-0" />
        <path
           inkscape:connector-curvature="0"
           d=""
           style="fill:none;stroke:#00ff00;stroke-width:1.11211;stroke-miterlimit:4;stroke-dasharray:none"
           transform="translate(238)"
           id="path18583" />
        <path
           inkscape:connector-curvature="0"
           d=""
           style="fill:none;stroke:#00ff00;stroke-width:1.11211;stroke-miterlimit:4;stroke-dasharray:none"
           transform="translate(306)"
           id="path18585" />
        <path
           inkscape:connector-curvature="0"
           d=""
           style="fill:none;stroke:#00ff00;stroke-width:1.11211;stroke-miterlimit:4;stroke-dasharray:none"
           transform="translate(400)"
           id="path18587" />
        <g
           transform="translate(-192.12314,2.5077535)"
           id="g18613"
           style="stroke-width:1.11211">
          <path
             id="path18589"
             style="display:inline;fill:none;stroke:#00ff00;stroke-width:1.11211;stroke-miterlimit:4;stroke-dasharray:none"
             d="m 192.42834,13.570797 v 21 m 14,-21 -14,14 m 5,-5 9,12"
             inkscape:connector-curvature="0" />
          <path
             id="path18591"
             style="display:inline;fill:none;stroke:#00ff00;stroke-width:1.11211;stroke-miterlimit:4;stroke-dasharray:none"
             d="m 213.42834,20.570797 v 14 m 0,-10 3,-3 2,-1 h 3 l 2,1 1,3 v 10"
             inkscape:connector-curvature="0" />
          <path
             id="path18593-6"
             style="display:inline;fill:none;stroke:#00ff00;stroke-width:1.11211;stroke-miterlimit:4;stroke-dasharray:none"
             d="m 236.42834,20.570797 -2,1 -2,2 -1,3 v 2 l 1,3 2,2 2,1 h 3 l 2,-1 2,-2 1,-3 v -2 l -1,-3 -2,-2 -2,-1 h -3"
             inkscape:connector-curvature="0" />
          <path
             id="path18595-2"
             style="display:inline;fill:none;stroke:#00ff00;stroke-width:1.11211;stroke-miterlimit:4;stroke-dasharray:none"
             d="m 251.42834,13.570797 v 21 m 0,-11 2,-2 2,-1 h 3 l 2,1 2,2 1,3 v 2 l -1,3 -2,2 -2,1 h -3 l -2,-1 -2,-2"
             inkscape:connector-curvature="0" />
          <path
             id="path18597"
             style="display:inline;fill:none;stroke:#00ff00;stroke-width:1.11211;stroke-miterlimit:4;stroke-dasharray:none"
             d="m 291.42834,13.570797 -8,21 m 8,-21 8,21 m -13,-7 h 10"
             inkscape:connector-curvature="0" />
          <path
             id="path18599-6"
             style="display:inline;fill:none;stroke:#00ff00;stroke-width:1.11211;stroke-miterlimit:4;stroke-dasharray:none"
             d="m 314.42834,23.570797 -1,-2 -3,-1 h -3 l -3,1 -1,2 1,2 2,1 5,1 2,1 1,2 v 1 l -1,2 -3,1 h -3 l -3,-1 -1,-2"
             inkscape:connector-curvature="0" />
          <path
             id="path18601"
             style="display:inline;fill:none;stroke:#00ff00;stroke-width:1.11211;stroke-miterlimit:4;stroke-dasharray:none"
             d="m 331.42834,23.570797 -1,-2 -3,-1 h -3 l -3,1 -1,2 1,2 2,1 5,1 2,1 1,2 v 1 l -1,2 -3,1 h -3 l -3,-1 -1,-2"
             inkscape:connector-curvature="0" />
          <path
             id="path18603"
             style="display:inline;fill:none;stroke:#00ff00;stroke-width:1.11211;stroke-miterlimit:4;stroke-dasharray:none"
             d="m 337.42834,26.570797 h 12 v -2 l -1,-2 -1,-1 -2,-1 h -3 l -2,1 -2,2 -1,3 v 2 l 1,3 2,2 2,1 h 3 l 2,-1 2,-2"
             inkscape:connector-curvature="0" />
          <path
             id="path18605"
             style="display:inline;fill:none;stroke:#00ff00;stroke-width:1.11211;stroke-miterlimit:4;stroke-dasharray:none"
             d="m 356.42834,20.570797 v 14 m 0,-10 3,-3 2,-1 h 3 l 2,1 1,3 v 10 m 0,-10 3,-3 2,-1 h 3 l 2,1 1,3 v 10"
             inkscape:connector-curvature="0" />
          <path
             id="path18607"
             style="display:inline;fill:none;stroke:#00ff00;stroke-width:1.11211;stroke-miterlimit:4;stroke-dasharray:none"
             d="m 386.42834,13.570797 v 21 m 0,-11 2,-2 2,-1 h 3 l 2,1 2,2 1,3 v 2 l -1,3 -2,2 -2,1 h -3 l -2,-1 -2,-2"
             inkscape:connector-curvature="0" />
          <path
             id="path18609-1"
             style="display:inline;fill:none;stroke:#00ff00;stroke-width:1.11211;stroke-miterlimit:4;stroke-dasharray:none"
             d="m 405.42834,13.570797 v 21"
             inkscape:connector-curvature="0" />
          <path
             id="path18611"
             style="display:inline;fill:none;stroke:#00ff00;stroke-width:1.11211;stroke-miterlimit:4;stroke-dasharray:none"
             d="m 411.42834,20.570797 6,14 m 6,-14 -6,14 -2,4 -2,2 -2,1 h -1"
             inkscape:connector-curvature="0" />
        </g>
      </g>
    </g>
  </g>
</svg>
