<?xml version="1.0" encoding="UTF-8" standalone="no"?>
<!-- Created with Inkscape (http://www.inkscape.org/) -->

<svg
   xmlns:dc="http://purl.org/dc/elements/1.1/"
   xmlns:cc="http://creativecommons.org/ns#"
   xmlns:rdf="http://www.w3.org/1999/02/22-rdf-syntax-ns#"
   xmlns:svg="http://www.w3.org/2000/svg"
   xmlns="http://www.w3.org/2000/svg"
   xmlns:sodipodi="http://sodipodi.sourceforge.net/DTD/sodipodi-0.dtd"
   xmlns:inkscape="http://www.inkscape.org/namespaces/inkscape"
   width="210mm"
   height="297mm"
   viewBox="0 0 210 297"
   version="1.1"
   id="svg67696"
   inkscape:version="0.92.4 (unknown)"
   sodipodi:docname="u_memory_wheels.svg">
  <defs
     id="defs67690" />
  <sodipodi:namedview
     id="base"
     pagecolor="#ffffff"
     bordercolor="#666666"
     borderopacity="1.0"
     inkscape:pageopacity="0.0"
     inkscape:pageshadow="2"
     inkscape:zoom="1.106023"
     inkscape:cx="341.98058"
     inkscape:cy="914.28563"
     inkscape:document-units="mm"
     inkscape:current-layer="layer1"
     showgrid="false"
     inkscape:window-width="1920"
     inkscape:window-height="1015"
     inkscape:window-x="0"
     inkscape:window-y="0"
     inkscape:window-maximized="1" />
  <metadata
     id="metadata67693">
    <rdf:RDF>
      <cc:Work
         rdf:about="">
        <dc:format>image/svg+xml</dc:format>
        <dc:type
           rdf:resource="http://purl.org/dc/dcmitype/StillImage" />
        <dc:title></dc:title>
      </cc:Work>
    </rdf:RDF>
  </metadata>
  <g
     inkscape:label="Layer 1"
     inkscape:groupmode="layer"
     id="layer1">
    <path
       style="opacity:1;fill:none;fill-opacity:1;fill-rule:evenodd;stroke:#ff0000;stroke-width:0.1;stroke-linecap:round;stroke-miterlimit:4;stroke-dasharray:none;stroke-dashoffset:0;stroke-opacity:1"
       d="m 94.990172,73.352777 c -1.47755,-0.03906 -3.00119,-0.786715 -4.10983,-1.761133 -0.0414,0.001 -0.0827,8.36e-4 -0.12402,0.0016 -0.0437,7.6e-4 -0.0875,0.0011 -0.13126,0.0016 -0.053,4.26e-4 -0.10616,0.0016 -0.15916,0.0016 -0.12151,-1.43e-4 -0.24305,-0.0018 -0.36484,-0.0047 -0.005,-1.24e-4 -0.0107,-3.86e-4 -0.016,-5.16e-4 -1.45652,1.279303 -3.63076,2.170449 -5.47408,1.574062 -1.84167,-0.601533 -3.07729,-2.598552 -3.50315,-4.49068 -0.11248,-0.0776 -0.22362,-0.156525 -0.33383,-0.236678 -0.10081,-0.07338 -0.20087,-0.147894 -0.30024,-0.223761 -0.003,-0.0023 -0.006,-0.0044 -0.009,-0.0067 -1.93024,0.178769 -4.21249,-0.378192 -5.35316,-1.944065 -1.13628,-1.569035 -0.96231,-3.911132 -0.19482,-5.692162 v -5.15e-4 c -0.0436,-0.123884 -0.0856,-0.248031 -0.12609,-0.372587 -0.0131,-0.04048 -0.0254,-0.08136 -0.0382,-0.121957 -0.0175,-0.05557 -0.0347,-0.111178 -0.0517,-0.166915 -0.01,-0.0316 -0.02,-0.06287 -0.0295,-0.09457 -1.66672,-0.989928 -3.186,-2.781758 -3.18843,-4.719093 0.003,-1.937011 1.51989,-3.729249 3.1874,-4.719092 0.0757,-0.2536 0.15759,-0.506098 0.24598,-0.757058 -0.76639,-1.780487 -0.94187,-4.12352 0.19482,-5.692161 1.14092,-1.565859 3.42203,-2.123768 5.35316,-1.944065 0.21157,-0.161769 0.42639,-0.317715 0.64441,-0.468188 0.42664,-1.890758 1.66169,-3.888775 3.50314,-4.489649 1.84353,-0.59623 4.0174,0.293463 5.47409,1.574065 0.002,-5.3e-5 0.004,4.5e-5 0.006,0 0.0259,-6.17e-4 0.0521,4.94e-4 0.078,0 0.15573,-0.0031 0.31179,-0.0013 0.46767,0 0.08,7.4e-4 0.15966,-0.002 0.23978,0 10e-4,1.8e-5 0.002,-3.2e-5 0.003,0 1.45652,-1.2793 3.63077,-2.170444 5.47409,-1.574065 1.84141,0.601081 3.07602,2.597846 3.50211,4.489649 0.009,0.006 0.0173,0.01201 0.0258,0.01809 0.0639,0.04429 0.124998,0.09174 0.188098,0.136941 0.0365,0.02601 0.0737,0.05014 0.11007,0.07648 1.1e-4,7.9e-5 4.1e-4,-8.2e-5 5.2e-4,0 0.0412,0.02998 0.0806,0.06167 0.12144,0.09198 0.0563,0.04111 0.11355,0.08135 0.16898,0.123508 0.01,0.0072 0.0195,0.01393 0.0289,0.02119 1.93035,-0.17889 4.21291,0.378065 5.35368,1.944065 1.13665,1.56895 0.96246,3.911595 0.19482,5.692677 7.8e-4,0.0022 10e-4,0.0045 0.002,0.0067 0.0158,0.04484 0.0301,0.08997 0.0455,0.134877 0.007,0.0217 0.0149,0.04338 0.0222,0.06511 0.0184,0.05444 0.0375,0.108702 0.0553,0.163298 0.0176,0.0542 0.034,0.108913 0.0512,0.163296 0.009,0.02945 0.0183,0.05888 0.0274,0.08837 0.0138,0.04468 0.0285,0.08896 0.0419,0.133842 1.66679,0.989912 3.18601,2.782713 3.18844,4.720124 -0.003,1.937391 -1.52053,3.729363 -3.18844,4.719093 -0.008,0.02538 -0.0163,0.05024 -0.0243,0.07545 -0.0685,0.225399 -0.14629,0.449059 -0.22479,0.672309 0.76948,1.781532 0.94677,4.129818 -0.19172,5.700946 -1.14172,1.566349 -3.4246,2.124503 -5.35626,1.944065 -0.21057,0.16088 -0.42384,0.317394 -0.640788,0.467157 -0.42644,1.891056 -1.66138,3.889705 -3.50315,4.49068 -0.34674,0.112077 -0.70551,0.171759 -1.06866,0.186036 h -5.2e-4 c -0.0978,0.0038 -0.19571,0.0041 -0.29404,0.0016 z"
       id="path25782"
       inkscape:connector-curvature="0" />
    <path
       style="opacity:1;fill:none;fill-opacity:1;fill-rule:evenodd;stroke:#ff0000;stroke-width:0.37795275;stroke-linecap:round;stroke-miterlimit:4;stroke-dasharray:none;stroke-dashoffset:0;stroke-opacity:1"
       d="M 348.02734 115.84961 L 348.02734 126.97461 L 335.93359 126.97461 L 335.93359 115.9375 A 92.598425 92.598425 0 0 0 249.5957 202.18555 L 260.71875 202.18555 L 260.71875 214.2793 L 249.68555 214.2793 A 92.598425 92.598425 0 0 0 335.93359 300.61719 L 335.93359 289.49414 L 348.02734 289.49414 L 348.02734 300.5293 A 92.598425 92.598425 0 0 0 434.36523 214.2793 L 423.23828 214.2793 L 423.23828 202.18555 L 434.27734 202.18555 A 92.598425 92.598425 0 0 0 348.02734 115.84961 z "
       transform="scale(0.26458333)"
       id="circle25786" />
    <path
       inkscape:connector-curvature="0"
       d="m 90.265962,38.381583 2.17613,-3.0466 h -3.2642 m 1.08807,3.0466 v -4.5699"
       style="display:inline;fill:none;stroke:#00ff00;stroke-width:0.26458332;stroke-opacity:1"
       id="path25800" />
    <circle
       r="33"
       cy="102.0386"
       cx="75.178505"
       id="circle5601"
       style="fill:none;fill-opacity:0.123932;stroke:#ff0000;stroke-width:0.09999999;stroke-linecap:round;stroke-linejoin:round;stroke-miterlimit:4;stroke-dasharray:none;stroke-opacity:1"
       transform="rotate(15.5)" />
    <path
       id="path5625"
       d="m 43.37534,108.41805 v 7.55768 l -0.64182,0.64182 h -7.55819 v 3.6003 h 7.55768 l 0.64233,0.64234 v 7.55768 h 3.59979 v -7.55665 l 0.64337,-0.64337 h 7.55716 v -3.6003 h -7.55768 l -0.64285,-0.64285 v -7.55665 z"
       style="display:inline;fill:none;fill-opacity:0.5;stroke:#ff0000;stroke-width:0.1;stroke-linecap:round;stroke-linejoin:round;stroke-miterlimit:4;stroke-dasharray:none;stroke-opacity:1"
       inkscape:connector-curvature="0" />
    <path
       inkscape:connector-curvature="0"
       id="path5629"
       style="font-style:normal;font-variant:normal;font-weight:normal;font-stretch:normal;font-size:medium;line-height:1.25;font-family:'Hand Textur';-inkscape-font-specification:'Hand Textur';letter-spacing:0px;word-spacing:0px;fill:none;fill-opacity:1;stroke:#00ff00;stroke-width:0.1;stroke-miterlimit:4;stroke-dasharray:none;stroke-opacity:1"
       d="m 61.330356,121.84325 c 0.478548,0.0602 0.952588,0.18529 1.422125,0.37537 l 1.375805,0.51793 2.618463,0.98575 c 1.859899,0.82287 3.806498,1.32065 5.587949,2.07136 0.159513,0.89663 0.600128,1.64405 0.651978,2.48606 -0.09328,0.0316 -0.541207,-0.32411 -0.700716,-0.34415 -0.894877,-0.40253 -3.507792,-1.23061 -5.260522,-1.92845 -0.617448,-0.24585 -1.23687,-0.48563 -1.858204,-0.71953 -0.177541,-0.0668 -0.356958,-0.12777 -0.538325,-0.18277 -0.181431,-0.0548 -0.366622,-0.098 -0.555723,-0.12923 0.03086,0.2116 0.07844,0.42285 0.142758,0.63372 0.04953,0.2053 0.09904,0.4106 0.148551,0.6159 -0.163367,-0.008 -0.282045,-0.0262 -0.356015,-0.054 -0.074,-0.0278 -0.123816,-0.0533 -0.149552,-0.0763 -0.802282,-1.1279 -1.723963,-2.33838 -2.426322,-3.49331 -0.07269,-0.13404 -0.106428,-0.26006 -0.101285,-0.37811 -0.0058,-0.13551 -0.0061,-0.26229 -9.53e-4,-0.38035 z"
       sodipodi:nodetypes="ccccccccsscccsccccc" />
    <path
       sodipodi:nodetypes="cccccc"
       d="m 64.115583,125.00173 -1.086463,-1.55506 0.05579,-0.12458 2.772972,1.1023 2.618463,0.98575 c 1.859899,0.82287 2.335269,0.78959 4.116716,1.54031"
       style="font-style:normal;font-variant:normal;font-weight:normal;font-stretch:normal;font-size:medium;line-height:1.25;font-family:'Hand Textur';-inkscape-font-specification:'Hand Textur';letter-spacing:0px;word-spacing:0px;fill:none;fill-opacity:1;stroke:#00ff00;stroke-width:0.1;stroke-miterlimit:4;stroke-dasharray:none;stroke-opacity:1"
       id="path5631"
       inkscape:connector-curvature="0" />
    <path
       inkscape:connector-curvature="0"
       id="path5635"
       style="font-style:normal;font-variant:normal;font-weight:normal;font-stretch:normal;font-size:medium;line-height:1.25;font-family:'Hand Textur';-inkscape-font-specification:'Hand Textur';letter-spacing:0px;word-spacing:0px;fill:none;fill-opacity:1;stroke:#00ff00;stroke-width:0.10000003;stroke-miterlimit:4;stroke-dasharray:none;stroke-opacity:1"
       d="m 61.737875,113.76364 c 0.0019,-0.1605 0.008,-0.34904 0.01876,-0.5657 0.0098,-0.2297 0.03258,-0.45694 0.06822,-0.68171 0.137858,-1.09839 0.904541,-1.76648 1.773553,-2.31503 0.64859,-0.21074 1.196051,-0.31533 1.642387,-0.3138 0.432977,-0.007 0.832531,0.0559 1.198674,0.19012 0.365255,0.12116 0.733622,0.28793 1.1051,0.50033 0.359009,0.21645 0.788396,0.43668 1.288163,0.66069 0.14738,-1.25992 -0.01528,-2.57539 -0.04772,-3.78183 0.355469,-0.0222 0.706033,-0.0229 1.051698,-0.002 0.332299,0.0119 0.682422,0.005 1.050362,-0.0215 0.139854,-0.005 0.30469,-0.0191 0.494448,-0.0407 0.177293,-0.0176 0.325618,0.007 0.444992,0.0753 -0.01426,0.16452 -0.04948,0.30254 -0.105605,0.41405 -0.0686,0.11555 -0.09624,0.2711 -0.0829,0.46662 l 0.06138,0.89942 c 0.01503,0.40816 0.03199,0.84234 0.05065,1.30262 0.0062,0.46433 0.01016,0.89606 0.0119,1.29522 0.0017,0.39915 -0.01165,0.66998 -0.04018,0.81249 -0.01695,0.12542 -0.08155,0.20636 -0.193794,0.24283 -0.212041,0.0689 -0.522063,0.01 -0.930073,-0.17746 -0.4089,-0.20024 -0.86947,-0.41034 -1.381712,-0.6303 -0.513128,-0.233 -1.061008,-0.41473 -1.643638,-0.54519 -0.595991,-0.13945 -1.180864,-0.11597 -1.754615,0.0705 -0.261932,0.0851 -0.501594,0.21627 -0.71899,0.3935 -0.218285,0.16419 -0.402273,0.36387 -0.551966,0.59905 -0.15058,0.22214 -0.261523,0.46471 -0.332822,0.7277 -0.101529,0.61147 -0.04838,1.19636 0.227593,1.75203 -0.06419,-0.0219 -0.132467,0.0726 -0.196217,0.0495 -0.897441,-0.32698 -1.747744,-0.89715 -2.507632,-1.37651 z"
       sodipodi:nodetypes="ccccccccccccccsccccscccsccccscc" />
    <path
       sodipodi:nodetypes="cccccccccc"
       d="m 63.038998,114.53954 c 0.0019,-0.1605 -0.186739,-0.3428 -0.176126,-0.55944 0.0098,-0.22969 0.03258,-0.45694 0.06822,-0.6817 0.137857,-1.0984 0.899987,-1.84108 1.768997,-2.38963 0.648589,-0.21074 1.432051,-0.31595 1.87839,-0.31441 0.432977,-0.007 0.750154,0.0111 1.116297,0.14527 m 1.1051,0.50033 c 0.359007,0.21645 0.870774,0.48154 1.370542,0.70555 0.147378,-1.25993 0.06152,-2.58133 0.02908,-3.78777 l 0.185739,-0.72858"
       style="font-style:normal;font-variant:normal;font-weight:normal;font-stretch:normal;font-size:medium;line-height:1.25;font-family:'Hand Textur';-inkscape-font-specification:'Hand Textur';letter-spacing:0px;word-spacing:0px;fill:none;fill-opacity:1;stroke:#00ff00;stroke-width:0.10000003;stroke-miterlimit:4;stroke-dasharray:none;stroke-opacity:1"
       id="path5637"
       inkscape:connector-curvature="0" />
    <path
       inkscape:connector-curvature="0"
       id="path5641"
       style="font-style:normal;font-variant:normal;font-weight:normal;font-stretch:normal;font-size:medium;line-height:1.25;font-family:'Hand Textur';-inkscape-font-specification:'Hand Textur';letter-spacing:0px;word-spacing:0px;fill:none;fill-opacity:1;stroke:#00ff00;stroke-width:0.09999964;stroke-miterlimit:4;stroke-dasharray:none;stroke-opacity:1"
       d="m 53.995761,102.25875 c 0.03589,-0.30525 0.262213,-0.65275 0.448414,-0.90903 0.306821,-0.39188 0.751091,-0.51252 1.175348,-0.63703 0.229088,-0.0595 0.471684,-0.10912 0.727802,-0.14894 0.235443,-0.0398 0.464523,-0.0992 0.687248,-0.1784 -0.07547,-0.26567 -0.146947,-0.551043 -0.214444,-0.856111 -0.485219,-1.828479 0.281786,-2.774339 1.830109,-3.414356 0.558,-0.195087 1.191283,-0.26156 1.725238,-0.327877 0.366676,-0.04986 0.747273,-0.104669 1.14179,-0.164423 0.804376,-0.127005 1.569563,-0.354692 2.308687,-0.491328 0.179747,-0.02001 0.343985,0.02402 0.492676,0.132044 0.121663,0.08839 0.191221,0.19163 0.20868,0.309737 -0.120134,0.108502 -0.25976,0.172722 -0.418823,0.192699 -1.030872,0.209489 -2.059336,0.412294 -2.990027,0.832156 -0.251364,0.118581 -0.459425,0.291213 -0.624142,0.517925 -1.034238,1.184894 -0.56259,1.906128 0.171698,3.535914 -0.96071,0.21907 -1.890155,0.28216 -2.794133,0.42359 -0.33248,0.0596 -0.581078,0.20283 -0.745795,0.42954 -0.377461,0.55421 -0.491001,1.0678 -0.170051,1.73944 0.346596,0.71942 0.810025,1.00465 1.821422,1.25992 l -0.09668,0.13307 c -1.008357,0.17282 -2.966088,0.41813 -3.327441,0.36874 0,0 -0.6309,-0.37458 -0.851613,-0.70447 -0.362596,-0.65412 -0.51964,-1.324 -0.505958,-2.04281 z"
       sodipodi:nodetypes="ccccccccccsccccccccccccc" />
    <path
       sodipodi:nodetypes="ccccccccc"
       d="m 56.836972,104.95946 c 0,0 -0.716286,-0.39991 -1.05657,-0.83833 -0.672595,-1.02591 -0.633161,-1.92941 -0.151344,-2.92758 0.293812,-0.37364 0.51009,-0.48006 0.719297,-0.56903 m 0.609722,-0.18951 c 0.582046,-0.15746 1.175805,-0.243 1.777628,-0.30369 -0.963218,-1.423055 -0.711288,-2.37717 -0.01437,-3.263471 0.261923,-0.350367 0.641086,-0.540332 0.991661,-0.725311 0.202845,-0.108648 1.10542,-0.324802 1.328143,-0.403949"
       style="font-style:normal;font-variant:normal;font-weight:normal;font-stretch:normal;font-size:medium;line-height:1.25;font-family:'Hand Textur';-inkscape-font-specification:'Hand Textur';letter-spacing:0px;word-spacing:0px;fill:none;fill-opacity:1;stroke:#00ff00;stroke-width:0.09999964;stroke-miterlimit:4;stroke-dasharray:none;stroke-opacity:1"
       id="path5643"
       inkscape:connector-curvature="0" />
    <path
       inkscape:connector-curvature="0"
       id="path5647"
       style="font-style:normal;font-variant:normal;font-weight:normal;font-stretch:normal;font-size:medium;line-height:1.25;font-family:'Hand Textur';-inkscape-font-specification:'Hand Textur';letter-spacing:0px;word-spacing:0px;fill:none;fill-opacity:1;stroke:#00ff00;stroke-width:0.10000002;stroke-miterlimit:4;stroke-dasharray:none;stroke-opacity:1"
       d="m 45.675646,101.14435 c -0.325584,0 -0.651166,0.0162 -0.976752,0.0486 -0.338106,0.0432 -0.669952,0.0756 -0.995536,0.0972 0,-0.47535 -0.02504,-0.9453 -0.07513,-1.409847 -0.05009,-0.46455 -0.07514,-0.934499 -0.07514,-1.40985 0,-0.410531 0.0061,-0.826465 0.01873,-1.247797 -0.0065,-1.256747 -0.03607,-0.734055 0.0138,-1.318872 0,0 -0.833015,-0.02195 -1.158599,-0.02195 -0.325584,0.01104 -0.634023,0.256845 -0.959607,0.235245 0.02504,-0.09722 0.313519,-0.93274 0.351093,-1.051579 0.03757,-0.108009 0.180579,-0.728352 0.243192,-0.825584 0.129642,-0.233687 0.331409,-0.261138 0.563511,-0.307905 0.275376,-0.08119 0.248416,-0.05991 0.514604,-0.04013 0.212882,0 0.388198,-0.02702 0.525945,-0.08103 0.07513,-0.248481 0.112703,-0.502362 0.112703,-0.761642 -0.01262,-0.270088 0.01538,-0.682683 0.01538,-0.941965 0,-0.08644 -0.302387,-0.199866 -0.289822,-0.340307 0.01262,-0.140449 0.05636,-0.237677 0.131476,-0.291693 0.25045,-0.183656 1.013433,-0.98905 1.013433,-0.98905 0,0 0.351516,-0.36166 0.601965,-0.545319 h 0.15027 c 0.06261,0.05401 0.131496,0.102645 0.206623,0.145833 0.06261,0.0324 0.131495,0.07021 0.20662,0.113432 -0.119052,1.428568 -0.214899,1.946949 -0.16222,3.688589 1.142189,-0.03901 2.393769,-0.01301 3.592196,-0.01301 0.237927,0.01104 0.475854,0.01617 0.713779,0.01617 0.02155,0.08424 0.0032,0.144412 -0.04157,0.35308 -0.15027,0.259284 -0.659689,0.948737 -0.784912,1.218822 -1.043812,1.518559 -1.558505,2.535217 -2.779989,4.48134 -0.1002,0.205259 -0.212886,0.399719 -0.338107,0.583379 -0.137747,0.19446 -0.250449,0.39973 -0.338106,0.6158 z m 2.487204,-5.31378 c -0.896778,0.03076 -1.853752,0.01854 -2.510497,0.07379 -0.02978,1.825764 -0.02735,2.093581 0.01124,4.075853 0.906838,-1.604398 1.519328,-2.628027 2.499326,-4.149662 z"
       sodipodi:nodetypes="cccssccccccccccsccccccccccccccccccccc" />
    <path
       style="fill:none;stroke:#00ff00;stroke-width:0.10000002;stroke-linecap:butt;stroke-linejoin:miter;stroke-miterlimit:4;stroke-dasharray:none;stroke-opacity:1"
       d="m 49.518852,95.10989 h -4.683137 l -0.10726,3.807282 0.160879,2.323688"
       id="path5649"
       inkscape:connector-curvature="0" />
    <path
       style="fill:none;stroke:#00ff00;stroke-width:0.10000002;stroke-linecap:butt;stroke-linejoin:miter;stroke-miterlimit:4;stroke-dasharray:none;stroke-opacity:1"
       d="m 44.200394,90.666432 0.232373,0.178746 0.10726,3.89666 -1.841081,-0.07151 -1.018849,0.196613"
       id="path5651"
       inkscape:connector-curvature="0" />
    <path
       inkscape:connector-curvature="0"
       id="path5655"
       style="font-style:normal;font-variant:normal;font-weight:normal;font-stretch:normal;font-size:medium;line-height:1.25;font-family:'Hand Textur';-inkscape-font-specification:'Hand Textur';letter-spacing:0px;word-spacing:0px;fill:none;fill-opacity:1;stroke:#00ff00;stroke-width:0.10000005;stroke-miterlimit:4;stroke-dasharray:none;stroke-opacity:1"
       d="m 45.306274,135.04625 c 0.108927,0 0.247558,0.0254 0.415904,0.0761 0.168342,0.0405 0.302023,0.0862 0.40105,0.1369 0.08912,0.0507 0.193098,0.12172 0.311928,0.21297 0.128732,0.0811 0.252513,0.17747 0.371341,0.28903 0.128732,0.10141 0.242611,0.2079 0.341638,0.31945 0.108927,0.11155 0.193098,0.21296 0.252513,0.30424 0.217854,0.35494 0.371343,0.76567 0.460465,1.23217 0.09904,0.45635 0.148537,0.89243 0.148537,1.30822 0,0.62876 -0.07922,1.23217 -0.237657,1.81022 -0.15844,0.57806 -0.35154,1.15104 -0.579295,1.71895 -0.06932,0.18254 -0.441002,0.89822 -0.639059,1.17203 -0.19805,0.27382 -2.135635,2.78573 -2.373295,3.05955 -0.237661,0.28395 -0.48027,0.54256 -0.727832,0.77581 -0.23766,0.24339 -0.435709,0.41579 -0.594149,0.5172 l -0.23664,-0.21294 0.04456,-0.15212 c 0.919157,-1.43451 2.3784,-2.8007 2.966703,-4.44454 0.04953,-0.21297 0.113879,-0.42087 0.193098,-0.62369 0.07922,-0.21297 0.138655,-0.42594 0.178245,-0.6389 -0.11883,0.12169 -0.237659,0.26367 -0.356489,0.42593 -0.11883,0.16226 -0.247562,0.31945 -0.386197,0.47157 -0.128732,0.14198 -0.272318,0.26367 -0.430756,0.36509 -0.158439,0.10141 -0.326783,0.15212 -0.505028,0.15212 -0.08912,0 -0.20795,-0.0456 -0.356489,-0.13691 -0.148538,-0.0913 -0.297073,-0.19776 -0.445612,-0.31945 -0.148537,-0.1217 -0.287172,-0.24846 -0.415904,-0.3803 -0.11883,-0.13184 -0.203001,-0.23832 -0.252513,-0.31945 -0.04953,-0.071 -0.108928,-0.1724 -0.178245,-0.30424 -0.06932,-0.13184 -0.143586,-0.26874 -0.222806,-0.41072 -0.06932,-0.15212 -0.128712,-0.2941 -0.178244,-0.42594 -0.04953,-0.13183 -0.07429,-0.23832 -0.07429,-0.31945 0,-0.50706 0.02476,-0.933 0.07429,-1.2778 0.05942,-0.35494 0.153488,-0.67947 0.282222,-0.97356 0.128733,-0.2941 0.297073,-0.58313 0.505025,-0.86708 0.207952,-0.28396 0.465416,-0.61355 0.772393,-0.98878 0.456167,-0.57993 0.83951,-0.98642 1.470518,-1.55162 z m -1.173446,1.67331 c -0.108927,0.14198 -0.193099,0.27382 -0.252511,0.39551 -0.05942,0.11156 -0.103976,0.23325 -0.133684,0.36509 -0.02971,0.12169 -0.04951,0.25353 -0.0594,0.39551 v 0.45636 c 0,0.2231 0.0097,0.42086 0.02973,0.59326 0.02971,0.1724 0.06932,0.33466 0.118849,0.48678 0.05942,0.15212 0.128732,0.30424 0.20795,0.45636 0.07922,0.15212 0.173293,0.31945 0.282223,0.50199 0.138634,0.23326 0.316877,0.42594 0.534733,0.57806 l 0.653562,0.42593 c 0.0198,0.0203 0.03961,0.0355 0.0594,0.0456 0.0198,0.0102 0.04458,0.0152 0.07429,0.0152 0.09902,0 0.188147,-0.0456 0.267367,-0.13691 0.08912,-0.10141 0.16339,-0.21804 0.222805,-0.34987 0.05942,-0.13184 0.103976,-0.26875 0.133684,-0.41072 0.03959,-0.14198 0.0594,-0.25354 0.0594,-0.33467 0,-0.37523 -0.04456,-0.74538 -0.133683,-1.11047 -0.08912,-0.36509 -0.227755,-0.69975 -0.415902,-1.00399 -0.178245,-0.31438 -0.406002,-0.58819 -0.68327,-0.82144 -0.277271,-0.24339 -0.599102,-0.42594 -0.965493,-0.54763 z"
       sodipodi:nodetypes="ccccccccsccccccccccccccsssccccssccccccccccscccccccscccsscccc" />
    <path
       style="fill:none;stroke:#00ff00;stroke-width:0.10000005;stroke-linecap:round;stroke-linejoin:round;stroke-miterlimit:4;stroke-dasharray:none;stroke-opacity:1"
       d="m 44.274981,136.57293 0.907451,-0.84033 c 0,0 1.514994,0.722 1.769996,1.59762 0.615168,2.27006 -0.153235,4.68837 -0.899997,6.86669"
       id="path5657"
       inkscape:connector-curvature="0"
       sodipodi:nodetypes="cccc" />
    <path
       style="fill:none;stroke:#00ff00;stroke-width:0.10000005;stroke-linecap:round;stroke-linejoin:round;stroke-miterlimit:4;stroke-dasharray:none;stroke-opacity:1"
       d="m 45.840787,141.217 c 0,0 -0.780003,0.9217 -1.229997,0.84489 -2.196009,-0.7578 -1.682016,-3.1652 -0.885018,-4.91575"
       id="path5659"
       inkscape:connector-curvature="0"
       sodipodi:nodetypes="ccc" />
    <path
       inkscape:connector-curvature="0"
       id="path5663"
       style="font-style:normal;font-variant:normal;font-weight:normal;font-stretch:normal;font-size:medium;line-height:1.25;font-family:'Hand Textur';-inkscape-font-specification:'Hand Textur';letter-spacing:0px;word-spacing:0px;fill:none;fill-opacity:1;stroke:#00ff00;stroke-width:0.09999996;stroke-miterlimit:4;stroke-dasharray:none;stroke-opacity:1"
       d="m 55.287563,131.89534 0.107632,-0.0782 c 0.03585,-0.026 0.07834,-0.043 0.127802,-0.0504 0.116543,-0.0282 0.260005,-0.0476 0.430337,-0.0583 0.163617,-0.02 0.329456,-0.0274 0.497555,-0.0224 0.168087,0.005 0.33505,0.018 0.500889,0.0388 0.165839,0.0208 0.305898,0.0533 0.420182,0.0974 0.360775,0.1194 0.695759,0.27872 1.00495,0.47798 0.302473,0.19002 0.610539,0.39716 0.924201,0.62143 0.138926,0.0969 0.262149,0.19106 0.369684,0.28249 0.116484,0.0849 0.22177,0.19212 0.315839,0.3216 0.194858,0.2682 0.341517,0.56435 0.439978,0.88846 0.100709,0.30834 0.210386,0.61017 0.329029,0.90548 0.09625,0.2268 0.144342,0.42501 0.14428,0.59461 0.103384,1.40204 -0.198157,2.7306 -0.522836,3.74989 -0.03594,0.13915 -0.09423,0.23805 -0.174939,0.29669 -0.06278,0.0456 -0.114228,0.0691 -0.154689,0.07 -0.414635,0.0328 -0.834853,0.0202 -1.260655,-0.0379 -0.416829,-0.0645 -0.819072,-0.175 -1.206727,-0.33139 -0.29578,-0.12422 -0.6005,-0.29847 -0.914161,-0.52274 -0.311415,-0.24004 -0.564551,-0.49416 -0.75941,-0.76236 -0.06719,-0.0925 -0.155797,-0.233 -0.265366,-0.42186 -0.107481,-0.20451 -0.210479,-0.41228 -0.30901,-0.62329 -0.08953,-0.21756 -0.176839,-0.4226 -0.261932,-0.61511 -0.08281,-0.20831 -0.132057,-0.37035 -0.147691,-0.48616 -0.280413,-1.46089 -0.149097,-2.66723 0.136306,-3.91416 0.06285,-0.21522 0.139122,-0.35542 0.228801,-0.42057 z m 0.80841,3.80004 c 0.188138,0.25895 0.434541,0.53209 0.739192,0.81943 0.313635,0.28082 0.629567,0.46105 0.947773,0.54073 0.154623,0.0431 0.336133,0.0949 0.544537,0.15544 0.210651,0.0448 0.425786,0.0863 0.645407,0.12455 0.219619,0.0383 0.433641,0.0594 0.642073,0.0634 0.20171,-0.005 0.376541,-0.0475 0.524499,-0.12673 -0.0179,-0.10003 -0.05819,-0.21209 -0.120868,-0.33609 -0.06045,-0.13977 -0.13322,-0.27765 -0.21834,-0.41363 -0.07613,-0.14251 -0.157857,-0.27389 -0.245209,-0.39411 -0.08507,-0.13602 -0.157923,-0.24558 -0.218396,-0.32882 -0.107508,-0.14797 -0.252,-0.29027 -0.433471,-0.42689 -0.181473,-0.13662 -0.373038,-0.25885 -0.574695,-0.36668 -0.208377,-0.11708 -0.419001,-0.21839 -0.631877,-0.30394 -0.210625,-0.10131 -0.399967,-0.18276 -0.568028,-0.24435 -0.259933,-0.0937 -0.492993,-0.1505 -0.699175,-0.17026 -0.197213,-0.0263 -0.43142,-0.0186 -0.702623,0.023 -0.04929,0.008 -0.08743,0.0211 -0.114315,0.0406 -0.05381,0.0391 -0.06618,0.1258 -0.0371,0.2601 0.03135,0.11855 0.08057,0.25234 0.147748,0.40134 0.06045,0.13978 0.128736,0.28091 0.204854,0.42344 0.07835,0.12676 0.134405,0.2132 0.168003,0.25945 z"
       sodipodi:nodetypes="csccccccccsccccsccccscccccccccccccccccsscccccsccccc" />
    <path
       style="fill:none;stroke:#00ff00;stroke-width:0.09999996;stroke-linecap:round;stroke-linejoin:round;stroke-miterlimit:4;stroke-dasharray:none;stroke-opacity:1"
       d="m 55.554692,134.58517 c 0.235582,2.24301 1.212342,3.61755 3.211782,4.03223 0.684004,0.11291 1.019565,-0.22775 1.375738,-1.35345 0.276834,-1.54883 -0.464085,-3.21752 -2.3039,-4.06038 -1.085831,-0.47753 -2.163129,-0.27889 -2.290273,1.08677 v 0"
       id="path5665"
       inkscape:connector-curvature="0"
       sodipodi:nodetypes="cccccc" />
    <path
       sodipodi:nodetypes="cccsccccsssccccccscccccccccccccccccscc"
       d="m 33.095503,106.49371 -0.14735,0.10706 c -0.04234,0.045 -0.0814,0.0945 -0.117067,0.14873 l -0.09084,-0.12503 c -0.188413,-0.25933 -0.314847,-0.54954 -0.379293,-0.87064 -0.07673,-0.31217 -0.193649,-0.60221 -0.35078,-0.87012 -0.01145,-0.11904 -0.0514,-0.23859 -0.119867,-0.35866 -0.06168,-0.11084 -0.05141,-0.23859 0.03101,-0.38337 0.07917,-0.0718 0.161806,-0.13878 0.247761,-0.20123 l 0.257849,-0.18734 c 0.319245,-0.23194 0.63912,-0.45011 0.959505,-0.65466 0.320423,-0.2045 0.646986,-0.41346 0.979685,-0.62688 -0.07437,-0.25729 -0.1426,-0.51903 -0.204684,-0.78524 -0.05537,-0.25694 -0.135871,-0.50976 -0.241523,-0.75847 -0.406371,0.26695 -0.822427,0.45601 -1.248152,0.56722 -0.418999,0.12046 -0.819168,0.16356 -1.200502,0.1293 -0.374604,-0.025 -0.72087,-0.12719 -1.038798,-0.30657 -0.323479,-0.1612 -0.589519,-0.38535 -0.79812,-0.67247 -0.07402,-0.10188 -0.138505,-0.20361 -0.193548,-0.30512 -0.06056,-0.0834 -0.121683,-0.18046 -0.183455,-0.29124 -0.09533,-0.157152 -0.156291,-0.395872 -0.182728,-0.716281 -0.03486,-1.791611 1.16375,-4.262609 1.411784,-5.589321 0.131876,-0.02506 0.254251,-0.05029 0.367111,-0.07569 0.106132,-0.03465 0.649712,0.123844 0.649712,0.123844 0,0 -1.446771,4.286126 -0.499711,4.903872 0.296561,0.124152 0.618686,0.180204 0.966375,0.168157 0.354415,-0.0028 0.718753,-0.06938 1.093009,-0.199789 0.380983,-0.121145 0.750696,-0.283624 1.109136,-0.487443 0.134932,0.340637 0.222932,0.694147 0.263998,1.060532 0.04107,0.366379 0.110063,0.719549 0.206977,1.059509 l 0.334653,1.15778 c 0.105999,0.40411 0.224283,0.7993 0.354841,1.18556 0.101288,0.29433 0.205347,0.57957 0.312178,0.85572 0.101288,0.29433 0.16851,0.60633 0.201667,0.93601 -0.295865,0.18666 -0.598463,0.36405 -0.907786,0.53219 -0.321601,0.17706 -0.629744,0.37264 -0.924431,0.58674 -0.380638,0.27655 -0.686841,0.591 -0.918606,0.94334 z"
       style="font-style:normal;font-variant:normal;font-weight:normal;font-stretch:normal;font-size:medium;line-height:1.25;font-family:'Hand Textur';-inkscape-font-specification:'Hand Textur';letter-spacing:0px;word-spacing:0px;fill:none;fill-opacity:1;stroke:#00ff00;stroke-width:0.10000005;stroke-miterlimit:4;stroke-dasharray:none;stroke-opacity:1"
       id="path5669"
       inkscape:connector-curvature="0" />
    <path
       inkscape:connector-curvature="0"
       id="path5671"
       d="m 32.288646,105.46239 0.308917,-0.32544 2.256936,-1.39738 -0.488391,-1.26801"
       style="fill:none;stroke:#00ff00;stroke-width:0.10000005;stroke-linecap:butt;stroke-linejoin:miter;stroke-miterlimit:4;stroke-dasharray:none;stroke-opacity:1" />
    <path
       sodipodi:nodetypes="ccsccc"
       inkscape:connector-curvature="0"
       id="path5673"
       d="m 33.919909,100.92786 -0.298541,-1.220844 c 0,0 -1.25943,0.713044 -1.808478,0.707974 -0.549047,-0.005 -1.254151,-0.28053 -1.680386,-0.839394 -0.482617,-0.719889 -0.516798,-2.129166 -0.448109,-2.562849 0.06869,-0.433677 0.07489,-0.842157 0.07489,-0.842157"
       style="fill:none;stroke:#00ff00;stroke-width:0.10000005;stroke-linecap:butt;stroke-linejoin:miter;stroke-miterlimit:4;stroke-dasharray:none;stroke-opacity:1" />
    <path
       sodipodi:nodetypes="ccccccccccccccccsc"
       d="m 28.203716,123.30899 c 0.404113,1.19794 0.433277,2.46158 1.049824,3.61646 l -0.06768,0.26018 c -0.07734,0.0251 -0.147627,0.0113 -0.210836,-0.0414 -0.06073,-0.0413 -0.127409,-0.0624 -0.200052,-0.0632 -1.692441,-1.17112 -6.963879,-0.8912 -10.417665,-1.21393 -0.130889,-0.0308 -0.20253,-0.0747 -0.214916,-0.13172 -0.01,-0.0456 -0.01378,-0.0871 -0.0116,-0.12448 0.0022,-0.0374 0.0044,-0.0747 0.0067,-0.11211 -0.01152,-0.47767 -0.02346,-0.68648 0.04369,-1.12945 1.395291,0.76898 5.511001,0.95156 8.17977,1.18388 0.0035,-0.26986 -0.09516,-0.80219 -0.159616,-1.09883 -0.06197,-0.28524 -0.12146,-0.55906 -0.178468,-0.82147 -0.07188,-0.33087 -0.166824,-0.67257 -0.284811,-1.02511 -0.115501,-0.34113 -0.238213,-0.6677 -0.368119,-0.97972 0.755606,-0.0895 1.178003,-0.11385 1.911806,-0.16851 0,0 0.336341,-0.0985 0.484394,0.30749 0.08909,0.2444 0.226398,0.70226 0.437573,1.54199 z"
       style="font-style:normal;font-variant:normal;font-weight:normal;font-stretch:normal;font-size:medium;line-height:1.25;font-family:'Hand Textur';-inkscape-font-specification:'Hand Textur';letter-spacing:0px;word-spacing:0px;fill:none;fill-opacity:1;stroke:#00ff00;stroke-width:0.10000006;stroke-miterlimit:4;stroke-dasharray:none;stroke-opacity:1"
       id="path5677"
       inkscape:connector-curvature="0" />
    <path
       sodipodi:nodetypes="cccc"
       inkscape:connector-curvature="0"
       id="path5679"
       d="m 26.511239,121.54 0.226044,0.42884 1.071473,3.93804 c -0.302795,-0.0909 -0.826468,-0.27719 -1.447793,-0.35374"
       style="fill:none;stroke:#00ff00;stroke-width:0.10000006;stroke-linecap:round;stroke-linejoin:round;stroke-miterlimit:4;stroke-dasharray:none;stroke-opacity:1" />
    <path
       sodipodi:nodetypes="cccscccccccssccccccccsccccccscccccccsscccsssccscsccccsscsccccscccscccccc"
       d="m 35.480483,132.33398 c 0.701662,0.52877 1.073798,1.47327 0.931286,2.17788 -0.05811,0.12008 -0.111437,0.24363 -0.159998,0.37065 -0.04213,0.11816 -0.105005,0.23477 -0.188615,0.34985 -0.13506,0.1859 -0.301731,0.31501 -0.500003,0.38736 -0.198282,0.0723 -0.41718,0.12293 -0.65671,0.15178 -0.223567,0.0269 -0.451892,0.0504 -0.684991,0.0704 -0.233101,0.02 -0.524247,0.0113 -0.712986,0.0906 0.06522,0.33141 0.226752,0.69898 0.324131,0.98612 0.103811,0.2783 0.177346,0.54812 0.220607,0.80948 0.04326,0.26135 0.03862,0.52847 -0.01393,0.80137 -0.05256,0.27288 -0.188162,0.55982 -0.406831,0.86079 -0.102903,0.14163 -0.213753,0.28426 -0.332658,0.42779 -0.118933,0.14351 -0.240841,0.27134 -0.365929,0.38333 -0.214907,0.19551 -0.558893,0.35809 -1.031959,0.48776 -0.473071,0.12967 -0.982626,0.2193 -1.528666,0.2689 -0.530073,0.0477 -1.040742,0.0486 -1.532007,0.003 -0.484833,-0.0547 -0.851233,-0.17214 -1.099201,-0.3523 -0.585298,-0.67382 -1.038996,-1.75921 -0.957589,-2.62302 0.03282,-0.1655 0.07362,-0.33197 0.122403,-0.4994 0.05833,-0.16049 0.121424,-0.31752 0.189279,-0.4711 0.0774,-0.14664 0.148249,-0.26422 0.212563,-0.35274 0.173649,-0.23901 0.43635,-0.42008 0.788101,-0.54322 0.361289,-0.1162 0.719252,-0.20777 1.073889,-0.27471 0.364174,-0.06 0.683547,-0.0985 0.958121,-0.11537 0.290542,-0.0188 0.631393,-0.0323 0.631393,-0.0323 -0.134816,-0.51652 -0.297962,-0.89634 -0.351003,-1.34638 0.02704,-0.2779 0.0491,-0.51884 0.06617,-0.72284 0.03303,-0.20592 0.133159,-0.42396 0.300376,-0.65411 0.109336,-0.15049 0.229652,-0.26595 0.36095,-0.34638 0.131296,-0.0804 0.289657,-0.14796 0.475061,-0.2026 0.185408,-0.0547 0.460207,-0.11196 0.824382,-0.17197 0.364174,-0.06 0.739438,-0.1052 1.125793,-0.13557 0.402323,-0.0323 0.777367,-0.0371 1.125133,-0.0143 0.357304,0.0297 0.621791,0.10688 0.793461,0.2316 z m -2.493426,0.72433 c -0.09647,0.13279 -0.154798,0.29328 -0.174964,0.4815 -0.02017,0.18822 -0.01805,0.38587 0.0063,0.59295 0.03394,0.21401 0.07909,0.42263 0.135432,0.62586 0.06278,0.19439 0.331052,0.78449 0.331052,0.78449 0,0 0.278083,0.0218 0.411534,-0.002 0.178019,-0.0311 0.375044,-0.005 0.503674,-0.18181 0.07075,-0.0974 0.129073,-0.25788 0.174964,-0.4815 0.04589,-0.22363 0.06951,-0.45669 0.07083,-0.69917 0.01729,-0.24441 9.75e-4,-0.47267 -0.04894,-0.68475 -0.04348,-0.22095 -0.122444,-0.37299 -0.236891,-0.45614 -0.219357,-0.15937 -0.429507,-0.25119 -0.630449,-0.27546 -0.194514,-0.0331 -0.375376,0.0654 -0.542592,0.29555 z m -2.076856,3.03923 c 0,0 -0.269747,0.0301 -0.381524,0.0436 -0.10224,0.0204 -0.214137,0.054 -0.335672,0.101 -0.121537,0.0469 -0.238309,0.0974 -0.350309,0.15123 -0.09603,0.052 -0.156906,0.0956 -0.182632,0.13105 -0.0193,0.0266 -0.04358,0.0901 -0.07285,0.19052 -0.02927,0.10046 -0.05699,0.2088 -0.08316,0.32504 -0.01019,0.11431 -0.02516,0.22516 -0.0449,0.33255 -0.01974,0.10738 -0.02971,0.18128 -0.02993,0.2217 -0.004,0.14588 0.0077,0.35045 0.03496,0.61373 0.04326,0.26135 0.09606,0.52964 0.158396,0.80485 0.07187,0.28214 0.15184,0.54311 0.239901,0.78292 0.104027,0.23788 0.213268,0.39839 0.327716,0.48154 l 0.02862,0.0208 c 0.01607,-0.002 0.03349,0.004 0.05256,0.0179 0.156365,0.005 0.308066,-0.0129 0.455107,-0.0548 0.163016,-0.0439 0.289539,-0.12776 0.37958,-0.25169 0.05146,-0.0708 0.106171,-0.16631 0.164327,-0.28635 0.06453,-0.12894 0.116313,-0.26038 0.155344,-0.39432 0.05499,-0.13587 0.09402,-0.26981 0.117081,-0.40183 0.03904,-0.13395 0.054,-0.24479 0.0449,-0.33256 -0.0122,-0.10353 -0.01932,-0.31436 -0.07544,-0.55801 -0.185078,-0.67024 -0.411771,-1.34565 -0.602075,-1.93887 z"
       style="font-style:normal;font-variant:normal;font-weight:normal;font-stretch:normal;font-size:medium;line-height:1.25;font-family:'Hand Textur';-inkscape-font-specification:'Hand Textur';letter-spacing:0px;word-spacing:0px;fill:none;fill-opacity:1;stroke:#00ff00;stroke-width:0.10000006;stroke-miterlimit:4;stroke-dasharray:none;stroke-opacity:1"
       id="path5683"
       inkscape:connector-curvature="0" />
    <path
       sodipodi:nodetypes="csc"
       inkscape:connector-curvature="0"
       id="path5685"
       d="m 34.11455,135.4498 c 0,0 1.290223,-0.32146 1.275262,-1.20542 -0.01906,-1.1262 -0.869264,-1.44342 -1.772448,-1.49169"
       style="fill:none;stroke:#00ff00;stroke-width:0.10000006;stroke-linecap:round;stroke-linejoin:round;stroke-miterlimit:4;stroke-dasharray:none;stroke-opacity:1" />
    <path
       sodipodi:nodetypes="ccscc"
       inkscape:connector-curvature="0"
       id="path5687"
       d="m 33.299261,132.76606 c 0,0 -1.170316,0.16586 -1.563674,0.89971 -0.645055,1.16275 0.467688,2.49029 0.775711,3.77079 0.308022,1.2805 0.02717,2.24439 -0.687547,2.54082 -0.20727,0.0914 -1.004855,0.25387 -1.047,0.25895"
       style="fill:none;stroke:#00ff00;stroke-width:0.10000006;stroke-linecap:round;stroke-linejoin:round;stroke-miterlimit:4;stroke-dasharray:none;stroke-opacity:1" />
    <path
       sodipodi:nodetypes="ccsc"
       inkscape:connector-curvature="0"
       id="path5689"
       d="m 29.936283,136.30725 c 0,0 -1.257671,0.38397 -1.530958,0.76011 -0.673654,0.78974 -0.385796,2.0368 0.339406,2.74933 0.685083,0.6731 1.52665,0.49928 1.52665,0.49928"
       style="fill:none;stroke:#00ff00;stroke-width:0.10000006;stroke-linecap:round;stroke-linejoin:round;stroke-miterlimit:4;stroke-dasharray:none;stroke-opacity:1" />
    <path
       sodipodi:nodetypes="cczzzzcccccccccscccc"
       inkscape:connector-curvature="0"
       id="path5693"
       d="m 23.872591,110.54302 c -0.734462,1.1595 -1.855533,1.74785 -2.677321,1.19248 -0.685542,-0.55778 -0.427623,-1.28235 -0.02968,-1.8293 0.397938,-0.54696 1.110003,-1.18062 2.163212,-1.21756 1.053209,-0.0369 2.77719,0.69295 3.311969,1.76626 0.534779,1.07331 0.327128,1.96752 0.116775,2.65743 -0.210275,0.68994 -0.193632,0.81503 -0.12951,1.39101 l 1.752705,2.02322 c 0.04209,0.0183 0.208811,0.10964 0.299748,0.12566 l 4.05e-4,1.4e-4 c 0.02997,-0.19957 -0.08574,-0.32717 -0.146065,-0.4376 -0.765712,-1.00272 0.205462,-2.55143 0.01239,-3.86428 -0.303477,-1.432 -1.20983,-2.35571 -2.619934,-3.48943 -1.094832,-0.79178 -2.467207,-1.29813 -3.610685,-1.37551 -0.941524,0.002 -1.673543,0.15863 -2.335534,0.64307 -0.445046,0.28854 -0.67289,1.03185 -0.550988,1.68656 0.171637,0.9197 0.875431,1.80398 1.251825,2.22628 0.653986,0.77124 1.856285,1.49289 2.660791,1.1876 0.622267,-0.2496 1.22949,-0.82296 1.718387,-1.42449 z"
       style="font-style:normal;font-variant:normal;font-weight:normal;font-stretch:normal;font-size:medium;line-height:1.25;font-family:'Hand Textur';-inkscape-font-specification:'Hand Textur';letter-spacing:0px;word-spacing:0px;fill:none;fill-opacity:1;stroke:#00ff00;stroke-width:0.09999985;stroke-miterlimit:4;stroke-dasharray:none;stroke-opacity:1" />
    <path
       sodipodi:nodetypes="ccc"
       inkscape:connector-curvature="0"
       id="path5695"
       d="m 27.701081,115.61485 c -0.720069,-1.14745 0.227319,-2.35706 -0.0849,-3.50094 -0.209953,-0.61469 -0.445693,-1.13102 -0.866744,-1.65146"
       style="fill:none;stroke:#00ff00;stroke-width:0.09999985;stroke-linecap:round;stroke-linejoin:round;stroke-miterlimit:4;stroke-dasharray:none;stroke-opacity:1" />
    <path
       sodipodi:nodetypes="csc"
       inkscape:connector-curvature="0"
       id="path5697"
       d="m 24.769414,108.19105 c -1.406796,-0.38448 -2.387121,-0.21064 -3.221777,0.0458 -1.30152,0.39994 -1.619334,1.84702 -0.838879,2.87059"
       style="fill:none;stroke:#00ff00;stroke-width:0.09999985;stroke-linecap:round;stroke-linejoin:round;stroke-miterlimit:4;stroke-dasharray:none;stroke-opacity:1" />
    <path
       sodipodi:nodetypes="csc"
       inkscape:connector-curvature="0"
       id="path5699"
       d="m 21.476942,111.97974 c 0.545286,0.43873 0.734127,0.494 1.138895,0.47027 0.814328,-0.0477 1.32579,-0.64831 1.77451,-1.23627"
       style="fill:none;stroke:#00ff00;stroke-width:0.09999985;stroke-linecap:round;stroke-linejoin:round;stroke-miterlimit:4;stroke-dasharray:none;stroke-opacity:1" />
    <path
       sodipodi:nodetypes="ccccccccccccccccccccccccccccccccccccc"
       inkscape:connector-curvature="0"
       id="path5149"
       d="m 169.96351,104.11412 h 15.50008 v -11 l -1.50001,-2.80011 2e-5,-1 h 1.49999 l -8e-5,-3.2 0.6,-0.99989 8.8,-1.1e-4 0.6,1 9e-5,3.2 h 1.49999 v 1 l -1.49999,2.80011 v 11 h 15.49998 l 1,-1 v -6 h 3 v 7.6 l -3,2 -12.49999,2 -2e-5,7.2 h -3.99999 l -7e-5,12.19989 -0.6,1 h -8.8 l -0.6,-1 6e-5,-12.19989 h -4 l 2e-5,-7.2 -12.50006,-2 -3,-2 v -7.6 h 3 l -2e-5,6 z"
       style="fill:none;fill-opacity:0.5;stroke:#ff0000;stroke-width:0.1;stroke-linecap:round;stroke-linejoin:round;stroke-miterlimit:4;stroke-dasharray:none;stroke-opacity:1" />
    <path
       style="fill:none;fill-opacity:0.5;stroke:#ff0000;stroke-width:0.09999999;stroke-linecap:round;stroke-linejoin:round;stroke-miterlimit:4;stroke-dasharray:none;stroke-opacity:1"
       d="m 192.06358,107.11412 v -4 h -3.2 v 4 z"
       id="path5151"
       inkscape:connector-curvature="0" />
    <path
       style="fill:none;fill-opacity:0.5;stroke:#ff0000;stroke-width:0.09999999;stroke-linecap:round;stroke-linejoin:round;stroke-miterlimit:4;stroke-dasharray:none;stroke-opacity:1"
       d="m 192.06358,125.11412 v -4 h -3.2 v 4 z"
       id="path5153"
       inkscape:connector-curvature="0" />
    <path
       inkscape:connector-curvature="0"
       id="path5155"
       d="m 192.06358,94.11412 v -4 h -3.2 v 4 z"
       style="fill:none;fill-opacity:0.5;stroke:#ff0000;stroke-width:0.09999999;stroke-linecap:round;stroke-linejoin:round;stroke-miterlimit:4;stroke-dasharray:none;stroke-opacity:1" />
    <path
       sodipodi:nodetypes="ccccccccccccccccccccccccccccccccc"
       inkscape:connector-curvature="0"
       d="m 146.46365,94.614069 h 1.59988 v 14.199651 h -1.59988 v 3.80028 h 1.59988 v 8.99997 h -1.59988 l -6e-5,3.79995 h 1.59988 v 5.20008 l 2.80012,1e-5 0.59999,-1 v -3.20009 h 1.50037 l -2.3e-4,-0.99982 -1.50014,-2.80025 v -10.99979 h 15.50022 l 0.99994,0.99994 v 6.00015 h 3.00029 v -7.60044 l -3,-2 -12.50016,-1.99988 3e-5,-7.199788 h -4.00026 V 87.61401 l -0.6,-1 -2.80011,3e-5 v 3.999757 h -1.59988 z"
       style="fill:none;fill-opacity:0.5;stroke:#ff0000;stroke-width:0.1;stroke-linecap:round;stroke-linejoin:round;stroke-miterlimit:4;stroke-dasharray:none;stroke-opacity:1"
       id="path5159" />
    <path
       sodipodi:nodetypes="cccccccccccccccccccccccccccccccccc"
       inkscape:connector-curvature="0"
       d="m 136.46359,90.613797 h -1.59991 V 86.61404 l -2.80008,-3e-5 -0.6,1 -2.1e-4,12.200032 h -3.99973 l -6e-5,7.199788 -12.50008,1.99994 -3,2 v 7.60038 h 2.99981 V 112.614 l 0.99991,-0.99994 h 15.50012 v 10.99979 l -1.49981,2.80025 -8e-5,0.99982 h 1.49989 l 2.4e-4,3.20009 0.6,1 2.80008,-1e-5 v -5.20008 h 1.59991 v -3.79995 h -1.59991 v -8.99997 0 h 1.59991 v -3.80028 h -1.59991 V 94.614069 h 1.59991 z"
       style="fill:none;fill-opacity:0.5;stroke:#ff0000;stroke-width:0.1;stroke-linecap:round;stroke-linejoin:round;stroke-miterlimit:4;stroke-dasharray:none;stroke-opacity:1"
       id="path5161" />
  </g>
</svg>
