<?xml version="1.0" encoding="UTF-8" standalone="no"?>
<!-- Created with Inkscape (http://www.inkscape.org/) -->

<svg
   xmlns:dc="http://purl.org/dc/elements/1.1/"
   xmlns:cc="http://creativecommons.org/ns#"
   xmlns:rdf="http://www.w3.org/1999/02/22-rdf-syntax-ns#"
   xmlns:svg="http://www.w3.org/2000/svg"
   xmlns="http://www.w3.org/2000/svg"
   xmlns:sodipodi="http://sodipodi.sourceforge.net/DTD/sodipodi-0.dtd"
   xmlns:inkscape="http://www.inkscape.org/namespaces/inkscape"
   width="210mm"
   height="297mm"
   viewBox="0 0 210 297"
   version="1.1"
   id="svg67071"
   inkscape:version="0.92.4 (unknown)"
   sodipodi:docname="u_memory_box.svg">
  <defs
     id="defs67065" />
  <sodipodi:namedview
     id="base"
     pagecolor="#ffffff"
     bordercolor="#666666"
     borderopacity="1.0"
     inkscape:pageopacity="0.0"
     inkscape:pageshadow="2"
     inkscape:zoom="0.61534596"
     inkscape:cx="-294.46591"
     inkscape:cy="1253.3863"
     inkscape:document-units="mm"
     inkscape:current-layer="layer1"
     showgrid="false"
     inkscape:window-width="1920"
     inkscape:window-height="1015"
     inkscape:window-x="0"
     inkscape:window-y="0"
     inkscape:window-maximized="1" />
  <metadata
     id="metadata67068">
    <rdf:RDF>
      <cc:Work
         rdf:about="">
        <dc:format>image/svg+xml</dc:format>
        <dc:type
           rdf:resource="http://purl.org/dc/dcmitype/StillImage" />
        <dc:title />
      </cc:Work>
    </rdf:RDF>
  </metadata>
  <g
     inkscape:label="Layer 1"
     inkscape:groupmode="layer"
     id="layer1">
    <path
       sodipodi:nodetypes="ccccccccccccccccccccccccc"
       inkscape:connector-curvature="0"
       d="m 234.57119,48.46996 1,1 v 9.045 h -3.2004 v 7.91 h 3.2004 v 40.09 h -3.2004 v 7.91 h 3.2004 v 7.045 l -1,1 h -323 l -1,-1 v -7 h 3.1996 v -8 h -3.1996 v -40 h 3.1996 v -8 h -3.1996 v -9 l 1,-1 z"
       style="fill:none;stroke:#ff0000;stroke-width:0.1;stroke-miterlimit:4;stroke-dasharray:none"
       id="path17930-9" />
    <rect
       y="100.46996"
       x="191.07118"
       height="16"
       width="14"
       id="rect20442"
       style="fill:none;fill-opacity:0.5;stroke:#ff0000;stroke-width:0.10000001;stroke-linecap:round;stroke-linejoin:round;stroke-miterlimit:4;stroke-dasharray:none;stroke-opacity:1" />
    <circle
       style="fill:none;fill-opacity:0.5;stroke:#ff0000;stroke-width:0.1;stroke-linecap:round;stroke-linejoin:round;stroke-miterlimit:4;stroke-dasharray:none;stroke-opacity:1"
       id="circle18654"
       cx="-51.928818"
       cy="85.469963"
       r="5.0500002" />
    <rect
       style="fill:none;fill-opacity:0.5;stroke:#ff0000;stroke-width:0.10000001;stroke-linecap:round;stroke-linejoin:round;stroke-miterlimit:4;stroke-dasharray:none;stroke-opacity:1"
       id="rect5077"
       width="14"
       height="16"
       x="141.07118"
       y="100.46996" />
    <rect
       y="100.46996"
       x="91.071182"
       height="16"
       width="14"
       id="rect5079"
       style="fill:none;fill-opacity:0.5;stroke:#ff0000;stroke-width:0.10000001;stroke-linecap:round;stroke-linejoin:round;stroke-miterlimit:4;stroke-dasharray:none;stroke-opacity:1" />
    <rect
       style="fill:none;fill-opacity:0.5;stroke:#ff0000;stroke-width:0.10000001;stroke-linecap:round;stroke-linejoin:round;stroke-miterlimit:4;stroke-dasharray:none;stroke-opacity:1"
       id="rect5081"
       width="14"
       height="16"
       x="41.071182"
       y="100.46996" />
    <rect
       y="100.46996"
       x="-8.9288187"
       height="16"
       width="14"
       id="rect5083"
       style="fill:none;fill-opacity:0.5;stroke:#ff0000;stroke-width:0.10000001;stroke-linecap:round;stroke-linejoin:round;stroke-miterlimit:4;stroke-dasharray:none;stroke-opacity:1" />
    <rect
       style="fill:none;fill-opacity:0.5;stroke:#ff0000;stroke-width:0.10000001;stroke-linecap:round;stroke-linejoin:round;stroke-miterlimit:4;stroke-dasharray:none;stroke-opacity:1"
       id="rect5085"
       width="14"
       height="16"
       x="-58.928818"
       y="100.46996" />
    <circle
       r="5.0500002"
       cy="85.469963"
       cx="-1.9288192"
       id="circle30772"
       style="fill:none;fill-opacity:0.5;stroke:#ff0000;stroke-width:0.1;stroke-linecap:round;stroke-linejoin:round;stroke-miterlimit:4;stroke-dasharray:none;stroke-opacity:1" />
    <circle
       style="fill:none;fill-opacity:0.5;stroke:#ff0000;stroke-width:0.1;stroke-linecap:round;stroke-linejoin:round;stroke-miterlimit:4;stroke-dasharray:none;stroke-opacity:1"
       id="circle30774"
       cx="48.071182"
       cy="85.469963"
       r="5.0500002" />
    <circle
       r="5.0500002"
       cy="85.469963"
       cx="98.071182"
       id="circle30776"
       style="fill:none;fill-opacity:0.5;stroke:#ff0000;stroke-width:0.1;stroke-linecap:round;stroke-linejoin:round;stroke-miterlimit:4;stroke-dasharray:none;stroke-opacity:1" />
    <circle
       style="fill:none;fill-opacity:0.5;stroke:#ff0000;stroke-width:0.1;stroke-linecap:round;stroke-linejoin:round;stroke-miterlimit:4;stroke-dasharray:none;stroke-opacity:1"
       id="circle30778"
       cx="148.07118"
       cy="85.469963"
       r="5.0500002" />
    <circle
       r="5.0500002"
       cy="85.469963"
       cx="198.07118"
       id="circle30780"
       style="fill:none;fill-opacity:0.5;stroke:#ff0000;stroke-width:0.1;stroke-linecap:round;stroke-linejoin:round;stroke-miterlimit:4;stroke-dasharray:none;stroke-opacity:1" />
    <path
       sodipodi:nodetypes="cccccccccccccsscsccccccccccccccccccc"
       inkscape:connector-curvature="0"
       id="rect18758-9-0"
       d="m 232.37184,233.26973 v -10.79986 h 3.19982 v -2.49992 h -4 c -3.00045,-0.49998 -3.00045,-6.49999 0,-7 h 4 v -2.49997 h -3.19982 v -3.80024 h 3.19982 v -2.1998 l -0.99999,-0.99999 H 87.571569 c -1.99999,0 -2.99974,-2.99982 -4.99975,-2.99982 h -19.0004 c -1.97572,0.003 -3.00026,2.99982 -5.00028,2.99982 H -88.428912 l -1,0.99999 v 2.1998 h 3.20032 v 3.80024 h -3.19979 l -4.29e-4,2.49997 h 3.999999 c 3.000011,0.50001 3.000011,6.50002 0,7 h -4 l 4.31e-4,2.49992 h 3.199789 v 10.79986 z M 65.571299,203.46995 h 14.9996 v 3.10007 h -14.9996 z"
       style="display:inline;fill:none;fill-opacity:0.5;stroke:#ff0000;stroke-width:0.09999999;stroke-linecap:round;stroke-linejoin:round;stroke-miterlimit:4;stroke-dasharray:none;stroke-opacity:1" />
    <path
       sodipodi:nodetypes="ccccccccccccccccccccccccccccccccccccccccc"
       style="fill:none;stroke:#ff0000;stroke-width:0.1;stroke-miterlimit:4;stroke-dasharray:none"
       d="m -89.42886,123.67011 v 6.80011 h 3.20032 V 142.47 h -3.20032 v 12.00031 h 3.20032 v 5.99963 h -3.20032 v 12.00029 h 3.16518 c 1.00715,-0.65197 2.15958,-0.99771 3.33468,-1.00045 3.58983,8e-5 6.49991,3.13412 6.49986,7.00009 4e-5,3.86597 -2.91003,7 -6.49986,7.00008 -1.17435,-0.003 -2.32601,-0.34852 -3.33261,-0.99992 h -3.16725 v 6.80009 H 65.57098 l 0.99994,1.10175 h 13.00024 l 0.99994,-1.10175 h 154.99984 v -6.84507 h -3.09285 c -1.02394,0.68128 -2.20341,1.04302 -3.40701,1.0449 -3.58983,-8e-5 -6.4999,-3.13411 -6.49986,-7.00008 -5e-5,-3.86597 2.91003,-7.00001 6.49986,-7.00009 1.17457,0.003 2.32642,0.34878 3.33311,1.00045 h 3.16675 v -12.00029 h -3.19982 v -5.99963 h 3.19982 V 142.47 h -3.19982 v -11.99978 h 3.19982 v -6.80011 H 80.5711 65.57098 Z"
       id="path18659-7-2"
       inkscape:connector-curvature="0" />
    <circle
       style="fill:none;fill-opacity:0.5;stroke:#ff0000;stroke-width:0.1;stroke-linecap:round;stroke-linejoin:round;stroke-miterlimit:4;stroke-dasharray:none;stroke-opacity:1"
       id="circle12834"
       cx="51.928963"
       cy="-157.46992"
       r="5.1000004"
       transform="scale(-1)" />
    <circle
       r="5.1000004"
       cy="-157.46992"
       cx="1.928961"
       id="circle30782"
       style="fill:none;fill-opacity:0.5;stroke:#ff0000;stroke-width:0.1;stroke-linecap:round;stroke-linejoin:round;stroke-miterlimit:4;stroke-dasharray:none;stroke-opacity:1"
       transform="scale(-1)" />
    <circle
       r="5.1000004"
       cy="-157.46992"
       cx="-48.071037"
       id="circle30784"
       style="fill:none;fill-opacity:0.5;stroke:#ff0000;stroke-width:0.1;stroke-linecap:round;stroke-linejoin:round;stroke-miterlimit:4;stroke-dasharray:none;stroke-opacity:1"
       transform="scale(-1)" />
    <circle
       style="fill:none;fill-opacity:0.5;stroke:#ff0000;stroke-width:0.1;stroke-linecap:round;stroke-linejoin:round;stroke-miterlimit:4;stroke-dasharray:none;stroke-opacity:1"
       id="circle30786"
       cx="-98.071037"
       cy="-157.46992"
       r="5.1000004"
       transform="scale(-1)" />
    <circle
       r="5.1000004"
       cy="-157.46992"
       cx="-148.07104"
       id="circle30788"
       style="fill:none;fill-opacity:0.5;stroke:#ff0000;stroke-width:0.1;stroke-linecap:round;stroke-linejoin:round;stroke-miterlimit:4;stroke-dasharray:none;stroke-opacity:1"
       transform="scale(-1)" />
    <circle
       style="fill:none;fill-opacity:0.5;stroke:#ff0000;stroke-width:0.1;stroke-linecap:round;stroke-linejoin:round;stroke-miterlimit:4;stroke-dasharray:none;stroke-opacity:1"
       id="circle30790"
       cx="-198.07104"
       cy="-157.46992"
       r="5.1000004"
       transform="scale(-1)" />
    <circle
       r="1"
       cy="-181.51709"
       cx="-183.05499"
       id="path17655-9-2"
       style="fill:none;fill-opacity:0.5;stroke:#ff0000;stroke-width:0.1;stroke-linecap:round;stroke-linejoin:round;stroke-miterlimit:4;stroke-dasharray:none;stroke-opacity:1"
       transform="scale(-1)" />
    <circle
       style="fill:none;fill-opacity:0.5;stroke:#ff0000;stroke-width:0.1;stroke-linecap:round;stroke-linejoin:round;stroke-miterlimit:4;stroke-dasharray:none;stroke-opacity:1"
       id="circle17657-6-2"
       cx="-173.05499"
       cy="-181.51709"
       r="1"
       transform="scale(-1)" />
    <circle
       r="1"
       cy="-181.51709"
       cx="-163.05499"
       id="circle17659-4-6"
       style="fill:none;fill-opacity:0.5;stroke:#ff0000;stroke-width:0.1;stroke-linecap:round;stroke-linejoin:round;stroke-miterlimit:4;stroke-dasharray:none;stroke-opacity:1"
       transform="scale(-1)" />
    <circle
       r="1"
       cy="-181.51709"
       cx="-83.054985"
       id="circle17667-3-1"
       style="fill:none;fill-opacity:0.5;stroke:#ff0000;stroke-width:0.1;stroke-linecap:round;stroke-linejoin:round;stroke-miterlimit:4;stroke-dasharray:none;stroke-opacity:1"
       transform="scale(-1)" />
    <circle
       style="fill:none;fill-opacity:0.5;stroke:#ff0000;stroke-width:0.1;stroke-linecap:round;stroke-linejoin:round;stroke-miterlimit:4;stroke-dasharray:none;stroke-opacity:1"
       id="circle17669-3-0"
       cx="-73.054985"
       cy="-181.51709"
       r="1"
       transform="scale(-1)" />
    <circle
       r="1"
       cy="-181.51709"
       cx="-63.054985"
       id="circle17671-3-6"
       style="fill:none;fill-opacity:0.5;stroke:#ff0000;stroke-width:0.1;stroke-linecap:round;stroke-linejoin:round;stroke-miterlimit:4;stroke-dasharray:none;stroke-opacity:1"
       transform="scale(-1)" />
    <circle
       style="fill:none;fill-opacity:0.5;stroke:#ff0000;stroke-width:0.1;stroke-linecap:round;stroke-linejoin:round;stroke-miterlimit:4;stroke-dasharray:none;stroke-opacity:1"
       id="circle17673-8-1"
       cx="-33.054985"
       cy="-181.51709"
       r="1"
       transform="scale(-1)" />
    <circle
       r="1"
       cy="-181.51709"
       cx="-23.054987"
       id="circle17675-6-5"
       style="fill:none;fill-opacity:0.5;stroke:#ff0000;stroke-width:0.1;stroke-linecap:round;stroke-linejoin:round;stroke-miterlimit:4;stroke-dasharray:none;stroke-opacity:1"
       transform="scale(-1)" />
    <circle
       style="fill:none;fill-opacity:0.5;stroke:#ff0000;stroke-width:0.1;stroke-linecap:round;stroke-linejoin:round;stroke-miterlimit:4;stroke-dasharray:none;stroke-opacity:1"
       id="circle17677-0-9"
       cx="-13.054987"
       cy="-181.51709"
       r="1"
       transform="scale(-1)" />
    <circle
       r="1"
       cy="-181.51709"
       cx="-13.054987"
       id="circle17679-4-4"
       style="fill:none;fill-opacity:0.5;stroke:#ff0000;stroke-width:0.1;stroke-linecap:round;stroke-linejoin:round;stroke-miterlimit:4;stroke-dasharray:none;stroke-opacity:1"
       transform="scale(-1)" />
    <circle
       style="fill:none;fill-opacity:0.5;stroke:#ff0000;stroke-width:0.1;stroke-linecap:round;stroke-linejoin:round;stroke-miterlimit:4;stroke-dasharray:none;stroke-opacity:1"
       id="circle17681-8-9"
       cx="16.945013"
       cy="-181.51709"
       r="1"
       transform="scale(-1)" />
    <circle
       r="1"
       cy="-181.51709"
       cx="26.945013"
       id="circle17683-8-0"
       style="fill:none;fill-opacity:0.5;stroke:#ff0000;stroke-width:0.1;stroke-linecap:round;stroke-linejoin:round;stroke-miterlimit:4;stroke-dasharray:none;stroke-opacity:1"
       transform="scale(-1)" />
    <circle
       style="fill:none;fill-opacity:0.5;stroke:#ff0000;stroke-width:0.1;stroke-linecap:round;stroke-linejoin:round;stroke-miterlimit:4;stroke-dasharray:none;stroke-opacity:1"
       id="circle17685-8-9"
       cx="36.945015"
       cy="-181.51709"
       r="1"
       transform="scale(-1)" />
    <circle
       r="1"
       cy="-181.51709"
       cx="-113.05499"
       id="circle17665-9-1"
       style="fill:none;fill-opacity:0.5;stroke:#ff0000;stroke-width:0.1;stroke-linecap:round;stroke-linejoin:round;stroke-miterlimit:4;stroke-dasharray:none;stroke-opacity:1"
       transform="scale(-1)" />
    <circle
       r="1"
       cy="-181.51709"
       cx="-133.05499"
       id="circle17661-7-7"
       style="fill:none;fill-opacity:0.5;stroke:#ff0000;stroke-width:0.1;stroke-linecap:round;stroke-linejoin:round;stroke-miterlimit:4;stroke-dasharray:none;stroke-opacity:1"
       transform="scale(-1)" />
    <circle
       style="fill:none;fill-opacity:0.5;stroke:#ff0000;stroke-width:0.1;stroke-linecap:round;stroke-linejoin:round;stroke-miterlimit:4;stroke-dasharray:none;stroke-opacity:1"
       id="circle17663-7-7"
       cx="-123.05499"
       cy="-181.51709"
       r="1"
       transform="scale(-1)" />
    <path
       sodipodi:nodetypes="ssscccccccsscssscccccccccccsssccs"
       inkscape:connector-curvature="0"
       id="path5090"
       d="m 191.57124,176.27068 c 1.64469,-3e-5 2.99982,-1.35511 2.99982,-2.99981 v -2.97657 c 0,-0.85045 -0.46207,-1.54659 -0.98392,-2.00557 -0.52184,-0.45899 -0.95559,-0.69492 -1.49345,-0.99581 -0.15308,-0.10655 -0.29911,-0.21534 -0.44183,-0.32554 -3.15496,-2.13151 -5.04607,-5.6901 -5.04724,-9.49762 0.005,-3.79015 1.8818,-7.33319 5.0152,-9.46557 0.005,-0.0119 0.0112,-0.0228 0.0165,-0.0346 0.67014,-0.46968 1.44697,-0.82531 1.95078,-1.26296 0.52185,-0.459 0.98392,-1.15511 0.98392,-2.00557 v -9.43043 c 0,-1.59465 -1.29013,-2.99982 -2.99982,-2.9998 h -36.9998 c -1.6447,0 -3.00034,1.35512 -3.00034,2.9998 v 9.50021 c 0,0.85045 0.46257,1.54656 0.98444,2.00556 0.28269,0.24863 0.56371,0.40323 0.84284,0.5488 0.0893,0.0459 0.17804,0.0929 0.26613,0.14108 0.0342,0.018 0.0692,0.0362 0.10336,0.0548 0.001,0.004 0.003,0.008 0.004,0.0114 3.56241,2.04132 5.76148,5.83158 5.76554,9.93738 -0.006,3.69094 -1.78755,7.15354 -4.78782,9.30331 -0.0137,0.0198 -0.0261,0.0373 -0.0398,0.0574 -0.13455,0.0951 -0.27814,0.18571 -0.42426,0.2744 -0.0251,0.0154 -0.0502,0.0307 -0.0755,0.046 -0.59723,0.35619 -1.24223,0.6726 -1.65468,1.02683 -0.52187,0.45897 -0.98444,1.15511 -0.98444,2.00556 v 3.08767 c 0,1.59464 1.29066,2.99981 3.00034,2.99981 h 9.99991 17 z"
       style="color:#000000;font-style:normal;font-variant:normal;font-weight:normal;font-stretch:normal;font-size:medium;line-height:normal;font-family:sans-serif;font-variant-ligatures:normal;font-variant-position:normal;font-variant-caps:normal;font-variant-numeric:normal;font-variant-alternates:normal;font-feature-settings:normal;text-indent:0;text-align:start;text-decoration:none;text-decoration-line:none;text-decoration-style:solid;text-decoration-color:#000000;letter-spacing:normal;word-spacing:normal;text-transform:none;writing-mode:lr-tb;direction:ltr;text-orientation:mixed;dominant-baseline:auto;baseline-shift:baseline;text-anchor:start;white-space:normal;shape-padding:0;clip-rule:nonzero;display:inline;overflow:visible;visibility:visible;opacity:1;isolation:auto;mix-blend-mode:normal;color-interpolation:sRGB;color-interpolation-filters:linearRGB;solid-color:#000000;solid-opacity:1;vector-effect:none;fill:none;fill-opacity:1;fill-rule:nonzero;stroke:#ff0000;stroke-width:0.1;stroke-linecap:round;stroke-linejoin:round;stroke-miterlimit:4;stroke-dasharray:none;stroke-dashoffset:0;stroke-opacity:1;color-rendering:auto;image-rendering:auto;shape-rendering:auto;text-rendering:auto;enable-background:accumulate" />
    <path
       sodipodi:nodetypes="sccsssssscccccccccccssss"
       inkscape:connector-curvature="0"
       id="path5092"
       d="m 216.57127,176.27068 c 1.6447,1e-5 2.59997,-1.50759 2.99981,-2.99981 0.72507,-2.70598 3.7171,-4.74449 5.01572,-5.49424 0.52185,-0.459 0.98392,-1.15511 0.98392,-2.00556 v -30.50048 c 0,-1.59465 -1.29013,-2.9998 -2.99982,-2.9998 h -17.99942 c -1.6447,0 -3.00033,1.35512 -3.00033,2.9998 v 9.50021 c 0,0.85045 0.46257,1.54656 0.98444,2.00556 0.2047,0.18005 0.42342,0.32153 0.64647,0.45371 0.34364,0.17219 0.67841,0.36158 1.00304,0.5674 0.0164,0.0101 0.0332,0.0183 0.0496,0.0284 0.57726,0.33327 1.04983,0.698 1.43919,1.09398 2.44089,2.17212 3.83917,5.28243 3.84369,8.54987 -0.004,3.18754 -1.33423,6.22967 -3.67213,8.3964 -0.38606,0.43693 -0.86915,0.83071 -1.47639,1.18131 -0.26568,0.16634 -0.50485,0.29713 -0.73381,0.42169 -0.135,0.08 -0.27163,0.15716 -0.40979,0.23151 -0.24319,0.14068 -0.47301,0.2862 -0.68988,0.47697 -0.52187,0.45897 -0.98444,1.15511 -0.98444,2.00556 v 3.08767 c 0,1.59464 1.29065,2.9998 3.00033,2.99981 z"
       style="color:#000000;font-style:normal;font-variant:normal;font-weight:normal;font-stretch:normal;font-size:medium;line-height:normal;font-family:sans-serif;font-variant-ligatures:normal;font-variant-position:normal;font-variant-caps:normal;font-variant-numeric:normal;font-variant-alternates:normal;font-feature-settings:normal;text-indent:0;text-align:start;text-decoration:none;text-decoration-line:none;text-decoration-style:solid;text-decoration-color:#000000;letter-spacing:normal;word-spacing:normal;text-transform:none;writing-mode:lr-tb;direction:ltr;text-orientation:mixed;dominant-baseline:auto;baseline-shift:baseline;text-anchor:start;white-space:normal;shape-padding:0;clip-rule:nonzero;display:inline;overflow:visible;visibility:visible;opacity:1;isolation:auto;mix-blend-mode:normal;color-interpolation:sRGB;color-interpolation-filters:linearRGB;solid-color:#000000;solid-opacity:1;vector-effect:none;fill:none;fill-opacity:1;fill-rule:nonzero;stroke:#ff0000;stroke-width:0.1;stroke-linecap:round;stroke-linejoin:round;stroke-miterlimit:4;stroke-dasharray:none;stroke-dashoffset:0;stroke-opacity:1;color-rendering:auto;image-rendering:auto;shape-rendering:auto;text-rendering:auto;enable-background:accumulate" />
    <path
       sodipodi:nodetypes="cccsssssscccccccccccsscc"
       inkscape:connector-curvature="0"
       style="color:#000000;font-style:normal;font-variant:normal;font-weight:normal;font-stretch:normal;font-size:medium;line-height:normal;font-family:sans-serif;font-variant-ligatures:normal;font-variant-position:normal;font-variant-caps:normal;font-variant-numeric:normal;font-variant-alternates:normal;font-feature-settings:normal;text-indent:0;text-align:start;text-decoration:none;text-decoration-line:none;text-decoration-style:solid;text-decoration-color:#000000;letter-spacing:normal;word-spacing:normal;text-transform:none;writing-mode:lr-tb;direction:ltr;text-orientation:mixed;dominant-baseline:auto;baseline-shift:baseline;text-anchor:start;white-space:normal;shape-padding:0;clip-rule:nonzero;display:inline;overflow:visible;visibility:visible;opacity:1;isolation:auto;mix-blend-mode:normal;color-interpolation:sRGB;color-interpolation-filters:linearRGB;solid-color:#000000;solid-opacity:1;vector-effect:none;fill:none;fill-opacity:1;fill-rule:nonzero;stroke:#ff0000;stroke-width:0.1;stroke-linecap:round;stroke-linejoin:round;stroke-miterlimit:4;stroke-dasharray:none;stroke-dashoffset:0;stroke-opacity:1;color-rendering:auto;image-rendering:auto;shape-rendering:auto;text-rendering:auto;enable-background:accumulate"
       d="m -70.42941,176.27068 c -1.6447,0 -2.59997,-1.50759 -2.99981,-2.99981 -0.72507,-2.70598 -3.7171,-4.74449 -5.01572,-5.49424 -0.52185,-0.459 -0.98392,-1.15511 -0.98392,-2.00556 v -30.50048 c 0,-1.59465 1.29013,-2.9998 2.99982,-2.9998 h 17.99942 c 1.6447,0 3.00033,1.35512 3.00033,2.9998 v 9.50021 c 0,0.85045 -0.46257,1.54656 -0.98444,2.00556 -0.2047,0.18005 -0.42342,0.32153 -0.64647,0.45371 -0.34365,0.1722 -0.67841,0.36157 -1.00304,0.5674 -0.0164,0.01 -0.0332,0.0184 -0.0496,0.0284 -0.57726,0.33327 -1.04983,0.698 -1.43919,1.09398 -2.44089,2.17213 -3.83917,5.28244 -3.84369,8.54987 0.004,3.18755 1.33423,6.22968 3.67213,8.3964 0.38606,0.43693 0.86915,0.83071 1.47639,1.18131 0.26568,0.16634 0.50485,0.29713 0.73381,0.42169 0.135,0.08 0.27162,0.15715 0.40979,0.23151 0.24319,0.14068 0.47301,0.2862 0.68988,0.47697 0.52187,0.45897 0.98444,1.15511 0.98444,2.00556 v 3.08767 c 0,1.59464 -1.29065,2.99981 -3.00033,2.99981 z"
       id="path5122" />
    <path
       sodipodi:nodetypes="ssscccccccsscssscccccccccccsssccs"
       inkscape:connector-curvature="0"
       style="color:#000000;font-style:normal;font-variant:normal;font-weight:normal;font-stretch:normal;font-size:medium;line-height:normal;font-family:sans-serif;font-variant-ligatures:normal;font-variant-position:normal;font-variant-caps:normal;font-variant-numeric:normal;font-variant-alternates:normal;font-feature-settings:normal;text-indent:0;text-align:start;text-decoration:none;text-decoration-line:none;text-decoration-style:solid;text-decoration-color:#000000;letter-spacing:normal;word-spacing:normal;text-transform:none;writing-mode:lr-tb;direction:ltr;text-orientation:mixed;dominant-baseline:auto;baseline-shift:baseline;text-anchor:start;white-space:normal;shape-padding:0;clip-rule:nonzero;display:inline;overflow:visible;visibility:visible;opacity:1;isolation:auto;mix-blend-mode:normal;color-interpolation:sRGB;color-interpolation-filters:linearRGB;solid-color:#000000;solid-opacity:1;vector-effect:none;fill:none;fill-opacity:1;fill-rule:nonzero;stroke:#ff0000;stroke-width:0.1;stroke-linecap:round;stroke-linejoin:round;stroke-miterlimit:4;stroke-dasharray:none;stroke-dashoffset:0;stroke-opacity:1;color-rendering:auto;image-rendering:auto;shape-rendering:auto;text-rendering:auto;enable-background:accumulate"
       d="m 141.57124,176.27068 c 1.64469,0 2.99982,-1.35511 2.99982,-2.99981 v -2.97657 c 0,-0.85045 -0.46207,-1.54659 -0.98392,-2.00557 -0.52184,-0.45899 -0.95559,-0.69492 -1.49345,-0.99581 -0.15308,-0.10655 -0.29911,-0.21534 -0.44183,-0.32554 -3.15496,-2.13152 -5.04607,-5.69011 -5.04724,-9.49762 0.005,-3.79015 1.8818,-7.33318 5.0152,-9.46557 0.005,-0.0118 0.0112,-0.0228 0.0165,-0.0346 0.67014,-0.46968 1.44697,-0.82531 1.95078,-1.26296 0.52185,-0.459 0.98392,-1.15511 0.98392,-2.00557 v -9.43043 c 0,-1.59465 -1.29013,-2.99982 -2.99982,-2.9998 h -36.9998 c -1.6447,0 -3.00034,1.35512 -3.00034,2.9998 v 9.50021 c 0,0.85045 0.46257,1.54656 0.98444,2.00556 0.28269,0.24863 0.56371,0.40323 0.84284,0.5488 0.0893,0.0459 0.17804,0.0929 0.26613,0.14108 0.0342,0.018 0.0693,0.0362 0.10336,0.0548 10e-4,0.004 0.003,0.008 0.004,0.0114 3.56241,2.0413 5.76147,5.83157 5.76554,9.93738 -0.006,3.69095 -1.78755,7.15354 -4.78782,9.30331 -0.0137,0.0199 -0.0261,0.0373 -0.0398,0.0574 -0.13455,0.0951 -0.27814,0.18571 -0.42427,0.2744 -0.0251,0.0154 -0.0502,0.0308 -0.0754,0.046 -0.59723,0.35619 -1.24224,0.6726 -1.65468,1.02683 -0.52173,0.45881 -0.9843,1.15495 -0.9843,2.0054 v 3.08767 c 0,1.59464 1.29066,2.99981 3.00034,2.99981 h 9.9999 17 z"
       id="path5124" />
    <path
       sodipodi:nodetypes="ssscccccccsscssscccccccccccsssccs"
       id="path5126"
       d="m 91.57124,176.27068 c 1.64469,0 2.99982,-1.35511 2.99982,-2.99981 v -2.97657 c 0,-0.85045 -0.46207,-1.54659 -0.98392,-2.00557 -0.52184,-0.45899 -0.95559,-0.69492 -1.49345,-0.99581 -0.15308,-0.10655 -0.29911,-0.21534 -0.44183,-0.32554 -3.15496,-2.13152 -5.04607,-5.69011 -5.04724,-9.49762 0.005,-3.79015 1.8818,-7.33318 5.0152,-9.46557 0.005,-0.0118 0.0112,-0.0228 0.0165,-0.0346 0.67014,-0.46968 1.44697,-0.82531 1.95078,-1.26296 0.52185,-0.459 0.98392,-1.15511 0.98392,-2.00557 v -9.43043 c 0,-1.59465 -1.29013,-2.99982 -2.99982,-2.9998 H 54.5714 c -1.6447,0 -3.00034,1.35512 -3.00034,2.9998 v 9.50021 c 0,0.85045 0.46257,1.54656 0.98444,2.00556 0.28269,0.24863 0.56371,0.40323 0.84284,0.5488 0.0893,0.0459 0.17804,0.0929 0.26613,0.14108 0.0342,0.018 0.0693,0.0362 0.10336,0.0548 0.001,0.004 0.003,0.008 0.004,0.0114 3.56241,2.0413 5.76147,5.83157 5.76554,9.93738 -0.006,3.69095 -1.78755,7.15354 -4.78782,9.30331 -0.0137,0.0199 -0.0261,0.0373 -0.0398,0.0574 -0.13455,0.0951 -0.27814,0.18571 -0.42427,0.2744 -0.0251,0.0154 -0.0502,0.0308 -0.0754,0.046 -0.59723,0.35619 -1.24224,0.6726 -1.65468,1.02683 -0.52173,0.45881 -0.9843,1.15495 -0.9843,2.0054 v 3.08767 c 0,1.59464 1.29066,2.99981 3.00034,2.99981 h 9.9999 17 z"
       style="color:#000000;font-style:normal;font-variant:normal;font-weight:normal;font-stretch:normal;font-size:medium;line-height:normal;font-family:sans-serif;font-variant-ligatures:normal;font-variant-position:normal;font-variant-caps:normal;font-variant-numeric:normal;font-variant-alternates:normal;font-feature-settings:normal;text-indent:0;text-align:start;text-decoration:none;text-decoration-line:none;text-decoration-style:solid;text-decoration-color:#000000;letter-spacing:normal;word-spacing:normal;text-transform:none;writing-mode:lr-tb;direction:ltr;text-orientation:mixed;dominant-baseline:auto;baseline-shift:baseline;text-anchor:start;white-space:normal;shape-padding:0;clip-rule:nonzero;display:inline;overflow:visible;visibility:visible;opacity:1;isolation:auto;mix-blend-mode:normal;color-interpolation:sRGB;color-interpolation-filters:linearRGB;solid-color:#000000;solid-opacity:1;vector-effect:none;fill:none;fill-opacity:1;fill-rule:nonzero;stroke:#ff0000;stroke-width:0.1;stroke-linecap:round;stroke-linejoin:round;stroke-miterlimit:4;stroke-dasharray:none;stroke-dashoffset:0;stroke-opacity:1;color-rendering:auto;image-rendering:auto;shape-rendering:auto;text-rendering:auto;enable-background:accumulate"
       inkscape:connector-curvature="0" />
    <path
       sodipodi:nodetypes="ssscccccccsscssscccccccccccsssccs"
       inkscape:connector-curvature="0"
       style="color:#000000;font-style:normal;font-variant:normal;font-weight:normal;font-stretch:normal;font-size:medium;line-height:normal;font-family:sans-serif;font-variant-ligatures:normal;font-variant-position:normal;font-variant-caps:normal;font-variant-numeric:normal;font-variant-alternates:normal;font-feature-settings:normal;text-indent:0;text-align:start;text-decoration:none;text-decoration-line:none;text-decoration-style:solid;text-decoration-color:#000000;letter-spacing:normal;word-spacing:normal;text-transform:none;writing-mode:lr-tb;direction:ltr;text-orientation:mixed;dominant-baseline:auto;baseline-shift:baseline;text-anchor:start;white-space:normal;shape-padding:0;clip-rule:nonzero;display:inline;overflow:visible;visibility:visible;opacity:1;isolation:auto;mix-blend-mode:normal;color-interpolation:sRGB;color-interpolation-filters:linearRGB;solid-color:#000000;solid-opacity:1;vector-effect:none;fill:none;fill-opacity:1;fill-rule:nonzero;stroke:#ff0000;stroke-width:0.1;stroke-linecap:round;stroke-linejoin:round;stroke-miterlimit:4;stroke-dasharray:none;stroke-dashoffset:0;stroke-opacity:1;color-rendering:auto;image-rendering:auto;shape-rendering:auto;text-rendering:auto;enable-background:accumulate"
       d="m 41.57124,176.27068 c 1.64469,0 2.99982,-1.35511 2.99982,-2.99981 v -2.97657 c 0,-0.85045 -0.46207,-1.54659 -0.98392,-2.00557 -0.52184,-0.45899 -0.95559,-0.69492 -1.49345,-0.99581 -0.15308,-0.10655 -0.29911,-0.21534 -0.44183,-0.32554 -3.15496,-2.13152 -5.04607,-5.69011 -5.04724,-9.49762 0.005,-3.79015 1.8818,-7.33318 5.0152,-9.46557 0.005,-0.0118 0.0112,-0.0228 0.0165,-0.0346 0.67014,-0.46968 1.44697,-0.82531 1.95078,-1.26296 0.52185,-0.459 0.98392,-1.15511 0.98392,-2.00557 v -9.43043 c 0,-1.59465 -1.29013,-2.99982 -2.99982,-2.9998 H 4.5714 c -1.6447,0 -3.00034,1.35512 -3.00034,2.9998 v 9.50021 c 0,0.85045 0.46257,1.54656 0.98444,2.00556 0.28269,0.24863 0.56371,0.40323 0.84284,0.5488 0.0893,0.0459 0.17804,0.0929 0.26613,0.14108 0.0342,0.018 0.0693,0.0362 0.10336,0.0548 10e-4,0.004 0.003,0.008 0.004,0.0114 3.56241,2.0413 5.76147,5.83157 5.76554,9.93738 -0.006,3.69095 -1.78755,7.15354 -4.78782,9.30331 -0.0137,0.0199 -0.0261,0.0373 -0.0398,0.0574 -0.13455,0.0951 -0.27814,0.18571 -0.42427,0.2744 -0.0251,0.0154 -0.0502,0.0308 -0.0754,0.046 -0.59723,0.35619 -1.24224,0.6726 -1.65468,1.02683 -0.52173,0.45881 -0.9843,1.15495 -0.9843,2.0054 v 3.08767 c 0,1.59464 1.29066,2.99981 3.00034,2.99981 h 9.9999 17 z"
       id="path5128" />
    <path
       sodipodi:nodetypes="ssscccccccsscssscccccccccccsssccs"
       id="path5130"
       d="m -8.42876,176.27068 c 1.64469,0 2.99982,-1.35511 2.99982,-2.99981 v -2.97657 c 0,-0.85045 -0.46207,-1.54659 -0.98392,-2.00557 -0.52184,-0.45899 -0.95559,-0.69492 -1.49345,-0.99581 -0.15308,-0.10655 -0.29911,-0.21534 -0.44183,-0.32554 -3.15496,-2.13152 -5.04607,-5.69011 -5.04724,-9.49762 0.005,-3.79015 1.8818,-7.33318 5.0152,-9.46557 0.005,-0.0118 0.0112,-0.0228 0.0165,-0.0346 0.67014,-0.46968 1.44697,-0.82531 1.95078,-1.26296 0.52185,-0.459 0.98392,-1.15511 0.98392,-2.00557 v -9.43043 c 0,-1.59465 -1.29013,-2.99982 -2.99982,-2.9998 h -36.9998 c -1.6447,0 -3.00034,1.35512 -3.00034,2.9998 v 9.50021 c 0,0.85045 0.46257,1.54656 0.98444,2.00556 0.28269,0.24863 0.56371,0.40323 0.84284,0.5488 0.0893,0.0459 0.17804,0.0929 0.26613,0.14108 0.0342,0.018 0.0693,0.0362 0.10336,0.0548 0.001,0.004 0.003,0.008 0.004,0.0114 3.56241,2.0413 5.76147,5.83157 5.76554,9.93738 -0.006,3.69095 -1.78755,7.15354 -4.78782,9.30331 -0.0137,0.0199 -0.0261,0.0373 -0.0398,0.0574 -0.13455,0.0951 -0.27814,0.18571 -0.42427,0.2744 -0.0251,0.0154 -0.0502,0.0308 -0.0754,0.046 -0.59723,0.35619 -1.24224,0.6726 -1.65468,1.02683 -0.52173,0.45881 -0.9843,1.15495 -0.9843,2.0054 v 3.08767 c 0,1.59464 1.29066,2.99981 3.00034,2.99981 h 9.9999 17 z"
       style="color:#000000;font-style:normal;font-variant:normal;font-weight:normal;font-stretch:normal;font-size:medium;line-height:normal;font-family:sans-serif;font-variant-ligatures:normal;font-variant-position:normal;font-variant-caps:normal;font-variant-numeric:normal;font-variant-alternates:normal;font-feature-settings:normal;text-indent:0;text-align:start;text-decoration:none;text-decoration-line:none;text-decoration-style:solid;text-decoration-color:#000000;letter-spacing:normal;word-spacing:normal;text-transform:none;writing-mode:lr-tb;direction:ltr;text-orientation:mixed;dominant-baseline:auto;baseline-shift:baseline;text-anchor:start;white-space:normal;shape-padding:0;clip-rule:nonzero;display:inline;overflow:visible;visibility:visible;opacity:1;isolation:auto;mix-blend-mode:normal;color-interpolation:sRGB;color-interpolation-filters:linearRGB;solid-color:#000000;solid-opacity:1;vector-effect:none;fill:none;fill-opacity:1;fill-rule:nonzero;stroke:#ff0000;stroke-width:0.1;stroke-linecap:round;stroke-linejoin:round;stroke-miterlimit:4;stroke-dasharray:none;stroke-dashoffset:0;stroke-opacity:1;color-rendering:auto;image-rendering:auto;shape-rendering:auto;text-rendering:auto;enable-background:accumulate"
       inkscape:connector-curvature="0" />
    <path
       sodipodi:nodetypes="ccccccccccccccccccc"
       inkscape:connector-curvature="0"
       id="path21344-5"
       d="m -86.229092,273.06973 v -10.8 h -3.19982 v -12.00002 h 3.19982 l 1.8e-4,-3.8 h -3.2 v -2.19996 l 1,-1.00002 H 234.57109 l 0.99999,1.00002 v 2.19996 h -3.20001 l 2.2e-4,3.8 h 3.19979 v 12.00002 h -3.19979 v 10.8 z"
       style="display:inline;fill:none;fill-opacity:0.5;stroke:#ff0000;stroke-width:0.09999999;stroke-linecap:round;stroke-linejoin:round;stroke-miterlimit:4;stroke-dasharray:none;stroke-opacity:1" />
    <path
       sodipodi:nodetypes="ccccccccccccccccccccccccccccccccccccc"
       inkscape:connector-curvature="0"
       id="path134223"
       d="m 11.571291,30.26972 -0.0904,3.20085 H 3.5712406 V 30.26975 H -6.4288 V 19.4699 h 3.20031 v -2.09994 h 27.799849 v -7.8 H -3.22849 V 7.46999 H -6.4288 V 3.66978 H 3.5716296 V 0.46996 H 15.5714 V 3.66978 H 27.571179 V 0.46996 h 6.00016 v 3.19982 h 12.00029 V 0.46996 h 11.9998 v 3.19982 h 9.9999 v 3.80021 h -3.19981 V 19.4699 h 3.19981 l -4e-5,10.79985 h -8.00004 v 3.20031 h -8.00003 v -3.20031 z"
       style="display:inline;fill:none;stroke:#ff0000;stroke-width:0.1;stroke-miterlimit:4;stroke-dasharray:none" />
    <path
       inkscape:connector-curvature="0"
       id="path25425"
       d="m -78.010087,-36.522618 c -1.048014,0.05484 -1.853161,0.948796 -1.798183,1.996808 0.05486,1.048049 0.948806,1.853163 1.996833,1.798158 1.047995,-0.05485 1.853166,-0.948774 1.798161,-1.996802 -0.04458,-0.851503 -0.642973,-1.542918 -1.428034,-1.742588 l -8e-6,2.9e-5 v -2e-6 c -0.181443,-0.04551 -0.372289,-0.0659 -0.568769,-0.0556 z"
       style="display:inline;opacity:1;fill:none;fill-opacity:0.12549002;fill-rule:evenodd;stroke:#ff0000;stroke-width:0.1;stroke-linecap:round;stroke-miterlimit:4;stroke-dasharray:none;stroke-dashoffset:0;stroke-opacity:1"
       sodipodi:nodetypes="cccccccc" />
    <path
       inkscape:connector-curvature="0"
       id="path25427"
       d="m -29.713758,-23.581662 c -1.048022,0.05484 -1.853171,0.948793 -1.798164,1.99681 0.05484,1.048015 0.948796,1.853163 1.996805,1.798151 1.048052,-0.05483 1.853184,-0.948769 1.79818,-1.996795 -0.04457,-0.8515 -0.642982,-1.54292 -1.428025,-1.742588 l -8e-6,2.9e-5 0,2e-6 c -0.181443,-0.04551 -0.372287,-0.0659 -0.568788,-0.05561 z"
       style="display:inline;opacity:1;fill:none;fill-opacity:0.12549002;fill-rule:evenodd;stroke:#ff0000;stroke-width:0.1;stroke-linecap:round;stroke-miterlimit:4;stroke-dasharray:none;stroke-dashoffset:0;stroke-opacity:1"
       sodipodi:nodetypes="cccccccc" />
    <path
       inkscape:connector-curvature="0"
       id="path25429"
       d="m 18.582582,-10.64069 c -1.048014,0.05484 -1.853163,0.948798 -1.798153,1.996815 0.05484,1.048044 0.948796,1.853161 1.996802,1.798151 1.048025,-0.05484 1.853158,-0.948777 1.798162,-1.996802 -0.04458,-0.851533 -0.642972,-1.542915 -1.428033,-1.742589 l -8e-6,3e-5 v -2e-6 c -0.181444,-0.04551 -0.372272,-0.0659 -0.56877,-0.0556 z"
       style="display:inline;opacity:1;fill:none;fill-opacity:0.12549002;fill-rule:evenodd;stroke:#ff0000;stroke-width:0.1;stroke-linecap:round;stroke-miterlimit:4;stroke-dasharray:none;stroke-dashoffset:0;stroke-opacity:1"
       sodipodi:nodetypes="cccccccc" />
    <path
       sodipodi:nodetypes="ccccccccccccsccccccccccccsccccsccccccccsccccccccc"
       inkscape:connector-curvature="0"
       id="path25443"
       d="m 158.54899,-10.905228 -1.08484,4.048672 -14.0408,-1.691822 c -15.4895,-2.079847 -43.858618,-5.172012 -58.223779,-6.800879 -29.195214,-3.310491 -43.710639,3.426052 -60.14753,5.799547 -0.872299,0.178102 -1.239636,0.954048 -1.489165,1.86989 -0.467214,2.148155 -2.317874,3.808627 -4.619106,3.929285 -2.522659,0.132405 -4.706501,-1.62931 -5.171075,-4.041497 l -0.0483,-0.2993 c -0.0167,-0.127939 -0.02861,-0.257495 -0.03554,-0.388493 -0.134826,-2.631024 1.795161,-4.915259 4.411731,-5.221777 l 0.333648,-0.03524 c 20.291306,-3.194957 37.080211,-10.601692 67.70562,-7.054408 12.285535,1.423011 26.224896,3.504637 42.409406,1.016529 l -18.09207,-4.834863 -1.28939,4.812067 -14.04077,-1.691817 c -15.489494,-2.079856 -43.858542,-5.171996 -58.223805,-6.800895 -29.1952072,-3.31052 -43.7106429,3.426052 -60.147504,5.79956 -0.872289,0.178105 -1.239721,0.954024 -1.489157,1.869895 -0.467307,2.148126 -2.317903,3.808617 -4.619133,3.929277 -2.720043,0.142798 -5.046199,-1.916618 -5.24787,-4.619104 l -0.01328,-0.306101 c -0.03203,-2.547667 1.866587,-4.726972 4.417957,-5.025861 l 0.33365,-0.03523 c 20.291308,-3.194963 37.0801813,-10.601693 67.705641,-7.054408 12.31351,1.426249 26.28842,3.514121 42.520081,0.999439 l -18.221933,-4.746148 -1.270199,4.740441 -14.0408,-1.691822 c -15.489496,-2.079855 -43.8585123,-5.171991 -58.223808,-6.80089 -29.195185,-3.310482 -43.710605,3.426061 -60.147497,5.799556 -0.872298,0.178101 -1.239635,0.954047 -1.489165,1.869889 -0.467213,2.148152 -2.317894,3.808622 -4.619106,3.929285 -2.580163,0.135424 -4.805903,-1.710611 -5.200153,-4.207438 l -0.03848,-0.303238 c -0.007,-0.0724 -0.01241,-0.145283 -0.01628,-0.218617 -0.134833,-2.630996 1.795162,-4.91526 4.411731,-5.221777 l 0.333649,-0.03524 c 20.291209,-3.194983 37.080209,-10.601708 67.705618,-7.054408 13.4458395,1.557404 28.872648,3.903705 47.055611,0.184875 l 0.129466,-0.483174 2.898087,0.776539 0.388141,-1.448559 115.911008,31.058262 -0.38828,1.44907 3.86402,1.03536 -0.77592,2.895782 z"
       style="display:inline;opacity:1;fill:none;fill-opacity:0.12549002;fill-rule:evenodd;stroke:#ff0000;stroke-width:0.1;stroke-linecap:round;stroke-miterlimit:4;stroke-dasharray:none;stroke-dashoffset:0;stroke-opacity:1" />
    <path
       style="display:inline;opacity:1;fill:none;fill-opacity:0.12549002;fill-rule:evenodd;stroke:#ff0000;stroke-width:0.1;stroke-linecap:round;stroke-miterlimit:4;stroke-dasharray:none;stroke-dashoffset:0;stroke-opacity:1"
       d="m 153.79866,-12.497329 -0.001,0.0039 c -0.42645,-0.114259 -0.89237,0.06128 -1.12364,0.461815 -0.2761,0.478266 -0.11187,1.089935 0.36636,1.36611 0.0777,0.04485 0.15907,0.07368 0.24181,0.09585 l -0.001,0.0048 1.93223,0.517741 10e-4,-0.0048 c 0.42644,0.114234 0.89236,-0.0613 1.12364,-0.461825 0.27609,-0.478272 0.11186,-1.089938 -0.36636,-1.3661 -0.0777,-0.04485 -0.15906,-0.07368 -0.24181,-0.09585 l 10e-4,-0.0039 z"
       id="path25447"
       inkscape:connector-curvature="0"
       sodipodi:nodetypes="ccccccccccccc" />
    <path
       inkscape:connector-curvature="0"
       id="path25449"
       d="m 144.13949,-15.085487 -0.001,0.0039 c -0.42646,-0.114259 -0.89238,0.06128 -1.12364,0.461816 -0.27611,0.478266 -0.11187,1.089935 0.36636,1.366109 0.0777,0.04485 0.15907,0.07368 0.24181,0.09585 l -0.001,0.0048 1.93224,0.517742 0.001,-0.0048 c 0.42645,0.114235 0.89237,-0.0613 1.12365,-0.461825 0.27608,-0.478271 0.11186,-1.089938 -0.36636,-1.3661 -0.0777,-0.04485 -0.15906,-0.07368 -0.24181,-0.09585 l 0.001,-0.0039 z"
       style="display:inline;opacity:1;fill:none;fill-opacity:0.12549002;fill-rule:evenodd;stroke:#ff0000;stroke-width:0.1;stroke-linecap:round;stroke-miterlimit:4;stroke-dasharray:none;stroke-dashoffset:0;stroke-opacity:1"
       sodipodi:nodetypes="ccccccccccccc" />
    <path
       style="display:inline;opacity:1;fill:none;fill-opacity:0.12549002;fill-rule:evenodd;stroke:#ff0000;stroke-width:0.1;stroke-linecap:round;stroke-miterlimit:4;stroke-dasharray:none;stroke-dashoffset:0;stroke-opacity:1"
       d="m 134.48032,-17.673651 -0.001,0.0039 c -0.42646,-0.114259 -0.89238,0.06128 -1.12364,0.461815 -0.27611,0.478266 -0.11187,1.089935 0.36635,1.36611 0.0777,0.04485 0.15907,0.07368 0.24181,0.09585 l -0.001,0.0048 1.93224,0.517741 0.001,-0.0048 c 0.42645,0.114234 0.89236,-0.0613 1.12365,-0.461826 0.27608,-0.478271 0.11186,-1.089937 -0.36636,-1.366099 -0.0777,-0.04485 -0.15906,-0.07368 -0.24181,-0.09585 l 0.001,-0.0039 z"
       id="path25451"
       inkscape:connector-curvature="0"
       sodipodi:nodetypes="ccccccccccccc" />
    <path
       inkscape:connector-curvature="0"
       id="path25453"
       d="m 105.50232,-25.438285 -10e-4,0.0039 c -0.42646,-0.114259 -0.89238,0.06128 -1.12364,0.461815 -0.2761,0.478266 -0.11187,1.089936 0.36636,1.36611 0.0777,0.04485 0.15907,0.07368 0.24181,0.09585 l -0.001,0.0048 1.93224,0.517742 0.001,-0.0048 c 0.42644,0.114234 0.89236,-0.0613 1.12364,-0.461825 0.27609,-0.478271 0.11186,-1.089938 -0.36636,-1.3661 -0.0777,-0.04485 -0.15906,-0.07368 -0.24181,-0.09585 l 0.001,-0.0039 z"
       style="display:inline;opacity:1;fill:none;fill-opacity:0.12549002;fill-rule:evenodd;stroke:#ff0000;stroke-width:0.1;stroke-linecap:round;stroke-miterlimit:4;stroke-dasharray:none;stroke-dashoffset:0;stroke-opacity:1"
       sodipodi:nodetypes="ccccccccccccc" />
    <path
       style="display:inline;opacity:1;fill:none;fill-opacity:0.12549002;fill-rule:evenodd;stroke:#ff0000;stroke-width:0.1;stroke-linecap:round;stroke-miterlimit:4;stroke-dasharray:none;stroke-dashoffset:0;stroke-opacity:1"
       d="m 95.843156,-28.026449 -10e-4,0.0039 c -0.426459,-0.114259 -0.892379,0.06128 -1.123644,0.461816 -0.276103,0.478266 -0.111868,1.089935 0.366358,1.366109 0.07774,0.04485 0.15907,0.07368 0.241811,0.09585 l -0.0013,0.0048 1.932238,0.517742 0.0013,-0.0048 c 0.426445,0.114235 0.892362,-0.0613 1.123647,-0.461825 0.276083,-0.478271 0.111858,-1.089938 -0.366361,-1.3661 -0.07774,-0.04485 -0.159061,-0.07368 -0.241811,-0.09585 l 0.001,-0.0039 z"
       id="path25455"
       inkscape:connector-curvature="0"
       sodipodi:nodetypes="ccccccccccccc" />
    <path
       inkscape:connector-curvature="0"
       id="path25457"
       d="m 86.183994,-30.614614 -0.001,0.0039 c -0.426459,-0.114259 -0.892379,0.06128 -1.123644,0.461815 -0.276102,0.478266 -0.111868,1.089935 0.366358,1.36611 0.07774,0.04485 0.15907,0.07368 0.241812,0.09585 l -0.0013,0.0048 1.932238,0.517741 0.0013,-0.0048 c 0.426444,0.114234 0.892361,-0.0613 1.123646,-0.461825 0.276083,-0.478272 0.111858,-1.089938 -0.366361,-1.3661 -0.07774,-0.04485 -0.15906,-0.07368 -0.241811,-0.09585 l 10e-4,-0.0039 z"
       style="display:inline;opacity:1;fill:none;fill-opacity:0.12549002;fill-rule:evenodd;stroke:#ff0000;stroke-width:0.1;stroke-linecap:round;stroke-miterlimit:4;stroke-dasharray:none;stroke-dashoffset:0;stroke-opacity:1"
       sodipodi:nodetypes="ccccccccccccc" />
    <path
       style="display:inline;opacity:1;fill:none;fill-opacity:0.12549002;fill-rule:evenodd;stroke:#ff0000;stroke-width:0.1;stroke-linecap:round;stroke-miterlimit:4;stroke-dasharray:none;stroke-dashoffset:0;stroke-opacity:1"
       d="m 57.20598,-38.37926 -10e-4,0.0039 c -0.426459,-0.114259 -0.892378,0.06128 -1.123644,0.461815 -0.276102,0.478266 -0.111868,1.089935 0.366358,1.36611 0.07774,0.04485 0.159071,0.07368 0.241812,0.09585 l -0.0013,0.0048 1.932238,0.517742 0.0013,-0.0048 c 0.426444,0.114234 0.892361,-0.0613 1.123646,-0.461825 0.276083,-0.478271 0.111858,-1.089938 -0.366361,-1.3661 -0.07774,-0.04485 -0.15906,-0.07368 -0.241811,-0.09585 l 0.001,-0.0039 z"
       id="path25459"
       inkscape:connector-curvature="0"
       sodipodi:nodetypes="ccccccccccccc" />
    <path
       inkscape:connector-curvature="0"
       id="path25461"
       d="m 47.546819,-40.967425 -10e-4,0.0039 c -0.426458,-0.114259 -0.892378,0.06128 -1.123644,0.461816 -0.276102,0.478266 -0.111867,1.089935 0.366359,1.366109 0.07774,0.04485 0.15907,0.07368 0.241811,0.09585 l -0.0013,0.0048 1.932238,0.517742 0.0013,-0.0048 c 0.426445,0.114235 0.892362,-0.0613 1.123647,-0.461825 0.276083,-0.478271 0.111858,-1.089938 -0.366361,-1.3661 -0.07774,-0.04485 -0.159061,-0.07368 -0.241812,-0.09585 l 10e-4,-0.0039 z"
       style="display:inline;opacity:1;fill:none;fill-opacity:0.12549002;fill-rule:evenodd;stroke:#ff0000;stroke-width:0.1;stroke-linecap:round;stroke-miterlimit:4;stroke-dasharray:none;stroke-dashoffset:0;stroke-opacity:1"
       sodipodi:nodetypes="ccccccccccccc" />
    <path
       style="display:inline;opacity:1;fill:none;fill-opacity:0.12549002;fill-rule:evenodd;stroke:#ff0000;stroke-width:0.1;stroke-linecap:round;stroke-miterlimit:4;stroke-dasharray:none;stroke-dashoffset:0;stroke-opacity:1"
       d="m 37.887645,-43.555582 -10e-4,0.0039 c -0.426458,-0.114259 -0.892378,0.06128 -1.123643,0.461815 -0.276103,0.478266 -0.111868,1.089935 0.366358,1.36611 0.07774,0.04485 0.15907,0.07368 0.241811,0.09585 l -0.0013,0.0048 1.932238,0.517741 0.0013,-0.0048 c 0.426445,0.114234 0.892362,-0.0613 1.123647,-0.461825 0.276083,-0.478272 0.111858,-1.089938 -0.366361,-1.3661 -0.07774,-0.04485 -0.159061,-0.07368 -0.241812,-0.09585 l 10e-4,-0.0039 z"
       id="path25463"
       inkscape:connector-curvature="0"
       sodipodi:nodetypes="ccccccccccccc" />
    <path
       inkscape:connector-curvature="0"
       style="display:inline;opacity:1;fill:none;fill-opacity:0.12549002;fill-rule:evenodd;stroke:#ff0000;stroke-width:0.1;stroke-linecap:round;stroke-miterlimit:4;stroke-dasharray:none;stroke-dashoffset:0;stroke-opacity:1"
       d="m 79.350005,-91.108447 c -0.05501,-1.04803 0.750136,-1.941961 1.798163,-1.996811 1.048005,-0.055 1.941974,0.75013 1.996821,1.798166 0.055,1.048005 -0.750156,1.941956 -1.798174,1.996808 -0.196499,0.01029 -0.38762,-0.009 -0.568769,-0.0556 l -1.7e-5,2.7e-5 v -10e-7 c -0.785066,-0.199697 -1.383453,-0.891079 -1.428024,-1.742589 z"
       id="path145771"
       sodipodi:nodetypes="cccccccc" />
    <path
       inkscape:connector-curvature="0"
       style="display:inline;opacity:1;fill:none;fill-opacity:0.12549002;fill-rule:evenodd;stroke:#ff0000;stroke-width:0.1;stroke-linecap:round;stroke-miterlimit:4;stroke-dasharray:none;stroke-dashoffset:0;stroke-opacity:1"
       d="m 127.64634,-78.167473 c -0.055,-1.048034 0.75015,-1.941958 1.79818,-1.996817 1.048,-0.055 1.94197,0.750139 1.99681,1.798163 0.055,1.048005 -0.75016,1.941956 -1.79817,1.996808 -0.19649,0.0103 -0.38762,-0.009 -0.56878,-0.0556 v 3.1e-5 -3e-6 c -0.78507,-0.199696 -1.38347,-0.891071 -1.42804,-1.742582 z"
       id="path145773"
       sodipodi:nodetypes="cccccccc" />
    <path
       inkscape:connector-curvature="0"
       style="display:inline;opacity:1;fill:none;fill-opacity:0.12549002;fill-rule:evenodd;stroke:#ff0000;stroke-width:0.1;stroke-linecap:round;stroke-miterlimit:4;stroke-dasharray:none;stroke-dashoffset:0;stroke-opacity:1"
       d="m 175.94268,-65.226517 c -0.055,-1.048024 0.75014,-1.941961 1.79817,-1.996811 1.04801,-0.055 1.94197,0.75013 1.99681,1.798164 0.055,1.048005 -0.75016,1.941956 -1.79817,1.996811 -0.19649,0.01029 -0.38762,-0.009 -0.56877,-0.05561 l -1e-5,2.9e-5 v 2e-6 c -0.78506,-0.19969 -1.38345,-0.891074 -1.42803,-1.742585 z"
       id="path145775"
       sodipodi:nodetypes="cccccccc" />
    <path
       inkscape:connector-curvature="0"
       style="display:inline;opacity:1;fill:none;fill-opacity:0.12549002;fill-rule:evenodd;stroke:#ff0000;stroke-width:0.1;stroke-linecap:round;stroke-miterlimit:4;stroke-dasharray:none;stroke-dashoffset:0;stroke-opacity:1"
       d="m 183.15929,-66.467506 c -0.58812,-2.246257 -2.68872,-3.848168 -5.09847,-3.721669 -2.30122,0.120653 -5.1519,1.936896 -5.61912,4.085059 -0.24953,0.91582 -0.61687,1.691777 -1.48916,1.869889 -0.70889,0.102362 -0.41491,0.05687 -1.11935,0.17394 -15.62952,2.597404 -30.47886,8.533918 -58.41494,5.366197 -14.365259,-1.628902 -42.467848,-4.649639 -57.957339,-6.729505 l -14.04081,-1.691796 -1.305775,4.873239 -18.0649,-4.890413 c 16.145579,-2.500847 29.844989,-0.483719 42.132167,0.939498 30.625431,3.547288 47.801097,-3.755821 68.092407,-6.950757 l 0.33367,-0.0353 c 2.61656,-0.306519 4.54653,-2.590747 4.41171,-5.221763 -1.3e-4,-0.0024 -2.7e-4,-0.005 -5.3e-4,-0.0075 l -0.0259,-0.307287 c -0.30061,-2.601076 -2.57744,-4.553683 -5.22843,-4.414509 -2.30122,0.120652 -5.1519,1.936885 -5.61911,4.085058 -0.24953,0.915813 -0.61689,1.691764 -1.48917,1.86989 -0.68099,0.09834 -0.35934,0.0482 -1.03618,0.160152 -15.66005,2.590099 -30.51247,8.553312 -58.498111,5.379969 -14.365271,-1.628905 -42.444465,-4.643369 -57.9339567,-6.723235 l -14.0408023,-1.691783 -1.313921,4.903642 -18.0531,-4.93127 c 16.133831,-2.494409 29.8248041,-0.47875 42.105143,0.943671 30.625415,3.547311 47.801085,-3.755813 68.092401,-6.950768 l 0.333648,-0.0352 c 2.614131,-0.306236 4.542954,-2.586487 4.412101,-5.214381 l -0.02516,-0.307513 c -0.293741,-2.608392 -2.574155,-4.568589 -5.230109,-4.429172 -2.301229,0.120647 -5.151903,1.781119 -5.619128,3.929279 -0.249534,0.915821 -0.616863,1.691778 -1.489154,1.869893 -0.526484,0.07603 -0.05139,0.156419 -0.575249,0.240717 -15.830966,2.547485 -30.698982,8.659646 -58.959046,5.455198 -14.36527138,-1.628899 -42.444452,-4.643377 -57.933946,-6.723242 l -14.040805,-1.691791 -1.3961,5.210318 -0.08046,0.300267 -0.464534,1.733664 3.864015,1.03536 -0.388271,1.449043 212.480315,56.933877 0.38827,-1.44903 3.86352,1.035225 0.49569,-1.84989 0.0804,-0.300255 1.36496,-5.09409 -13.00508,-5.555139 -14.0408,-1.691784 -1.28741,4.80468 -21.27512,-5.60199 1.31207,-4.896691 -13.00508,-5.55513 -14.040816,-1.691786 -1.287664,4.805667 -18.137519,-4.824112 c 16.162652,-2.507479 29.891485,-0.483417 42.186689,0.940723 30.62541,3.547312 47.8011,-3.755822 68.0924,-6.950771 l 0.33365,-0.03519 c 2.61658,-0.306504 4.54655,-2.590755 4.41172,-5.221761 -0.013,-0.2437 -0.043,-0.482402 -0.0891,-0.714985 z"
       id="path145789"
       sodipodi:nodetypes="ccccsscccccccccccccssccccscccccccssccccccccccccccccccccccsccccc" />
    <path
       inkscape:connector-curvature="0"
       id="path145797"
       d="m 51.330159,-61.335861 -0.001,0.0039 c -0.426459,-0.114259 -0.892379,0.06128 -1.123644,0.461816 -0.276102,0.478265 -0.111868,1.089935 0.366358,1.366109 0.07774,0.04485 0.15907,0.07368 0.241812,0.09585 l -0.0013,0.0048 1.932238,0.517742 0.0013,-0.0048 c 0.426444,0.114235 0.892361,-0.0613 1.123646,-0.461825 0.276083,-0.478271 0.111858,-1.089938 -0.366361,-1.3661 -0.07774,-0.04485 -0.15906,-0.07368 -0.241811,-0.09585 l 10e-4,-0.0039 z"
       style="display:inline;opacity:1;fill:none;fill-opacity:0.12549002;fill-rule:evenodd;stroke:#ff0000;stroke-width:0.1;stroke-linecap:round;stroke-miterlimit:4;stroke-dasharray:none;stroke-dashoffset:0;stroke-opacity:1"
       sodipodi:nodetypes="ccccccccccccc" />
    <path
       style="display:inline;opacity:1;fill:none;fill-opacity:0.12549002;fill-rule:evenodd;stroke:#ff0000;stroke-width:0.1;stroke-linecap:round;stroke-miterlimit:4;stroke-dasharray:none;stroke-dashoffset:0;stroke-opacity:1"
       d="m 60.989243,-58.747562 -0.001,0.0039 c -0.426459,-0.114259 -0.892378,0.06128 -1.123644,0.461816 -0.276102,0.478266 -0.111868,1.089935 0.366358,1.366109 0.07774,0.04485 0.159071,0.07368 0.241812,0.09585 l -0.0013,0.0048 1.932238,0.517742 0.0013,-0.0048 c 0.426444,0.114235 0.892361,-0.0613 1.123646,-0.461825 0.276083,-0.478271 0.111858,-1.089938 -0.366361,-1.3661 -0.07774,-0.04485 -0.15906,-0.07368 -0.241811,-0.09585 l 10e-4,-0.0039 z"
       id="path145799"
       inkscape:connector-curvature="0"
       sodipodi:nodetypes="ccccccccccccc" />
    <path
       inkscape:connector-curvature="0"
       id="path145801"
       d="m 41.670901,-63.923896 -10e-4,0.0039 c -0.426458,-0.114259 -0.892378,0.06128 -1.123643,0.461815 -0.276103,0.478266 -0.111868,1.089935 0.366358,1.36611 0.07774,0.04485 0.15907,0.07368 0.241811,0.09585 l -0.0013,0.0048 1.932238,0.517742 0.0013,-0.0048 c 0.426445,0.114234 0.892362,-0.0613 1.123647,-0.461825 0.276083,-0.478271 0.111858,-1.089938 -0.366361,-1.3661 -0.07774,-0.04485 -0.159061,-0.07368 -0.241812,-0.09585 l 10e-4,-0.0039 z"
       style="display:inline;opacity:1;fill:none;fill-opacity:0.12549002;fill-rule:evenodd;stroke:#ff0000;stroke-width:0.1;stroke-linecap:round;stroke-miterlimit:4;stroke-dasharray:none;stroke-dashoffset:0;stroke-opacity:1"
       sodipodi:nodetypes="ccccccccccccc" />
    <path
       style="display:inline;opacity:1;fill:none;fill-opacity:0.12549002;fill-rule:evenodd;stroke:#ff0000;stroke-width:0.1;stroke-linecap:round;stroke-miterlimit:4;stroke-dasharray:none;stroke-dashoffset:0;stroke-opacity:1"
       d="m 89.96724,-50.982931 -0.001,0.0039 c -0.426459,-0.114259 -0.892378,0.06128 -1.123644,0.461815 -0.276102,0.478266 -0.111868,1.089936 0.366358,1.36611 0.07774,0.04485 0.15907,0.07368 0.241812,0.09585 l -0.0013,0.0048 1.932238,0.517742 0.0013,-0.0048 c 0.426444,0.114235 0.892361,-0.0613 1.123646,-0.461825 0.276083,-0.478271 0.111858,-1.089938 -0.366361,-1.3661 -0.07774,-0.04485 -0.15906,-0.07368 -0.241811,-0.09585 l 0.001,-0.0039 z"
       id="path145803"
       inkscape:connector-curvature="0"
       sodipodi:nodetypes="ccccccccccccc" />
    <path
       inkscape:connector-curvature="0"
       id="path145805"
       d="m 99.626421,-48.394761 -10e-4,0.0039 c -0.426459,-0.114259 -0.892378,0.06128 -1.123644,0.461815 -0.276102,0.478266 -0.111868,1.089935 0.366358,1.36611 0.07774,0.04485 0.15907,0.07368 0.241812,0.09585 l -0.0013,0.0048 1.932243,0.517741 10e-4,-0.0048 c 0.42644,0.114234 0.89236,-0.0613 1.12365,-0.461825 0.27608,-0.478272 0.11185,-1.089938 -0.36636,-1.3661 -0.0778,-0.04485 -0.15907,-0.07368 -0.24182,-0.09585 l 10e-4,-0.0039 z"
       style="display:inline;opacity:1;fill:none;fill-opacity:0.12549002;fill-rule:evenodd;stroke:#ff0000;stroke-width:0.1;stroke-linecap:round;stroke-miterlimit:4;stroke-dasharray:none;stroke-dashoffset:0;stroke-opacity:1"
       sodipodi:nodetypes="ccccccccccccc" />
    <path
       style="display:inline;opacity:1;fill:none;fill-opacity:0.12549002;fill-rule:evenodd;stroke:#ff0000;stroke-width:0.1;stroke-linecap:round;stroke-miterlimit:4;stroke-dasharray:none;stroke-dashoffset:0;stroke-opacity:1"
       d="m 109.28558,-45.806596 -10e-4,0.0039 c -0.42646,-0.114259 -0.89238,0.06128 -1.12365,0.461816 -0.2761,0.478266 -0.11186,1.089935 0.36636,1.366109 0.0777,0.04485 0.15907,0.07368 0.24181,0.09585 l -10e-4,0.0048 1.93224,0.517742 0.001,-0.0048 c 0.42645,0.114235 0.89236,-0.0613 1.12365,-0.461825 0.27608,-0.478271 0.11186,-1.089938 -0.36636,-1.3661 -0.0777,-0.04485 -0.15906,-0.07368 -0.24181,-0.09585 l 0.001,-0.0039 z"
       id="path145807"
       inkscape:connector-curvature="0"
       sodipodi:nodetypes="ccccccccccccc" />
    <path
       inkscape:connector-curvature="0"
       id="path145809"
       d="m 138.26358,-38.041975 -10e-4,0.0039 c -0.42646,-0.114258 -0.89238,0.06128 -1.12365,0.461816 -0.2761,0.478266 -0.11186,1.089935 0.36636,1.36611 0.0777,0.04485 0.15907,0.07368 0.24181,0.09585 l -10e-4,0.0048 1.93224,0.517741 0.001,-0.0048 c 0.42645,0.114234 0.89236,-0.0613 1.12365,-0.461826 0.27608,-0.478271 0.11186,-1.089937 -0.36636,-1.366099 -0.0777,-0.04485 -0.15906,-0.07368 -0.24181,-0.09585 l 0.001,-0.0039 z"
       style="display:inline;opacity:1;fill:none;fill-opacity:0.12549002;fill-rule:evenodd;stroke:#ff0000;stroke-width:0.1;stroke-linecap:round;stroke-miterlimit:4;stroke-dasharray:none;stroke-dashoffset:0;stroke-opacity:1"
       sodipodi:nodetypes="ccccccccccccc" />
    <path
       style="display:inline;opacity:1;fill:none;fill-opacity:0.12549002;fill-rule:evenodd;stroke:#ff0000;stroke-width:0.1;stroke-linecap:round;stroke-miterlimit:4;stroke-dasharray:none;stroke-dashoffset:0;stroke-opacity:1"
       d="m 147.92275,-35.453798 -0.001,0.0039 c -0.42646,-0.114259 -0.89238,0.06128 -1.12365,0.461816 -0.2761,0.478266 -0.11187,1.089935 0.36636,1.366109 0.0777,0.04485 0.15907,0.07368 0.24181,0.09585 l -0.001,0.0048 1.93224,0.517742 0.001,-0.0048 c 0.42644,0.114235 0.89236,-0.0613 1.12365,-0.461825 0.27608,-0.478271 0.11185,-1.089937 -0.36636,-1.3661 -0.0777,-0.04485 -0.15907,-0.07368 -0.24182,-0.09585 l 0.001,-0.0039 z"
       id="path145811"
       inkscape:connector-curvature="0"
       sodipodi:nodetypes="ccccccccccccc" />
    <path
       inkscape:connector-curvature="0"
       id="path145813"
       d="m 157.58193,-32.865641 -0.001,0.0039 c -0.42646,-0.114259 -0.89238,0.06128 -1.12364,0.461815 -0.27611,0.478266 -0.11187,1.089935 0.36635,1.36611 0.0778,0.04485 0.15907,0.07368 0.24182,0.09585 l -0.001,0.0048 1.93224,0.517742 0.001,-0.0048 c 0.42645,0.114234 0.89237,-0.0613 1.12365,-0.461825 0.27608,-0.478271 0.11186,-1.089938 -0.36636,-1.3661 -0.0777,-0.04485 -0.15906,-0.07368 -0.24181,-0.09585 l 0.001,-0.0039 z"
       style="display:inline;opacity:1;fill:none;fill-opacity:0.12549002;fill-rule:evenodd;stroke:#ff0000;stroke-width:0.1;stroke-linecap:round;stroke-miterlimit:4;stroke-dasharray:none;stroke-dashoffset:0;stroke-opacity:1"
       sodipodi:nodetypes="ccccccccccccc" />
    <path
       style="display:inline;opacity:1;fill:none;fill-opacity:0.12549002;fill-rule:evenodd;stroke:#ff0000;stroke-width:0.1;stroke-linecap:round;stroke-miterlimit:4;stroke-dasharray:none;stroke-dashoffset:0;stroke-opacity:1"
       d="m 12.716289,-71.682261 -10e-4,0.0039 c -0.426459,-0.114259 -0.892379,0.06128 -1.123644,0.461815 -0.276103,0.478266 -0.111868,1.089936 0.366358,1.36611 0.07774,0.04485 0.15907,0.07368 0.241811,0.09585 l -0.0013,0.0048 1.932238,0.517742 0.0013,-0.0048 c 0.426445,0.114234 0.892362,-0.0613 1.123647,-0.461825 0.276083,-0.478271 0.111858,-1.089938 -0.366361,-1.3661 -0.07774,-0.04485 -0.159061,-0.07368 -0.241811,-0.09585 l 10e-4,-0.0039 z"
       id="path145815"
       inkscape:connector-curvature="0"
       sodipodi:nodetypes="ccccccccccccc" />
    <path
       inkscape:connector-curvature="0"
       id="path145817"
       d="m 3.0571175,-74.270428 -0.00104,0.0039 c -0.4264588,-0.114259 -0.8923784,0.06128 -1.1236439,0.461815 -0.2761023,0.478266 -0.1118677,1.089935 0.3663582,1.36611 0.077741,0.04485 0.1590702,0.07368 0.2418114,0.09585 l -0.00129,0.0048 1.932238,0.517741 0.00129,-0.0048 c 0.4264447,0.114234 0.8923617,-0.0613 1.1236465,-0.461825 0.276083,-0.478272 0.1118581,-1.089938 -0.3663608,-1.3661 -0.077741,-0.04485 -0.1590605,-0.07368 -0.2418113,-0.09585 l 0.00104,-0.0039 z"
       style="display:inline;opacity:1;fill:none;fill-opacity:0.12549002;fill-rule:evenodd;stroke:#ff0000;stroke-width:0.1;stroke-linecap:round;stroke-miterlimit:4;stroke-dasharray:none;stroke-dashoffset:0;stroke-opacity:1"
       sodipodi:nodetypes="ccccccccccccc" />
    <path
       style="display:inline;opacity:1;fill:none;fill-opacity:0.12549002;fill-rule:evenodd;stroke:#ff0000;stroke-width:0.1;stroke-linecap:round;stroke-miterlimit:4;stroke-dasharray:none;stroke-dashoffset:0;stroke-opacity:1"
       d="m -6.6020442,-76.858593 -0.00104,0.0039 c -0.4264589,-0.114259 -0.8923785,0.06128 -1.1236439,0.461816 -0.2761023,0.478266 -0.1118678,1.089935 0.3663582,1.366109 0.077741,0.04485 0.1590701,0.07368 0.2418113,0.09585 l -0.00129,0.0048 1.932238,0.517742 0.00129,-0.0048 c 0.4264447,0.114235 0.8923617,-0.0613 1.1236465,-0.461825 0.276083,-0.478271 0.1118581,-1.089938 -0.3663608,-1.3661 -0.077741,-0.04485 -0.1590604,-0.07368 -0.2418113,-0.09585 l 0.00104,-0.0039 z"
       id="path145819"
       inkscape:connector-curvature="0"
       sodipodi:nodetypes="ccccccccccccc" />
    <path
       style="display:inline;opacity:1;fill:none;fill-opacity:0.12549002;fill-rule:evenodd;stroke:#ff0000;stroke-width:0.1;stroke-linecap:round;stroke-miterlimit:4;stroke-dasharray:none;stroke-dashoffset:0;stroke-opacity:1"
       d="m -45.239174,-87.21138 -0.001,0.0039 c -0.426459,-0.114258 -0.892379,0.06128 -1.123644,0.461816 -0.276102,0.478266 -0.111868,1.089935 0.366358,1.36611 0.07774,0.04485 0.15907,0.07368 0.241812,0.09585 l -0.0013,0.0048 1.932238,0.517741 0.0013,-0.0048 c 0.426444,0.114234 0.892361,-0.0613 1.123646,-0.461826 0.276083,-0.478271 0.111858,-1.089937 -0.366361,-1.366099 -0.07774,-0.04485 -0.15906,-0.07368 -0.241811,-0.09585 l 10e-4,-0.0039 z"
       id="path145821"
       inkscape:connector-curvature="0"
       sodipodi:nodetypes="ccccccccccccc" />
    <path
       inkscape:connector-curvature="0"
       id="path145823"
       d="m -35.579916,-84.62319 -0.001,0.0039 c -0.426459,-0.114259 -0.892378,0.06128 -1.123644,0.461815 -0.276102,0.478266 -0.111867,1.089936 0.366358,1.36611 0.07774,0.04485 0.159071,0.07368 0.241812,0.09585 l -0.0013,0.0048 1.932238,0.517742 0.0013,-0.0048 c 0.426445,0.114235 0.892362,-0.0613 1.123646,-0.461825 0.276083,-0.478271 0.111858,-1.089938 -0.36636,-1.3661 -0.07774,-0.04485 -0.159061,-0.07368 -0.241812,-0.09585 l 10e-4,-0.0039 z"
       style="display:inline;opacity:1;fill:none;fill-opacity:0.12549002;fill-rule:evenodd;stroke:#ff0000;stroke-width:0.1;stroke-linecap:round;stroke-miterlimit:4;stroke-dasharray:none;stroke-dashoffset:0;stroke-opacity:1"
       sodipodi:nodetypes="ccccccccccccc" />
    <path
       style="display:inline;opacity:1;fill:none;fill-opacity:0.12549002;fill-rule:evenodd;stroke:#ff0000;stroke-width:0.1;stroke-linecap:round;stroke-miterlimit:4;stroke-dasharray:none;stroke-dashoffset:0;stroke-opacity:1"
       d="m -54.898432,-89.799571 -10e-4,0.0039 c -0.426459,-0.114259 -0.892379,0.06128 -1.123644,0.461816 -0.276103,0.478266 -0.111868,1.089935 0.366358,1.366109 0.07774,0.04485 0.15907,0.07368 0.241811,0.09585 l -0.0013,0.0048 1.932238,0.517742 0.0013,-0.0048 c 0.426445,0.114235 0.892362,-0.0613 1.123647,-0.461825 0.276083,-0.478271 0.111858,-1.089938 -0.366361,-1.3661 -0.07774,-0.04485 -0.15906,-0.07368 -0.241811,-0.09585 l 10e-4,-0.0039 z"
       id="path145825"
       inkscape:connector-curvature="0"
       sodipodi:nodetypes="ccccccccccccc" />
  </g>
</svg>
