<?xml version="1.0" encoding="UTF-8" standalone="no"?>
<!-- Created with Inkscape (http://www.inkscape.org/) -->

<svg
   xmlns:dc="http://purl.org/dc/elements/1.1/"
   xmlns:cc="http://creativecommons.org/ns#"
   xmlns:rdf="http://www.w3.org/1999/02/22-rdf-syntax-ns#"
   xmlns:svg="http://www.w3.org/2000/svg"
   xmlns="http://www.w3.org/2000/svg"
   xmlns:sodipodi="http://sodipodi.sourceforge.net/DTD/sodipodi-0.dtd"
   xmlns:inkscape="http://www.inkscape.org/namespaces/inkscape"
   width="210mm"
   height="297mm"
   viewBox="0 0 210 297"
   version="1.1"
   id="svg8"
   inkscape:version="0.92.3 (2405546, 2018-03-11)"
   sodipodi:docname="12-7-10-3mm.svg">
  <sodipodi:namedview
     id="base"
     pagecolor="#ffffff"
     bordercolor="#666666"
     borderopacity="1.0"
     inkscape:pageopacity="0.0"
     inkscape:pageshadow="2"
     inkscape:zoom="0.85721997"
     inkscape:cx="1126.9882"
     inkscape:cy="491.34074"
     inkscape:document-units="mm"
     inkscape:current-layer="svg8"
     showgrid="false"
     inkscape:snap-center="true"
     inkscape:measure-start="446.74,491.339"
     inkscape:measure-end="590.617,491.339"
     inkscape:snap-smooth-nodes="true"
     inkscape:snap-nodes="true">
    <inkscape:grid
       id="grid815"
       type="xygrid" />
  </sodipodi:namedview>
  <defs
     id="defs2">
    <inkscape:path-effect
       simplifyJustCoalesce="false"
       simplifyindividualpaths="false"
       simplify_just_coalesce="false"
       simplify_individual_paths="false"
       helper_size="0"
       smooth_angles="360"
       threshold="0.000408163"
       steps="1"
       is_visible="true"
       id="path-effect1772"
       effect="simplify" />
    <inkscape:path-effect
       effect="simplify"
       id="path-effect1768"
       is_visible="true"
       steps="1"
       threshold="0.000408163"
       smooth_angles="360"
       helper_size="0"
       simplify_individual_paths="false"
       simplify_just_coalesce="false"
       simplifyindividualpaths="false"
       simplifyJustCoalesce="false" />
    <inkscape:path-effect
       simplifyJustCoalesce="false"
       simplifyindividualpaths="false"
       simplify_just_coalesce="false"
       simplify_individual_paths="false"
       helper_size="0"
       smooth_angles="360"
       threshold="0.000408163"
       steps="1"
       is_visible="true"
       id="path-effect1764"
       effect="simplify" />
  </defs>
  <metadata
     id="metadata5">
    <rdf:RDF>
      <cc:Work
         rdf:about="">
        <dc:format>image/svg+xml</dc:format>
        <dc:type
           rdf:resource="http://purl.org/dc/dcmitype/StillImage" />
        <dc:title />
      </cc:Work>
    </rdf:RDF>
  </metadata>
  <g
     id="layer1"
     inkscape:groupmode="layer"
     inkscape:label="Ebene 1">
    <g
       id="g827"
       inkscape:label="Gear12"
       transform="translate(110,101.99999)"
       info="N:12; Pitch:11.9380519336; Pressure Angle: 30.0">
      <path
         inkscape:connector-curvature="0"
         id="path821"
         style="fill:none;stroke:#000000;stroke-width:0.60000002"
         d="m 19.4097,-3.6253 0.3631,-0.0206 0.3701,0.0186 0.3745,0.0453 0.3777,0.0682 0.3802,0.0886 0.3821,0.1077 0.3835,0.1257 0.3844,0.1432 0.3848,0.1599 0.3849,0.1763 0.3846,0.1924 0.3837,0.2081 0.3827,0.2235 0.3811,0.2388 0.3792,0.2539 0.3769,0.2688 0.3742,0.2835 0.3712,0.2981 0.3679,0.3126 0.0015,0.1081 0.0011,0.1082 7e-4,0.1082 L 26.6,0 26.5998,0.1082 26.5991,0.2164 26.598,0.3246 26.5965,0.4327 26.2286,0.7453 25.8574,1.0434 25.4832,1.3269 25.1063,1.5957 24.7271,1.8496 24.346,2.0884 23.9633,2.3119 23.5796,2.52 23.195,2.7124 22.8101,2.8887 22.4253,3.0486 22.0409,3.1918 21.6574,3.3175 21.2753,3.4252 20.8951,3.5138 20.5174,3.582 20.1429,3.6273 19.7728,3.6459 19.4097,3.6253 18.677,3.4885 18.6063,3.848 18.5286,4.2061 18.444,4.5627 l -0.0914,0.3549 -0.0983,0.353 -0.105,0.3511 -0.1118,0.3489 -0.1185,0.3468 0.703,0.2478 0.3247,0.1638 0.3113,0.2011 0.3015,0.2265 0.2931,0.2479 0.2849,0.2668 0.2771,0.2843 0.2692,0.3007 0.2614,0.3161 0.2533,0.331 0.2452,0.3451 0.2368,0.3589 0.2283,0.3721 0.2196,0.3849 0.2107,0.3973 0.2014,0.4095 0.192,0.4212 0.1824,0.4327 0.1724,0.4438 0.1623,0.4546 -0.0528,0.0944 -0.0531,0.0943 -0.0535,0.094 -0.0539,0.0938 -0.0543,0.0936 -0.0547,0.0933 -0.055,0.0932 -0.0554,0.0929 -0.4749,0.0868 -0.4705,0.0725 -0.4659,0.0584 -0.4608,0.0444 -0.4553,0.0302 -0.4495,0.0163 -0.4431,0.0023 -0.4364,-0.0117 -0.4292,-0.0257 -0.4215,-0.0398 -0.4133,-0.0539 -0.4044,-0.0682 -0.395,-0.0828 -0.3848,-0.0978 -0.3736,-0.1134 -0.3611,-0.1299 -0.347,-0.1479 -0.3298,-0.1689 -0.3042,-0.1994 -0.5661,-0.4849 -0.241,0.276 -0.2463,0.2713 -0.2516,0.2665 -0.2566,0.2616 -0.2616,0.2566 -0.2665,0.2516 -0.2713,0.2463 -0.276,0.241 0.4849,0.5661 0.1994,0.3042 0.1689,0.3298 0.1479,0.347 0.1299,0.3611 0.1134,0.3736 0.0978,0.3848 0.0828,0.395 0.0682,0.4044 0.0539,0.4133 0.0398,0.4215 0.0257,0.4292 0.0117,0.4364 -0.0023,0.4431 -0.0163,0.4495 -0.0302,0.4553 -0.0444,0.4608 -0.0584,0.4659 -0.0725,0.4705 -0.0868,0.4749 -0.0929,0.0554 -0.0932,0.055 -0.0933,0.0547 -0.0936,0.0543 -0.0938,0.0539 -0.094,0.0535 -0.0943,0.0531 -0.0944,0.0528 -0.4546,-0.1623 -0.4438,-0.1724 -0.4327,-0.1824 -0.4212,-0.192 L 10.7617,22.3391 10.3644,22.1284 9.9795,21.9088 9.6074,21.6805 9.2485,21.4437 8.9034,21.1985 8.5724,20.9452 8.2563,20.6838 7.9556,20.4146 7.6713,20.1375 7.4045,19.8526 7.1566,19.5595 6.9301,19.258 6.729,18.9467 6.5652,18.622 6.3174,17.919 5.9706,18.0375 5.6217,18.1493 5.2706,18.2543 4.9176,18.3526 4.5627,18.444 4.2061,18.5286 3.848,18.6063 3.4885,18.677 3.6253,19.4097 3.6459,19.7728 3.6273,20.1429 3.582,20.5174 3.5138,20.8951 3.4252,21.2753 3.3175,21.6574 3.1918,22.0409 3.0486,22.4253 2.8887,22.8101 2.7124,23.195 2.52,23.5796 2.3119,23.9633 2.0884,24.346 1.8496,24.7271 1.5957,25.1063 1.3269,25.4832 1.0434,25.8574 0.7453,26.2286 0.4327,26.5965 0.3246,26.598 0.2164,26.5991 0.1082,26.5998 0,26.6 -0.1082,26.5998 -0.2164,26.5991 -0.3246,26.598 -0.4327,26.5965 -0.7453,26.2286 -1.0434,25.8574 -1.3269,25.4832 -1.5957,25.1063 -1.8496,24.7271 -2.0884,24.346 -2.3119,23.9633 -2.52,23.5796 -2.7124,23.195 -2.8887,22.8101 -3.0486,22.4253 -3.1918,22.0409 -3.3175,21.6574 -3.4252,21.2753 -3.5138,20.8951 -3.582,20.5174 -3.6273,20.1429 -3.6459,19.7728 -3.6253,19.4097 -3.4885,18.677 -3.848,18.6063 -4.2061,18.5286 -4.5627,18.444 l -0.3549,-0.0914 -0.353,-0.0983 -0.3511,-0.105 -0.3489,-0.1118 -0.3468,-0.1185 -0.2478,0.703 -0.1638,0.3247 -0.2011,0.3113 -0.2265,0.3015 -0.2479,0.2931 -0.2668,0.2849 -0.2843,0.2771 -0.3007,0.2692 -0.3161,0.2614 -0.331,0.2533 -0.3451,0.2452 -0.3589,0.2368 -0.3721,0.2283 -0.3849,0.2196 -0.3973,0.2107 -0.4095,0.2014 -0.4212,0.192 -0.4327,0.1824 -0.4438,0.1724 -0.4546,0.1623 -0.0944,-0.0528 -0.0943,-0.0531 -0.094,-0.0535 -0.0938,-0.0539 -0.0936,-0.0543 -0.0933,-0.0547 -0.0932,-0.055 -0.0929,-0.0554 -0.0868,-0.4749 -0.0725,-0.4705 -0.0584,-0.4659 -0.0444,-0.4608 -0.0302,-0.4553 -0.0163,-0.4495 -0.0023,-0.4431 0.0117,-0.4364 0.0257,-0.4292 0.0398,-0.4215 0.0539,-0.4133 0.0682,-0.4044 0.0828,-0.395 0.0978,-0.3848 0.1134,-0.3736 0.1299,-0.3611 0.1479,-0.347 0.1689,-0.3298 0.1994,-0.3042 0.4849,-0.5661 -0.276,-0.241 -0.2713,-0.2463 -0.2665,-0.2516 -0.2616,-0.2566 -0.2566,-0.2616 -0.2516,-0.2665 -0.2463,-0.2713 -0.241,-0.276 -0.5661,0.4849 -0.3042,0.1994 -0.3298,0.1689 -0.347,0.1479 -0.3611,0.1299 -0.3736,0.1134 -0.3848,0.0978 -0.395,0.0828 -0.4044,0.0682 -0.4133,0.0539 -0.4215,0.0398 -0.4292,0.0257 -0.4364,0.0117 -0.4431,-0.0023 -0.4495,-0.0163 -0.4553,-0.0302 -0.4608,-0.0444 -0.4659,-0.0584 -0.4705,-0.0725 -0.4749,-0.0868 -0.0554,-0.0929 -0.055,-0.0932 -0.0547,-0.0933 -0.0543,-0.0936 -0.0539,-0.0938 -0.0535,-0.094 -0.0531,-0.0943 -0.0528,-0.0944 0.1623,-0.4546 0.1724,-0.4438 0.1824,-0.4327 0.192,-0.4212 0.2014,-0.4095 0.2107,-0.3973 0.2196,-0.3849 0.2283,-0.3721 0.2368,-0.3589 0.2452,-0.3451 0.2533,-0.331 0.2614,-0.3161 0.2692,-0.3007 0.2771,-0.2843 0.2849,-0.2668 0.2931,-0.2479 0.3015,-0.2265 0.3113,-0.2011 0.3247,-0.1638 0.703,-0.2478 -0.1185,-0.3468 -0.1118,-0.3489 -0.105,-0.3511 -0.0983,-0.353 L -18.444,4.5627 -18.5286,4.2061 -18.6063,3.848 -18.677,3.4885 -19.4097,3.6253 -19.7728,3.6459 -20.1429,3.6273 -20.5174,3.582 -20.8951,3.5138 -21.2753,3.4252 -21.6574,3.3175 -22.0409,3.1918 -22.4253,3.0486 -22.8101,2.8887 -23.195,2.7124 -23.5796,2.52 -23.9633,2.3119 -24.346,2.0884 -24.7271,1.8496 -25.1063,1.5957 -25.4832,1.3269 -25.8574,1.0434 -26.2286,0.7453 -26.5965,0.4327 -26.598,0.3246 -26.5991,0.2164 -26.5998,0.1082 -26.6,0 l 2e-4,-0.1082 7e-4,-0.1082 0.0011,-0.1082 0.0015,-0.1081 0.3679,-0.3126 0.3712,-0.2981 0.3742,-0.2835 0.3769,-0.2688 0.3792,-0.2539 0.3811,-0.2388 0.3827,-0.2235 0.3837,-0.2081 0.3846,-0.1924 0.3849,-0.1763 0.3848,-0.1599 0.3844,-0.1432 0.3835,-0.1257 0.3821,-0.1077 0.3802,-0.0886 0.3777,-0.0682 0.3745,-0.0453 0.3701,-0.0186 0.3631,0.0206 0.7327,0.1368 0.0707,-0.3595 0.0777,-0.3581 0.0846,-0.3566 0.0914,-0.3549 0.0983,-0.353 0.105,-0.3511 0.1118,-0.3489 0.1185,-0.3468 -0.703,-0.2478 -0.3247,-0.1638 -0.3113,-0.2011 -0.3015,-0.2265 -0.2931,-0.2479 -0.2849,-0.2668 -0.2771,-0.2843 -0.2692,-0.3007 -0.2614,-0.3161 -0.2533,-0.331 -0.2452,-0.3451 -0.2368,-0.3589 -0.2283,-0.3721 -0.2196,-0.3849 -0.2107,-0.3973 -0.2014,-0.4095 -0.192,-0.4212 -0.1824,-0.4327 -0.1724,-0.4438 -0.1623,-0.4546 0.0528,-0.0944 0.0531,-0.0943 0.0535,-0.094 0.0539,-0.0938 0.0543,-0.0936 0.0547,-0.0933 0.055,-0.0932 0.0554,-0.0929 0.4749,-0.0868 0.4705,-0.0725 0.4659,-0.0584 0.4608,-0.0444 0.4553,-0.0302 0.4495,-0.0163 0.4431,-0.0023 0.4364,0.0117 0.4292,0.0257 0.4215,0.0398 0.4133,0.0539 0.4044,0.0682 0.395,0.0828 0.3848,0.0978 0.3736,0.1134 0.3611,0.1299 0.347,0.1479 0.3298,0.1689 0.3042,0.1994 0.5661,0.4849 0.241,-0.276 0.2463,-0.2713 0.2516,-0.2665 0.2566,-0.2616 0.2616,-0.2566 0.2665,-0.2516 0.2713,-0.2463 0.276,-0.241 -0.4849,-0.5661 -0.1994,-0.3042 -0.1689,-0.3298 -0.1479,-0.347 -0.1299,-0.3611 -0.1134,-0.3736 -0.0978,-0.3848 -0.0828,-0.395 -0.0682,-0.4044 -0.0539,-0.4133 -0.0398,-0.4215 -0.0257,-0.4292 -0.0117,-0.4364 0.0023,-0.4431 0.0163,-0.4495 0.0302,-0.4553 0.0444,-0.4608 0.0584,-0.4659 0.0725,-0.4705 0.0868,-0.4749 0.0929,-0.0554 0.0932,-0.055 0.0933,-0.0547 0.0936,-0.0543 0.0938,-0.0539 0.094,-0.0535 0.0943,-0.0531 0.0944,-0.0528 0.4546,0.1623 0.4438,0.1724 0.4327,0.1824 0.4212,0.192 0.4095,0.2014 0.3973,0.2107 0.3849,0.2196 0.3721,0.2283 0.3589,0.2368 0.3451,0.2452 0.331,0.2533 0.3161,0.2614 0.3007,0.2692 0.2843,0.2771 0.2668,0.2849 0.2479,0.2931 0.2265,0.3015 0.2011,0.3113 0.1638,0.3247 0.2478,0.703 0.3468,-0.1185 0.3489,-0.1118 0.3511,-0.105 0.353,-0.0983 0.3549,-0.0914 0.3566,-0.0846 0.3581,-0.0777 0.3595,-0.0707 -0.1368,-0.7327 -0.0206,-0.3631 0.0186,-0.3701 0.0453,-0.3745 0.0682,-0.3777 0.0886,-0.3802 0.1077,-0.3821 0.1257,-0.3835 0.1432,-0.3844 0.1599,-0.3848 0.1763,-0.3849 0.1924,-0.3846 0.2081,-0.3837 0.2235,-0.3827 0.2388,-0.3811 0.2539,-0.3792 0.2688,-0.3769 0.2835,-0.3742 0.2981,-0.3712 0.3126,-0.3679 0.1081,-0.0015 0.1082,-0.0011 0.1082,-7e-4 L 0,-26.6 l 0.1082,2e-4 0.1082,7e-4 0.1082,0.0011 0.1081,0.0015 0.3126,0.3679 0.2981,0.3712 0.2835,0.3742 0.2688,0.3769 0.2539,0.3792 0.2388,0.3811 0.2235,0.3827 0.2081,0.3837 0.1924,0.3846 0.1763,0.3849 0.1599,0.3848 0.1432,0.3844 0.1257,0.3835 0.1077,0.3821 0.0886,0.3802 0.0682,0.3777 0.0453,0.3745 0.0186,0.3701 -0.0206,0.3631 -0.1368,0.7327 0.3595,0.0707 0.3581,0.0777 0.3566,0.0846 0.3549,0.0914 0.353,0.0983 0.3511,0.105 0.3489,0.1118 0.3468,0.1185 0.2478,-0.703 0.1638,-0.3247 0.2011,-0.3113 0.2265,-0.3015 0.2479,-0.2931 0.2668,-0.2849 0.2843,-0.2771 0.3007,-0.2692 0.3161,-0.2614 0.331,-0.2533 0.3451,-0.2452 0.3589,-0.2368 0.3721,-0.2283 0.3849,-0.2196 0.3973,-0.2107 0.4095,-0.2014 0.4212,-0.192 0.4327,-0.1824 0.4438,-0.1724 0.4546,-0.1623 0.0944,0.0528 0.0943,0.0531 0.094,0.0535 0.0938,0.0539 0.0936,0.0543 0.0933,0.0547 0.0932,0.055 0.0929,0.0554 0.0868,0.4749 0.0725,0.4705 0.0584,0.4659 0.0444,0.4608 0.0302,0.4553 0.0163,0.4495 0.0023,0.4431 -0.0117,0.4364 -0.0257,0.4292 -0.0398,0.4215 -0.0539,0.4133 -0.0682,0.4044 -0.0828,0.395 -0.0978,0.3848 -0.1134,0.3736 -0.1299,0.3611 -0.1479,0.347 -0.1689,0.3298 -0.1994,0.3042 -0.4849,0.5661 0.276,0.241 0.2713,0.2463 0.2665,0.2516 0.2616,0.2566 0.2566,0.2616 0.2516,0.2665 0.2463,0.2713 0.241,0.276 0.5661,-0.4849 0.3042,-0.1994 0.3298,-0.1689 0.347,-0.1479 0.3611,-0.1299 0.3736,-0.1134 0.3848,-0.0978 0.395,-0.0828 0.4044,-0.0682 0.4133,-0.0539 0.4215,-0.0398 0.4292,-0.0257 0.4364,-0.0117 0.4431,0.0023 0.4495,0.0163 0.4553,0.0302 0.4608,0.0444 0.4659,0.0584 0.4705,0.0725 0.4749,0.0868 0.0554,0.0929 0.055,0.0932 0.0547,0.0933 0.0543,0.0936 0.0539,0.0938 0.0535,0.094 0.0531,0.0943 0.0528,0.0944 -0.1623,0.4546 -0.1724,0.4438 -0.1824,0.4327 -0.192,0.4212 -0.2014,0.4095 -0.2107,0.3973 -0.2196,0.3849 -0.2283,0.3721 -0.2368,0.3589 -0.2452,0.3451 -0.2533,0.331 -0.2614,0.3161 -0.2692,0.3007 -0.2771,0.2843 -0.2849,0.2668 -0.2931,0.2479 -0.3015,0.2265 -0.3113,0.2011 -0.3247,0.1638 -0.703,0.2478 0.1185,0.3468 0.1118,0.3489 0.105,0.3511 0.0983,0.353 0.0914,0.3549 0.0846,0.3566 0.0777,0.3581 0.0707,0.3595 z M 0,3 a 3,3 0 0 0 0,-6 3,3 0 0 0 0,6" />
      <path
         inkscape:connector-curvature="0"
         id="path823"
         inkscape:label="Center cross"
         style="fill:none;stroke:#000000;stroke-width:0.15000001"
         d="M -3.9793506,0 H 3.9793506 M 0,-3.9793506 v 7.9587012" />
      <circle
         id="circle825"
         inkscape:label="Pitch circle"
         style="fill:none;stroke:#000000;stroke-width:0.15000001"
         r="22.799999"
         cy="0"
         cx="0" />
    </g>
    <g
       info="N:10; Pitch:11.9380519336; Pressure Angle: 30.0"
       transform="translate(160,101.99999)"
       inkscape:label="Gear10"
       inkscape:transform-center-y="1.7763568e-15"
       id="g865">
      <path
         inkscape:connector-curvature="0"
         d="m 16.0901,-3.4435 0.336,-0.0255 0.3439,0.0127 0.3486,0.0389 0.3524,0.0614 0.3551,0.0817 0.3574,0.1007 0.3588,0.1187 0.36,0.1361 0.3604,0.153 0.3605,0.1695 0.3601,0.1856 0.3593,0.2015 0.3579,0.2172 0.3563,0.2326 0.354,0.2479 0.3515,0.2631 0.3485,0.2781 0.345,0.2928 0.3412,0.3076 0.0013,0.0925 9e-4,0.0925 6e-4,0.0924 L 22.8,0 l -2e-4,0.0925 -6e-4,0.0924 -9e-4,0.0925 -0.0013,0.0925 -0.3412,0.3076 -0.345,0.2928 -0.3485,0.2781 -0.3515,0.2631 -0.354,0.2479 -0.3563,0.2326 -0.3579,0.2172 -0.3593,0.2015 -0.3601,0.1856 -0.3605,0.1695 -0.3604,0.153 -0.36,0.1361 L 18.1835,3.1736 17.8261,3.2743 17.471,3.356 17.1186,3.4174 16.77,3.4563 16.4261,3.469 16.0901,3.4435 14.8634,3.1809 l -0.0871,0.3829 -0.097,0.3805 -0.1067,0.3778 -0.1165,0.375 -0.1262,0.3718 -0.1357,0.3684 -0.1452,0.3648 -0.1545,0.361 1.1467,0.5086 0.2869,0.1769 0.2707,0.2123 0.2591,0.2365 0.249,0.2568 0.2393,0.2748 0.2299,0.2915 0.2206,0.307 0.2112,0.3216 0.2017,0.3356 0.192,0.349 0.1822,0.3619 0.1722,0.3742 0.162,0.3861 0.1514,0.3976 0.1407,0.4087 0.1298,0.4194 0.1184,0.4298 0.107,0.4397 0.0953,0.4494 -0.0533,0.0756 -0.0536,0.0753 -0.0539,0.0752 -0.0542,0.0749 -0.0545,0.0747 -0.0548,0.0745 -0.0551,0.0742 -0.0555,0.0741 -0.4568,0.0483 -0.4513,0.0341 -0.4453,0.0201 -0.439,0.0063 -0.4322,-0.0076 -0.4249,-0.0211 -0.4173,-0.0347 -0.4091,-0.0482 -0.4004,-0.0615 -0.3912,-0.0748 -0.3816,-0.0881 -0.3711,-0.1014 -0.3602,-0.1149 -0.3482,-0.1286 -0.3354,-0.1427 -0.3211,-0.1574 -0.305,-0.1734 L 11.25,12.4615 10.9932,12.2434 10.1551,11.3099 9.8595,11.5685 9.5574,11.8193 9.249,12.0622 8.9343,12.2971 8.6137,12.5237 8.2874,12.742 7.9555,12.9518 7.6183,13.153 l 0.6288,1.0855 0.1281,0.3117 0.0942,0.3309 0.0707,0.3437 0.0504,0.354 0.0321,0.3631 0.0147,0.3709 -0.002,0.378 -0.0183,0.3844 -0.0341,0.39 -0.0497,0.3953 -0.0653,0.3998 -0.0806,0.4039 -0.0959,0.4076 -0.1112,0.4107 -0.1264,0.4133 -0.1416,0.4156 -0.1567,0.4173 -0.172,0.4187 -0.1871,0.4195 -0.0875,0.0299 -0.0876,0.0294 -0.0878,0.0291 -0.0879,0.0288 -0.088,0.0284 -0.0881,0.028 L 6.7812,21.7682 6.6929,21.7955 6.2949,21.5661 5.9098,21.3284 5.5376,21.0829 5.1788,20.83 4.8336,20.5698 4.5023,20.3029 4.1851,20.0296 3.8824,19.7502 3.5946,19.4651 3.3221,19.1746 3.0652,18.8791 2.8245,18.5788 2.6007,18.2742 2.3946,17.9655 2.2071,17.6529 2.0398,17.3368 1.895,17.0172 1.7767,16.6942 1.6972,16.3667 1.5678,15.1189 1.1768,15.1544 0.7849,15.1797 0.3926,15.1949 0,15.2 l -0.3926,-0.0051 -0.3923,-0.0152 -0.3919,-0.0253 -0.391,-0.0355 -0.1294,1.2478 -0.0795,0.3275 -0.1183,0.323 -0.1448,0.3196 -0.1673,0.3161 -0.1875,0.3126 -0.2061,0.3087 -0.2238,0.3046 -0.2407,0.3003 -0.2569,0.2955 -0.2725,0.2905 -0.2878,0.2851 -0.3027,0.2794 -0.3172,0.2733 -0.3313,0.2669 -0.3452,0.2602 -0.3588,0.2529 -0.3722,0.2455 -0.3851,0.2377 -0.398,0.2294 -0.0883,-0.0273 -0.0883,-0.0277 -0.0881,-0.028 -0.088,-0.0284 -0.0879,-0.0288 -0.0878,-0.0291 -0.0876,-0.0294 -0.0875,-0.0299 -0.1871,-0.4195 -0.172,-0.4187 -0.1567,-0.4173 -0.1416,-0.4156 -0.1264,-0.4133 -0.1112,-0.4107 -0.0959,-0.4076 -0.0806,-0.4039 -0.0653,-0.3998 -0.0497,-0.3953 -0.0341,-0.39 -0.0183,-0.3844 -0.002,-0.378 0.0147,-0.3709 0.0321,-0.3631 0.0504,-0.354 0.0707,-0.3437 0.0942,-0.3309 0.1281,-0.3117 0.6288,-1.0855 -0.3372,-0.2012 -0.3319,-0.2098 -0.3263,-0.2183 -0.3206,-0.2266 -0.3147,-0.2349 -0.3084,-0.2429 -0.3021,-0.2508 -0.2956,-0.2586 -0.8381,0.9335 -0.2568,0.2181 -0.2856,0.1919 -0.305,0.1734 -0.3211,0.1574 -0.3354,0.1427 -0.3482,0.1286 -0.3602,0.1149 -0.3711,0.1014 -0.3816,0.0881 -0.3912,0.0748 -0.4004,0.0615 -0.4091,0.0482 -0.4173,0.0347 -0.4249,0.0211 -0.4322,0.0076 -0.439,-0.0063 -0.4453,-0.0201 -0.4513,-0.0341 -0.4568,-0.0483 -0.0555,-0.0741 -0.0551,-0.0742 -0.0548,-0.0745 -0.0545,-0.0747 -0.0542,-0.0749 -0.0539,-0.0752 -0.0536,-0.0753 -0.0533,-0.0756 0.0953,-0.4494 0.107,-0.4397 0.1184,-0.4298 0.1298,-0.4194 0.1407,-0.4087 0.1514,-0.3976 0.162,-0.3861 0.1722,-0.3742 0.1822,-0.3619 0.192,-0.349 0.2017,-0.3356 0.2112,-0.3216 0.2206,-0.307 0.2299,-0.2915 0.2393,-0.2748 0.249,-0.2568 0.2591,-0.2365 0.2707,-0.2123 0.2869,-0.1769 1.1467,-0.5086 -0.1545,-0.361 -0.1452,-0.3648 -0.1357,-0.3684 -0.1262,-0.3718 -0.1165,-0.375 -0.1067,-0.3778 -0.097,-0.3805 -0.0871,-0.3829 -1.2267,0.2626 -0.336,0.0255 -0.3439,-0.0127 -0.3486,-0.0389 -0.3524,-0.0614 -0.3551,-0.0817 -0.3574,-0.1007 -0.3588,-0.1187 -0.36,-0.1361 -0.3604,-0.153 -0.3605,-0.1695 -0.3601,-0.1856 -0.3593,-0.2015 -0.3579,-0.2172 -0.3563,-0.2326 -0.354,-0.2479 -0.3515,-0.2631 -0.3485,-0.2781 -0.345,-0.2928 -0.3412,-0.3076 -0.0013,-0.0925 -9e-4,-0.0925 -6e-4,-0.0924 L -22.8,0 l 2e-4,-0.0925 6e-4,-0.0924 9e-4,-0.0925 0.0013,-0.0925 0.3412,-0.3076 0.345,-0.2928 0.3485,-0.2781 0.3515,-0.2631 0.354,-0.2479 0.3563,-0.2326 0.3579,-0.2172 0.3593,-0.2015 0.3601,-0.1856 0.3605,-0.1695 0.3604,-0.153 0.36,-0.1361 0.3588,-0.1187 0.3574,-0.1007 0.3551,-0.0817 0.3524,-0.0614 0.3486,-0.0389 0.3439,-0.0127 0.336,0.0255 1.2267,0.2626 0.0871,-0.3829 0.097,-0.3805 0.1067,-0.3778 0.1165,-0.375 0.1262,-0.3718 0.1357,-0.3684 0.1452,-0.3648 0.1545,-0.361 -1.1467,-0.5086 -0.2869,-0.1769 -0.2707,-0.2123 -0.2591,-0.2365 -0.249,-0.2568 -0.2393,-0.2748 -0.2299,-0.2915 -0.2206,-0.307 -0.2112,-0.3216 -0.2017,-0.3356 -0.192,-0.349 -0.1822,-0.3619 -0.1722,-0.3742 -0.162,-0.3861 -0.1514,-0.3976 -0.1407,-0.4087 -0.1298,-0.4194 -0.1184,-0.4298 -0.107,-0.4397 -0.0953,-0.4494 0.0533,-0.0756 0.0536,-0.0753 0.0539,-0.0752 0.0542,-0.0749 0.0545,-0.0747 0.0548,-0.0745 0.0551,-0.0742 0.0555,-0.0741 0.4568,-0.0483 0.4513,-0.0341 0.4453,-0.0201 0.439,-0.0063 0.4322,0.0076 0.4249,0.0211 0.4173,0.0347 0.4091,0.0482 0.4004,0.0615 0.3912,0.0748 0.3816,0.0881 0.3711,0.1014 0.3602,0.1149 0.3482,0.1286 0.3354,0.1427 0.3211,0.1574 0.305,0.1734 0.2856,0.1919 0.2568,0.2181 0.8381,0.9335 0.2956,-0.2586 0.3021,-0.2508 0.3084,-0.2429 0.3147,-0.2349 0.3206,-0.2266 0.3263,-0.2183 0.3319,-0.2098 0.3372,-0.2012 -0.6288,-1.0855 -0.1281,-0.3117 -0.0942,-0.3309 -0.0707,-0.3437 -0.0504,-0.354 -0.0321,-0.3631 -0.0147,-0.3709 0.002,-0.378 0.0183,-0.3844 0.0341,-0.39 0.0497,-0.3953 0.0653,-0.3998 0.0806,-0.4039 0.0959,-0.4076 0.1112,-0.4107 0.1264,-0.4133 0.1416,-0.4156 0.1567,-0.4173 0.172,-0.4187 0.1871,-0.4195 0.0875,-0.0299 0.0876,-0.0294 0.0878,-0.0291 0.0879,-0.0288 0.088,-0.0284 0.0881,-0.028 0.0883,-0.0277 0.0883,-0.0273 0.398,0.2294 0.3851,0.2377 0.3722,0.2455 0.3588,0.2529 0.3452,0.2602 0.3313,0.2669 0.3172,0.2733 0.3027,0.2794 0.2878,0.2851 0.2725,0.2905 0.2569,0.2955 0.2407,0.3003 0.2238,0.3046 0.2061,0.3087 0.1875,0.3126 0.1673,0.3161 0.1448,0.3196 0.1183,0.323 0.0795,0.3275 0.1294,1.2478 0.391,-0.0355 0.3919,-0.0253 0.3923,-0.0152 L 0,-15.2 l 0.3926,0.0051 0.3923,0.0152 0.3919,0.0253 0.391,0.0355 0.1294,-1.2478 0.0795,-0.3275 0.1183,-0.323 0.1448,-0.3196 0.1673,-0.3161 0.1875,-0.3126 0.2061,-0.3087 0.2238,-0.3046 0.2407,-0.3003 0.2569,-0.2955 0.2725,-0.2905 0.2878,-0.2851 0.3027,-0.2794 0.3172,-0.2733 0.3313,-0.2669 0.3452,-0.2602 0.3588,-0.2529 0.3722,-0.2455 0.3851,-0.2377 0.398,-0.2294 0.0883,0.0273 0.0883,0.0277 0.0881,0.028 0.088,0.0284 0.0879,0.0288 0.0878,0.0291 0.0876,0.0294 0.0875,0.0299 0.1871,0.4195 0.172,0.4187 0.1567,0.4173 0.1416,0.4156 0.1264,0.4133 0.1112,0.4107 0.0959,0.4076 0.0806,0.4039 0.0653,0.3998 0.0497,0.3953 0.0341,0.39 0.0183,0.3844 0.002,0.378 -0.0147,0.3709 -0.0321,0.3631 -0.0504,0.354 -0.0707,0.3437 -0.0942,0.3309 -0.1281,0.3117 -0.6288,1.0855 0.3372,0.2012 0.3319,0.2098 0.3263,0.2183 0.3206,0.2266 0.3147,0.2349 0.3084,0.2429 0.3021,0.2508 0.2956,0.2586 0.8381,-0.9335 0.2568,-0.2181 0.2856,-0.1919 0.305,-0.1734 0.3211,-0.1574 0.3354,-0.1427 0.3482,-0.1286 0.3602,-0.1149 0.3711,-0.1014 0.3816,-0.0881 0.3912,-0.0748 0.4004,-0.0615 0.4091,-0.0482 0.4173,-0.0347 0.4249,-0.0211 0.4322,-0.0076 0.439,0.0063 0.4453,0.0201 0.4513,0.0341 0.4568,0.0483 0.0555,0.0741 0.0551,0.0742 0.0548,0.0745 0.0545,0.0747 0.0542,0.0749 0.0539,0.0752 0.0536,0.0753 0.0533,0.0756 -0.0953,0.4494 -0.107,0.4397 -0.1184,0.4298 -0.1298,0.4194 -0.1407,0.4087 -0.1514,0.3976 -0.162,0.3861 -0.1722,0.3742 -0.1822,0.3619 -0.192,0.349 -0.2017,0.3356 -0.2112,0.3216 -0.2206,0.307 -0.2299,0.2915 -0.2393,0.2748 -0.249,0.2568 -0.2591,0.2365 -0.2707,0.2123 -0.2869,0.1769 -1.1467,0.5086 0.1545,0.361 0.1452,0.3648 0.1357,0.3684 0.1262,0.3718 0.1165,0.375 0.1067,0.3778 0.097,0.3805 0.0871,0.3829 z M 0,3 a 3,3 0 0 0 0,-6 3,3 0 0 0 0,6"
         style="fill:none;stroke:#000000;stroke-width:0.60000002"
         id="path847" />
      <path
         inkscape:connector-curvature="0"
         d="M -3.9793506,0 H 3.9793506 M 0,-3.9793506 v 7.9587012"
         style="fill:none;stroke:#000000;stroke-width:0.15000001"
         inkscape:label="Center cross"
         id="path849" />
      <circle
         cx="0"
         cy="0"
         r="19"
         style="fill:none;stroke:#000000;stroke-width:0.15000001"
         inkscape:label="Pitch circle"
         id="circle851" />
    </g>
    <g
       id="g2345"
       inkscape:transform-center-y="-1.7763568e-15"
       inkscape:transform-center-x="-0.80056744"
       inkscape:label="Gear7"
       transform="translate(200.00002,101.99999)"
       info="N:7; Pitch:11.9380519336; Pressure Angle: 30.0">
      <path
         id="path2339"
         style="fill:none;stroke:#000000;stroke-width:0.60000002"
         d="m 11.0754,-3.1626 0.2948,-0.0375 h 0.3049 l 0.3113,0.0262 0.3162,0.049 0.32,0.0696 0.3228,0.0893 0.325,0.108 0.3263,0.1264 0.3271,0.1441 0.3272,0.1617 0.3266,0.1789 0.3255,0.196 0.3237,0.2129 0.3213,0.2296 0.3184,0.2461 0.3148,0.2625 0.3107,0.2787 0.306,0.2948 0.3006,0.3108 6e-4,0.0538 5e-4,0.0539 2e-4,0.0539 L 17.1,0 l -10e-5,0.0539 -2e-4,0.0539 -5e-4,0.0539 -6e-4,0.0538 -0.3006,0.3108 -0.306,0.2948 -0.3107,0.2787 -0.3148,0.2625 -0.3184,0.2461 -0.3213,0.2296 -0.3237,0.2129 -0.3255,0.196 -0.3266,0.1789 -0.3272,0.1617 -0.3271,0.1441 -0.3263,0.1264 -0.325,0.108 -0.3228,0.0893 -0.32,0.0696 -0.3162,0.049 -0.3113,0.0262 H 11.3702 L 11.0754,3.1626 9.1349,2.6085 9.0153,2.9957 8.8793,3.3775 8.7272,3.7531 8.5592,4.1219 8.3756,4.4832 8.1768,4.8363 7.9631,5.1807 7.7349,5.5156 l 1.6432,1.1717 0.2131,0.207 0.1901,0.2384 0.1735,0.2598 0.1589,0.2777 0.145,0.2936 0.1315,0.308 0.1182,0.3215 0.1047,0.3339 0.0912,0.3456 0.0776,0.3566 0.0638,0.3669 0.0497,0.3767 0.0354,0.3858 0.0208,0.3944 0.0061,0.4023 -0.0089,0.4098 -0.0242,0.4167 -0.0398,0.4231 -0.0555,0.4288 -0.0417,0.034 -0.0419,0.034 -0.0419,0.0338 -0.0421,0.0336 -0.0422,0.0336 -0.0423,0.0333 -0.0424,0.0333 -0.0425,0.0331 L 10.0619,13.4613 9.6406,13.4059 9.229,13.3368 8.8275,13.2543 8.4366,13.1589 8.0567,13.0508 7.6885,12.9304 7.3323,12.7981 6.9888,12.6543 6.6584,12.4993 6.3417,12.3335 6.0395,12.1571 5.7524,11.9704 5.4813,11.7736 5.2274,11.5669 4.992,11.3502 4.7773,11.1232 4.5872,10.8848 4.4328,10.631 3.6561,8.7683 3.2788,8.9162 2.8956,9.048 2.507,9.1632 2.1139,9.2618 1.717,9.3435 1.317,9.4083 0.9145,9.4559 0.5104,9.4863 0.6188,11.5015 0.5898,11.7972 0.522,12.0944 0.4271,12.3921 0.309,12.6895 0.1699,12.9859 0.011,13.2808 l -0.1776,0.2928 -0.1958,0.2901 -0.2133,0.2868 -0.2304,0.283 -0.2472,0.2786 -0.2635,0.2737 -0.2796,0.2682 -0.2953,0.2622 -0.3108,0.2556 -0.3259,0.2486 -0.3409,0.2408 -0.3555,0.2327 -0.3699,0.224 L -3.6473,16.7065 -3.7,16.6949 -3.7526,16.6832 -3.8051,16.6713 -3.8576,16.6592 -3.9101,16.647 -3.9625,16.6345 -4.0149,16.622 -4.251,16.2597 -4.4703,15.8958 -4.6729,15.5309 -4.8588,15.1655 -5.0279,14.8004 -5.1802,14.436 -5.3157,14.0731 -5.4344,13.7121 -5.5361,13.3539 -5.621,12.9989 -5.6887,12.648 -5.7392,12.3017 -5.7723,11.9608 -5.7874,11.6262 -5.7842,11.2988 -5.7615,10.9796 -5.7178,10.6702 -5.65,10.373 -5.5479,10.094 -4.5758,8.3254 -4.9267,8.1227 -5.2686,7.9052 -5.601,7.6733 -5.9232,7.4274 -6.2345,7.168 -6.5346,6.8956 l -0.2881,-0.285 -0.2757,-0.297 -1.508,1.3413 -0.2493,0.1617 -0.2747,0.1322 -0.2919,0.1115 -0.3061,0.0931 -0.3185,0.076 -0.3296,0.0597 -0.3397,0.0436 -0.3488,0.0278 -0.3572,0.0121 -0.365,-0.0038 -0.3719,-0.0195 -0.3783,-0.0353 -0.384,-0.0514 -0.3891,-0.0674 -0.3936,-0.0836 -0.3976,-0.0999 -0.4008,-0.1163 -0.4036,-0.1329 -0.4057,-0.1495 -0.0239,-0.0483 -0.0238,-0.0483 -0.0236,-0.0485 -0.0235,-0.0485 -0.0233,-0.0486 -0.0231,-0.0486 -0.023,-0.0488 -0.0229,-0.0488 0.1361,-0.4104 0.1478,-0.3984 0.1589,-0.3859 0.1698,-0.3731 0.1801,-0.3599 0.1899,-0.3462 0.1993,-0.3323 0.2082,-0.3178 0.2166,-0.3029 0.2246,-0.2876 0.2322,-0.2718 0.2392,-0.2554 0.2459,-0.2384 0.2521,-0.2205 0.2581,-0.2016 0.2636,-0.1812 0.2691,-0.1588 0.2747,-0.1323 L -11.3508,1.956 -9.362,1.6133 -9.4223,1.2126 -9.4654,0.8096 -9.4914,0.4052 -9.5,0 l 0.0086,-0.4052 0.026,-0.4044 0.0431,-0.403 0.0603,-0.4007 -1.9888,-0.3427 -0.2819,-0.0941 -0.2747,-0.1323 -0.2691,-0.1588 -0.2636,-0.1812 -0.2581,-0.2016 -0.2521,-0.2205 -0.2459,-0.2384 -0.2392,-0.2554 -0.2322,-0.2718 -0.2246,-0.2876 -0.2166,-0.3029 -0.2082,-0.3178 -0.1993,-0.3323 -0.1899,-0.3462 -0.1801,-0.3599 -0.1698,-0.3731 -0.1589,-0.3859 -0.1478,-0.3984 -0.1361,-0.4104 0.0229,-0.0488 0.023,-0.0488 0.0231,-0.0486 0.0233,-0.0486 0.0235,-0.0485 0.0236,-0.0485 0.0238,-0.0483 0.0239,-0.0483 0.4057,-0.1495 0.4036,-0.1329 0.4008,-0.1163 0.3976,-0.0999 0.3936,-0.0836 0.3891,-0.0674 0.384,-0.0514 0.3783,-0.0353 0.3719,-0.0195 0.365,-0.0038 0.3572,0.0121 0.3488,0.0278 0.3397,0.0436 0.3296,0.0597 0.3185,0.076 0.3061,0.0931 0.2919,0.1115 0.2747,0.1322 0.2493,0.1617 1.508,1.3413 0.2757,-0.297 0.2881,-0.285 0.3001,-0.2724 0.3113,-0.2594 0.3222,-0.2459 0.3324,-0.2319 0.3419,-0.2175 0.3509,-0.2027 -0.9721,-1.7686 -0.1021,-0.279 -0.0678,-0.2972 -0.0437,-0.3094 -0.0227,-0.3192 -0.0032,-0.3274 0.0151,-0.3346 0.0331,-0.3409 0.0505,-0.3463 0.0677,-0.3509 0.0849,-0.355 0.1017,-0.3582 0.1187,-0.361 0.1355,-0.3629 0.1523,-0.3644 0.1691,-0.3651 0.1859,-0.3654 0.2026,-0.3649 0.2193,-0.3639 0.2361,-0.3623 0.0524,-0.0125 0.0524,-0.0125 0.0525,-0.0122 0.0525,-0.0121 0.0525,-0.0119 0.0526,-0.0117 0.0527,-0.0116 0.0526,-0.0114 0.3699,0.224 0.3555,0.2327 0.3409,0.2408 0.3259,0.2486 0.3108,0.2556 0.2953,0.2622 0.2796,0.2682 0.2635,0.2737 0.2472,0.2786 0.2304,0.283 0.2133,0.2868 0.1958,0.2901 0.1776,0.2928 0.1589,0.2949 0.1391,0.2964 0.1181,0.2974 0.0949,0.2977 0.0678,0.2972 0.029,0.2957 -0.1084,2.0152 0.4041,0.0304 0.4025,0.0476 0.4,0.0648 0.3969,0.0817 0.3931,0.0986 0.3886,0.1152 0.3832,0.1318 0.3773,0.1479 0.7767,-1.8627 0.1544,-0.2538 0.1901,-0.2384 0.2147,-0.227 0.2354,-0.2167 0.2539,-0.2067 0.2711,-0.1968 0.2871,-0.1867 0.3022,-0.1764 0.3167,-0.1658 0.3304,-0.155 0.3435,-0.1438 0.3562,-0.1323 0.3682,-0.1204 0.3799,-0.1081 0.3909,-0.0954 0.4015,-0.0825 0.4116,-0.0691 0.4213,-0.0554 0.4304,-0.0413 0.0425,0.0331 0.0424,0.0333 0.0423,0.0333 0.0422,0.0336 0.0421,0.0336 0.0419,0.0338 0.0419,0.034 0.0417,0.034 0.0555,0.4288 0.0398,0.4231 0.0242,0.4167 0.0089,0.4098 -0.0061,0.4023 -0.0208,0.3944 -0.0354,0.3858 -0.0497,0.3767 -0.0638,0.3669 -0.0776,0.3566 -0.0912,0.3456 -0.1047,0.3339 -0.1182,0.3215 -0.1315,0.308 -0.145,0.2936 -0.1589,0.2777 -0.1735,0.2598 -0.1901,0.2384 -0.2131,0.207 -1.6432,1.1717 0.2282,0.3349 0.2137,0.3444 0.1988,0.3531 0.1836,0.3613 0.168,0.3688 0.1521,0.3756 0.136,0.3818 0.1196,0.3872 z M 0,3 a 3,3 0 0 0 0,-6 3,3 0 0 0 0,6"
         inkscape:connector-curvature="0" />
      <path
         id="path2341"
         inkscape:label="Center cross"
         style="fill:none;stroke:#000000;stroke-width:0.15000001"
         d="M -3.9793506,0 H 3.9793506 M 0,-3.9793506 v 7.9587012"
         inkscape:connector-curvature="0" />
      <circle
         id="circle2343"
         inkscape:label="Pitch circle"
         style="fill:none;stroke:#000000;stroke-width:0.15000001"
         r="13.3"
         cy="0"
         cx="0" />
    </g>
    <path
       style="fill:#ffe6d5;stroke:#000000;stroke-width:0.56692916"
       d="m 1084.7715,636.65625 c 2.4777,-0.66426 4.2006,-2.90944 4.2012,-5.47461 0,-2.56357 -1.7268,-4.80581 -4.2032,-5.46875 v -0.008 l -10.9511,-2.93536 -22.6309,-13.06445 c -9.3848,-29.94588 -37.1278,-50.32938 -68.50977,-50.33594 -39.66128,-8.1e-4 -71.81331,32.15122 -71.8125,71.8125 2.7e-4,39.66052 32.15198,71.81136 71.8125,71.81055 31.33657,-0.0371 59.03057,-20.3896 68.42387,-50.28516 l 22.7168,-13.11523 z M 982.67773,619.8418 c 6.26235,3.8e-4 11.33858,5.07749 11.33789,11.33984 -3.8e-4,6.26159 -5.0763,11.33751 -11.33789,11.33789 -6.26235,6.9e-4 -11.33946,-5.07554 -11.33984,-11.33789 -6.9e-4,-6.26311 5.07673,-11.34053 11.33984,-11.33984 z"
       transform="scale(0.26458333)"
       id="circle851-5"
       inkscape:connector-curvature="0"
       sodipodi:nodetypes="ccccccccccccccccc" />
  </g>
  <g
     transform="translate(60)"
     id="g1184">
    <path
       inkscape:connector-curvature="0"
       id="path1096"
       style="fill:none;stroke:#000000;stroke-width:0.1;stroke-miterlimit:4;stroke-dasharray:none;stroke-opacity:1"
       d="m 172.24338,47.993119 0.1689,0.191986 0.15174,0.210888 0.13984,0.223609 0.1298,0.234118 0.12068,0.24334 0.11197,0.251769 0.10367,0.259404 0.0956,0.266781 0.0878,0.273564 0.08,0.280067 0.0722,0.28607 0.0645,0.292073 0.0568,0.297517 0.0492,0.302961 0.0413,0.308023 0.0338,0.312909 0.0258,0.317588 0.0182,0.322033 0.0102,0.326352 -0.31671,0.264842 -0.32197,0.258642 -0.32682,0.252287 -0.3317,0.245933 -0.33639,0.23946 -0.34094,0.232871 -0.34547,0.226281 -0.34975,0.219375 -0.30724,-0.110517 -0.30066,-0.116778 -0.29407,-0.122679 -0.28716,-0.128814 -0.28017,-0.134509 -0.27294,-0.14038 -0.26539,-0.145986 -0.25785,-0.151592 -0.24975,-0.15711 -0.24164,-0.162627 -0.23305,-0.167998 -0.2242,-0.173324 -0.21467,-0.178759 -0.20484,-0.184292 -0.19414,-0.189969 -0.18255,-0.195794 -0.16945,-0.202096 -0.15368,-0.209477 -0.13039,-0.219965 -1.12495,-2.536131 -0.32479,0.139065 -0.32832,0.13063 -0.33163,0.12216 -0.33465,0.113592 -0.33746,0.104769 -0.34004,0.09613 -0.34243,0.08723 -0.34461,0.07844 0.58068,2.713028 0.0238,0.254631 -0.001,0.259832 -0.0182,0.263073 -0.0326,0.265676 -0.0455,0.267781 -0.0574,0.269399 -0.0686,0.270989 -0.0794,0.271926 -0.0898,0.272869 -0.0999,0.273555 -0.10983,0.273984 -0.11937,0.274119 -0.12898,0.274173 -0.13832,0.273912 -0.14757,0.273591 -0.15664,0.273014 -0.16573,0.272075 -0.17468,0.271159 -0.18352,0.270045 -0.41201,0.02803 -0.41239,0.02002 -0.41277,0.01201 -0.41287,0.0041 -0.41295,-0.004 -0.41268,-0.01203 -0.41243,-0.02 -0.41194,-0.02802 -0.18354,-0.269978 -0.17468,-0.271223 -0.16573,-0.272168 -0.15665,-0.272949 -0.14755,-0.273512 -0.13837,-0.273992 -0.1289,-0.274209 -0.11945,-0.274145 -0.10975,-0.273898 -0.0999,-0.273547 -0.0899,-0.272896 -0.0794,-0.271957 -0.0686,-0.270893 -0.0573,-0.269462 -0.0455,-0.267802 -0.0326,-0.265685 -0.0182,-0.263127 -0.001,-0.259708 0.0238,-0.254608 0.58069,-2.713077 -0.34461,-0.07842 -0.34241,-0.08731 -0.3401,-0.09604 -0.33749,-0.104856 -0.33453,-0.113552 -0.33167,-0.122189 -0.32833,-0.13054 -0.32483,-0.139147 -1.12491,2.536173 -0.13042,0.219966 -0.15373,0.20947 -0.16933,0.202132 -0.18258,0.195811 -0.19416,0.189894 -0.2048,0.184272 -0.21474,0.178761 -0.2242,0.173396 -0.23302,0.168062 -0.24159,0.16255 -0.24982,0.157026 -0.25777,0.151684 -0.26553,0.145945 -0.2728,0.140355 -0.28019,0.134601 -0.28721,0.128695 -0.29408,0.122809 -0.30071,0.116749 -0.30723,0.110488 -0.34969,-0.219474 -0.34546,-0.226251 -0.34099,-0.232844 -0.33636,-0.239414 -0.33169,-0.245904 -0.32686,-0.252372 -0.32187,-0.258596 -0.3168,-0.26488 0.0102,-0.326284 0.0181,-0.322081 0.0259,-0.317564 0.0337,-0.312965 0.0414,-0.307947 0.0492,-0.302988 0.0567,-0.297573 0.0646,-0.292033 0.0722,-0.286096 0.0799,-0.280079 0.0878,-0.273539 0.0956,-0.266719 0.10367,-0.259496 0.11203,-0.251728 0.12059,-0.243358 0.12979,-0.234096 0.13993,-0.223542 0.15168,-0.210941 0.16893,-0.191957 2.06442,-1.853652 -0.23265,-0.265943 -0.22569,-0.271858 -0.21869,-0.277692 -0.21139,-0.283122 -0.20394,-0.288529 -0.19652,-0.293798 -0.18881,-0.298661 -0.18104,-0.303443 -2.40086,1.39057 -0.23477,0.101348 -0.24749,0.07907 -0.25584,0.064 -0.26275,0.0511 -0.26871,0.03948 -0.27403,0.02876 -0.27883,0.01841 -0.2832,0.0085 -0.28728,-0.001 -0.29107,-0.01052 -0.29441,-0.01971 -0.2977,-0.02882 -0.30054,-0.03801 -0.30336,-0.04683 -0.30567,-0.05579 -0.30805,-0.06469 -0.31002,-0.07352 -0.31193,-0.08226 -0.31345,-0.09117 -0.15402,-0.383143 -0.14648,-0.386028 -0.13901,-0.388855 -0.13137,-0.39144 -0.12376,-0.393884 -0.11608,-0.396248 -0.10842,-0.398472 -0.10067,-0.400395 0.20002,-0.258053 0.20396,-0.249912 0.20767,-0.241735 0.21115,-0.233381 0.2146,-0.224888 0.21778,-0.216079 0.22086,-0.207431 0.22391,-0.198283 0.22654,-0.189062 0.22925,-0.179541 0.23184,-0.169679 0.2342,-0.159643 0.23636,-0.148989 0.23854,-0.137834 0.24061,-0.125982 0.24264,-0.113129 0.24457,-0.09858 0.24672,-0.08148 0.2495,-0.05606 2.75966,-0.286135 -0.032,-0.351926 -0.0227,-0.352605 -0.0137,-0.353189 -0.005,-0.353251 0.005,-0.353372 0.0138,-0.353131 0.0228,-0.352635 0.0319,-0.351976 -2.75974,-0.286112 -0.24949,-0.05605 -0.24664,-0.08137 -0.24461,-0.09866 -0.24261,-0.113096 -0.24063,-0.126028 -0.23856,-0.137798 -0.23642,-0.148986 -0.23411,-0.159573 -0.23177,-0.169798 -0.2293,-0.179502 -0.22657,-0.189022 -0.22382,-0.19832 -0.22096,-0.207319 -0.21782,-0.216272 -0.21453,-0.224843 -0.21118,-0.233333 -0.20764,-0.24172 -0.20396,-0.249945 -0.20005,-0.257987 0.10065,-0.400438 0.10842,-0.39842 0.11609,-0.396203 0.12376,-0.393987 0.13143,-0.39141 0.13898,-0.388854 0.14648,-0.386021 0.15398,-0.383187 0.31353,-0.09109 0.31187,-0.08234 0.30997,-0.07354 0.30806,-0.06461 0.3058,-0.0558 0.30325,-0.0469 0.30061,-0.03794 0.29759,-0.02883 0.29452,-0.01979 0.29103,-0.01046 0.28725,-10e-4 0.28316,0.0085 0.27893,0.01848 0.27396,0.02864 0.26873,0.03948 0.26273,0.05113 0.25584,0.06393 0.24749,0.07915 0.23481,0.101337 2.4008,1.390629 0.18109,-0.303506 0.18878,-0.298708 0.1965,-0.293691 0.20392,-0.288577 0.21145,-0.283163 0.21866,-0.277652 0.22569,-0.271885 0.23263,-0.265919 -2.06438,-1.853595 -0.16891,-0.191986 -0.15173,-0.210888 -0.13984,-0.223609 -0.1298,-0.234118 -0.12068,-0.24334 -0.11197,-0.251769 -0.10368,-0.259404 -0.0956,-0.266781 -0.0877,-0.273564 -0.08,-0.280067 -0.0722,-0.28607 -0.0645,-0.292072 -0.0568,-0.297518 -0.0492,-0.302961 -0.0413,-0.308023 -0.0338,-0.312909 -0.0258,-0.317588 -0.0181,-0.322033 -0.0102,-0.326352 0.31672,-0.264842 0.32196,-0.258642 0.32683,-0.252287 0.33169,-0.245933 0.3364,-0.23946 0.34093,-0.232871 0.34548,-0.226281 0.34975,-0.219375 0.30724,0.110517 0.30066,0.116778 0.29407,0.122679 0.28716,0.128814 0.28017,0.134509 0.27294,0.14038 0.26539,0.145986 0.25785,0.151592 0.24974,0.15711 0.24164,0.162627 0.23306,0.167998 0.22419,0.173324 0.21467,0.178759 0.20485,0.184292 0.19414,0.189969 0.18255,0.195794 0.16945,0.202096 0.15367,0.209477 0.1304,0.219965 1.12495,2.536131 0.32478,-0.139065 0.32833,-0.13063 0.33163,-0.122159 0.33464,-0.113593 0.33747,-0.104769 0.34004,-0.09613 0.34242,-0.08723 0.34461,-0.07844 -0.58067,-2.713028 -0.0238,-0.254631 10e-4,-0.259832 0.0183,-0.263073 0.0326,-0.265676 0.0455,-0.267781 0.0574,-0.269399 0.0686,-0.270989 0.0794,-0.271926 0.0898,-0.272868 0.0999,-0.273556 0.10983,-0.273984 0.11938,-0.274119 0.12898,-0.274173 0.13831,-0.273912 0.14757,-0.273591 0.15665,-0.273013 0.16572,-0.272076 0.17468,-0.271159 0.18352,-0.270045 0.41202,-0.02803 0.41239,-0.02002 0.41277,-0.01201 0.41287,-0.0041 0.41294,0.004 0.41269,0.01203 0.41242,0.02 0.41194,0.02802 0.18355,0.269978 0.17468,0.271223 0.16573,0.272168 0.15665,0.272949 0.14754,0.273512 0.13838,0.273992 0.12889,0.274209 0.11945,0.274145 0.10976,0.273898 0.0999,0.273547 0.0899,0.272896 0.0794,0.271957 0.0686,0.270894 0.0573,0.269461 0.0455,0.267802 0.0326,0.265685 0.0182,0.263127 10e-4,0.259708 -0.0238,0.254608 -0.5807,2.713077 0.34461,0.07842 0.34242,0.08731 0.3401,0.09603 0.33749,0.104856 0.33453,0.113552 0.33166,0.122189 0.32834,0.13054 0.32482,0.139148 1.12492,-2.536174 0.13041,-0.219966 0.15374,-0.20947 0.16933,-0.202132 0.18257,-0.195811 0.19417,-0.189894 0.2048,-0.184272 0.21474,-0.178761 0.2242,-0.173396 0.23301,-0.168061 0.2416,-0.162551 0.24981,-0.157026 0.25778,-0.151684 0.26552,-0.145945 0.2728,-0.140355 0.2802,-0.134601 0.28721,-0.128695 0.29408,-0.122809 0.3007,-0.116748 0.30724,-0.110489 0.34968,0.219475 0.34547,0.22625 0.34098,0.232844 0.33637,0.239414 0.33168,0.245904 0.32687,0.252372 0.32187,0.258596 0.31679,0.26488 -0.0102,0.326284 -0.0181,0.322081 -0.0259,0.317564 -0.0337,0.312965 -0.0414,0.307947 -0.0492,0.302988 -0.0567,0.297573 -0.0646,0.292033 -0.0722,0.286096 -0.0799,0.280079 -0.0878,0.273539 -0.0956,0.266719 -0.10367,0.259496 -0.11204,0.251729 -0.12058,0.243357 -0.12979,0.234096 -0.13993,0.223542 -0.15168,0.210941 -0.16894,0.191958 -2.06442,1.853651 0.23265,0.265943 0.2257,0.271858 0.21869,0.277692 0.21139,0.283122 0.20394,0.288529 0.19652,0.293798 0.18881,0.298661 0.18103,0.303443 2.40087,-1.39057 0.23477,-0.101348 0.24749,-0.07907 0.25584,-0.064 0.26274,-0.0511 0.26871,-0.03949 0.27403,-0.02876 0.27883,-0.01841 0.2832,-0.0085 0.28728,10e-4 0.29108,0.01052 0.29441,0.01971 0.2977,0.02882 0.30053,0.03801 0.30337,0.04683 0.30567,0.05579 0.30805,0.06468 0.31002,0.07352 0.31193,0.08226 0.31345,0.09117 0.15402,0.383143 0.14648,0.386028 0.13901,0.388855 0.13137,0.39144 0.12375,0.393884 0.11608,0.396248 0.10843,0.398472 0.10067,0.400395 -0.20002,0.258053 -0.20396,0.249912 -0.20767,0.241735 -0.21115,0.233381 -0.2146,0.224888 -0.21779,0.216079 -0.22085,0.207431 -0.22392,0.198283 -0.22653,0.189063 -0.22926,0.17954 -0.23184,0.169679 -0.23419,0.159643 -0.23637,0.148989 -0.23854,0.137834 -0.2406,0.125982 -0.24264,0.113129 -0.24457,0.09858 -0.24672,0.08148 -0.2495,0.05606 -2.75967,0.286136 0.032,0.351925 0.0227,0.352605 0.0137,0.353189 0.005,0.353251 -0.005,0.353372 -0.0138,0.353131 -0.0228,0.352635 -0.0319,0.351976 2.75973,0.286112 0.2495,0.05605 0.24663,0.08137 0.24461,0.09866 0.24261,0.113096 0.24064,0.126028 0.23855,0.137798 0.23643,0.148986 0.2341,0.159573 0.23177,0.169798 0.2293,0.179502 0.22658,0.189022 0.22382,0.198321 0.22095,0.207318 0.21783,0.216272 0.21453,0.224843 0.21118,0.233333 0.20763,0.24172 0.20397,0.249945 0.20005,0.257987 -0.10065,0.400438 -0.10843,0.39842 -0.11608,0.396203 -0.12376,0.393987 -0.13144,0.39141 -0.13898,0.388854 -0.14647,0.386021 -0.15398,0.383187 -0.31354,0.09109 -0.31186,0.08234 -0.30998,0.07354 -0.30805,0.06461 -0.30581,0.0558 -0.30324,0.0469 -0.30061,0.03794 -0.29759,0.02882 -0.29452,0.01979 -0.29103,0.01046 -0.28725,10e-4 -0.28316,-0.0085 -0.27894,-0.01848 -0.27395,-0.02864 -0.26873,-0.03948 -0.26274,-0.05114 -0.25584,-0.06393 -0.24748,-0.07915 -0.23481,-0.101336 -2.40081,-1.39063 -0.18109,0.303506 -0.18877,0.298708 -0.1965,0.293691 -0.20393,0.288577 -0.21144,0.283163 -0.21866,0.277652 -0.2257,0.271885 -0.23262,0.265919 z m -14.67043,-9.22977 a 3,3 0 0 0 4.8541,-3.526712 3,3 0 0 0 -4.8541,3.526712" />
    <path
       inkscape:connector-curvature="0"
       id="path1098"
       inkscape:label="Center cross"
       style="fill:none;stroke:#000000;stroke-width:0.1;stroke-miterlimit:4;stroke-dasharray:none;stroke-opacity:1"
       d="m 157.661,33.780631 4.67801,6.438724 m 0.88036,-5.558366 -6.43873,4.678008" />
    <circle
       id="circle1100"
       inkscape:label="Pitch circle"
       style="fill:none;stroke:#000000;stroke-width:0.1;stroke-miterlimit:4;stroke-dasharray:none;stroke-opacity:1"
       r="19"
       cy="-107.69467"
       cx="123.97926"
       transform="rotate(54)" />
    <circle
       style="fill:none;fill-opacity:1;stroke:#0000ff;stroke-width:0.1;stroke-linecap:round;stroke-linejoin:round;stroke-miterlimit:4;stroke-dasharray:none;stroke-opacity:1"
       id="path1167"
       cx="160"
       cy="36.999989"
       r="21.282602" />
  </g>
  <g
     id="g1339"
     inkscape:label="Gear12"
     transform="translate(118.19997,-23.000008)"
     info="N:12; Pitch:11.9380519336; Pressure Angle: 30.0"
     style="fill:none;stroke:#000000;stroke-width:0.1;stroke-miterlimit:4;stroke-dasharray:none;stroke-opacity:1">
    <path
       id="path1333"
       style="fill:none;stroke:#000000;stroke-width:0.1;stroke-miterlimit:4;stroke-dasharray:none;stroke-opacity:1"
       d="m 20.1978,-3.6222 0.4159,0.0556 0.4197,0.0828 0.4225,0.1072 0.4246,0.1301 0.4259,0.1518 0.4266,0.1726 0.4267,0.1929 0.4264,0.2126 0.4255,0.2319 0.4239,0.251 0.422,0.2696 0.4194,0.2881 0.4165,0.3063 0.4129,0.3243 0.4089,0.3421 0.4044,0.3598 0.3994,0.3772 0.3939,0.3945 0.3879,0.4117 L 28.1092,0.78 28.1152,0.52 28.1188,0.26 28.12,0 l -0.0012,-0.26 -0.0036,-0.26 -0.006,-0.26 -0.0084,-0.2599 -0.3879,0.4117 -0.3939,0.3945 -0.3994,0.3772 -0.4044,0.3598 -0.4089,0.3421 -0.4129,0.3243 -0.4165,0.3063 -0.4194,0.2881 -0.422,0.2696 -0.4239,0.251 -0.4255,0.2319 -0.4264,0.2126 -0.4267,0.1929 -0.4266,0.1726 -0.4259,0.1518 -0.4246,0.1301 -0.4225,0.1072 -0.4197,0.0828 -0.4159,0.0556 -0.0809,0.4251 -0.0898,0.4233 -0.0987,0.4213 -0.1076,0.4191 -0.1164,0.4167 -0.1251,0.4142 -0.1339,0.4115 -0.1425,0.4086 0.3324,0.2561 0.3221,0.2815 0.3123,0.3042 0.3026,0.3249 0.2929,0.3444 0.2832,0.3628 0.2731,0.3804 0.263,0.3973 0.2524,0.4136 0.2417,0.4293 0.2307,0.4445 0.2192,0.4592 0.2075,0.4735 0.1954,0.4873 0.1831,0.5008 0.1703,0.5137 0.1573,0.5264 0.1438,0.5386 0.1302,0.5504 0.1372,-0.2208 0.1352,-0.2222 0.1331,-0.2233 0.131,-0.2246 0.129,-0.2258 0.1269,-0.2269 0.1247,-0.2282 0.1227,-0.2293 -0.5417,0.1626 -0.5384,0.1447 -0.5345,0.127 -0.5301,0.1094 -0.5252,0.0918 -0.5197,0.0744 -0.5139,0.0571 -0.5073,0.0397 -0.5002,0.0225 -0.4926,0.0054 -0.4844,-0.0119 -0.4756,-0.0291 -0.466,-0.0463 -0.4558,-0.0638 -0.4447,-0.0815 -0.4327,-0.0996 -0.4195,-0.1184 -0.4049,-0.1382 -0.388,-0.1598 -0.2826,0.3277 -0.2894,0.3217 -0.2961,0.3155 -0.3028,0.3091 -0.3091,0.3028 -0.3155,0.2961 -0.3217,0.2894 -0.3277,0.2826 0.1598,0.388 0.1382,0.4049 0.1184,0.4195 0.0996,0.4327 0.0815,0.4447 0.0638,0.4558 0.0463,0.466 0.0291,0.4756 0.0119,0.4844 -0.0054,0.4926 -0.0225,0.5002 -0.0397,0.5073 -0.0571,0.5139 -0.0744,0.5197 -0.0918,0.5252 -0.1094,0.5301 -0.127,0.5345 -0.1447,0.5384 -0.1626,0.5417 0.2293,-0.1227 0.2282,-0.1247 0.2269,-0.1269 0.2258,-0.129 0.2246,-0.131 0.2233,-0.1331 0.2222,-0.1352 0.2208,-0.1372 L 14.4005,23.6859 13.8619,23.5421 13.3355,23.3848 12.8218,23.2145 12.321,23.0314 11.8337,22.836 11.3602,22.6285 10.901,22.4093 10.4565,22.1786 10.0272,21.9369 9.6136,21.6845 9.2163,21.4215 8.8359,21.1484 8.4731,20.8652 8.1287,20.5723 7.8038,20.2697 7.4996,19.9574 7.2181,19.6353 6.962,19.3029 6.5534,19.4454 6.1419,19.5793 5.7277,19.7044 5.311,19.8208 4.8919,19.9284 4.4706,20.0271 4.0473,20.1169 3.6222,20.1978 3.5666,20.6137 3.4838,21.0334 3.3766,21.4559 3.2465,21.8805 3.0947,22.3064 2.9221,22.733 l -0.1929,0.4267 -0.2126,0.4264 -0.2319,0.4255 -0.251,0.4239 -0.2696,0.422 -0.2881,0.4194 -0.3063,0.4165 -0.3243,0.4129 -0.3421,0.4089 -0.3598,0.4044 -0.3772,0.3994 -0.3945,0.3939 -0.4117,0.3879 0.2599,0.0084 0.26,0.006 0.26,0.0036 L 0,28.12 0.26,28.1188 0.52,28.1152 0.78,28.1092 1.0399,28.1008 0.6282,27.7129 0.2337,27.319 -0.1435,26.9196 -0.5033,26.5152 -0.8454,26.1063 -1.1697,25.6934 -1.476,25.2769 -1.7641,24.8575 -2.0337,24.4355 -2.2847,24.0116 -2.5166,23.5861 -2.7292,23.1597 -2.9221,22.733 -3.0947,22.3064 -3.2465,21.8805 -3.3766,21.4559 -3.4838,21.0334 -3.5666,20.6137 -3.6222,20.1978 -4.0473,20.1169 -4.4706,20.0271 -4.8919,19.9284 -5.311,19.8208 -5.7277,19.7044 -6.1419,19.5793 -6.5534,19.4454 -6.962,19.3029 l -0.2561,0.3324 -0.2815,0.3221 -0.3042,0.3123 -0.3249,0.3026 -0.3444,0.2929 -0.3628,0.2832 -0.3804,0.2731 -0.3973,0.263 -0.4136,0.2524 -0.4293,0.2417 -0.4445,0.2307 -0.4592,0.2192 -0.4735,0.2075 -0.4873,0.1954 -0.5008,0.1831 -0.5137,0.1703 -0.5264,0.1573 -0.5386,0.1438 -0.5504,0.1302 0.2208,0.1372 0.2222,0.1352 0.2233,0.1331 0.2246,0.131 0.2258,0.129 0.2269,0.1269 0.2282,0.1247 0.2293,0.1227 -0.1626,-0.5417 -0.1447,-0.5384 -0.127,-0.5345 -0.1094,-0.5301 -0.0918,-0.5252 -0.0744,-0.5197 -0.0571,-0.5139 -0.0397,-0.5073 -0.0225,-0.5002 -0.0054,-0.4926 0.0119,-0.4844 0.0291,-0.4756 0.0463,-0.466 0.0638,-0.4558 0.0815,-0.4447 0.0996,-0.4327 0.1184,-0.4195 0.1382,-0.4049 0.1598,-0.388 -0.3277,-0.2826 -0.3217,-0.2894 -0.3155,-0.2961 -0.3091,-0.3028 -0.3028,-0.3091 -0.2961,-0.3155 -0.2894,-0.3217 -0.2826,-0.3277 -0.388,0.1598 -0.4049,0.1382 -0.4195,0.1184 -0.4327,0.0996 -0.4447,0.0815 -0.4558,0.0638 -0.466,0.0463 -0.4756,0.0291 -0.4844,0.0119 -0.4926,-0.0054 -0.5002,-0.0225 -0.5073,-0.0397 -0.5139,-0.0571 -0.5197,-0.0744 -0.5252,-0.0918 -0.5301,-0.1094 -0.5345,-0.127 -0.5384,-0.1447 -0.5417,-0.1626 0.1227,0.2293 0.1247,0.2282 0.1269,0.2269 0.129,0.2258 0.131,0.2246 0.1331,0.2233 0.1352,0.2222 0.1372,0.2208 0.1302,-0.5504 0.1438,-0.5386 0.1573,-0.5264 0.1703,-0.5137 0.1831,-0.5008 0.1954,-0.4873 0.2075,-0.4735 0.2192,-0.4592 0.2307,-0.4445 0.2417,-0.4293 0.2524,-0.4136 0.263,-0.3973 0.2731,-0.3804 0.2832,-0.3628 0.2929,-0.3444 0.3026,-0.3249 0.3123,-0.3042 0.3221,-0.2815 0.3324,-0.2561 -0.1425,-0.4086 -0.1339,-0.4115 -0.1251,-0.4142 -0.1164,-0.4167 -0.1076,-0.4191 -0.0987,-0.4213 -0.0898,-0.4233 -0.0809,-0.4251 -0.4159,-0.0556 -0.4197,-0.0828 -0.4225,-0.1072 -0.4246,-0.1301 -0.4259,-0.1518 -0.4266,-0.1726 -0.4267,-0.1929 -0.4264,-0.2126 -0.4255,-0.2319 -0.4239,-0.251 -0.422,-0.2696 -0.4194,-0.2881 -0.4165,-0.3063 -0.4129,-0.3243 -0.4089,-0.3421 -0.4044,-0.3598 -0.3994,-0.3772 -0.3939,-0.3945 -0.3879,-0.4117 -0.0084,0.2599 -0.006,0.26 -0.0036,0.26 -0.0012,0.26 0.0012,0.26 0.0036,0.26 0.006,0.26 0.0084,0.2599 0.3879,-0.4117 0.3939,-0.3945 0.3994,-0.3772 0.4044,-0.3598 0.4089,-0.3421 0.4129,-0.3243 0.4165,-0.3063 0.4194,-0.2881 0.422,-0.2696 0.4239,-0.251 0.4255,-0.2319 0.4264,-0.2126 0.4267,-0.1929 0.4266,-0.1726 0.4259,-0.1518 0.4246,-0.1301 0.4225,-0.1072 0.4197,-0.0828 0.4159,-0.0556 0.0809,-0.4251 0.0898,-0.4233 0.0987,-0.4213 0.1076,-0.4191 0.1164,-0.4167 0.1251,-0.4142 0.1339,-0.4115 0.1425,-0.4086 -0.3324,-0.2561 -0.3221,-0.2815 -0.3123,-0.3042 -0.3026,-0.3249 -0.2929,-0.3444 -0.2832,-0.3628 -0.2731,-0.3804 -0.263,-0.3973 -0.2524,-0.4136 -0.2417,-0.4293 -0.2307,-0.4445 -0.2192,-0.4592 -0.2075,-0.4735 -0.1954,-0.4873 -0.1831,-0.5008 -0.1703,-0.5137 -0.1573,-0.5264 -0.1438,-0.5386 -0.1302,-0.5504 -0.1372,0.2208 -0.1352,0.2222 -0.1331,0.2233 -0.131,0.2246 -0.129,0.2258 -0.1269,0.2269 -0.1247,0.2282 -0.1227,0.2293 0.5417,-0.1626 0.5384,-0.1447 0.5345,-0.127 0.5301,-0.1094 0.5252,-0.0918 0.5197,-0.0744 0.5139,-0.0571 0.5073,-0.0397 0.5002,-0.0225 0.4926,-0.0054 0.4844,0.0119 0.4756,0.0291 0.466,0.0463 0.4558,0.0638 0.4447,0.0815 0.4327,0.0996 0.4195,0.1184 0.4049,0.1382 0.388,0.1598 0.2826,-0.3277 0.2894,-0.3217 0.2961,-0.3155 0.3028,-0.3091 0.3091,-0.3028 0.3155,-0.2961 0.3217,-0.2894 0.3277,-0.2826 -0.1598,-0.388 -0.1382,-0.4049 -0.1184,-0.4195 -0.0996,-0.4327 -0.0815,-0.4447 -0.0638,-0.4558 -0.0463,-0.466 -0.0291,-0.4756 -0.0119,-0.4844 0.0054,-0.4926 0.0225,-0.5002 0.0397,-0.5073 0.0571,-0.5139 0.0744,-0.5197 0.0918,-0.5252 0.1094,-0.5301 0.127,-0.5345 0.1447,-0.5384 0.1626,-0.5417 -0.2293,0.1227 -0.2282,0.1247 -0.2269,0.1269 -0.2258,0.129 -0.2246,0.131 -0.2233,0.1331 -0.2222,0.1352 -0.2208,0.1372 0.5504,0.1302 0.5386,0.1438 0.5264,0.1573 0.5137,0.1703 0.5008,0.1831 0.4873,0.1954 0.4735,0.2075 0.4592,0.2192 0.4445,0.2307 0.4293,0.2417 0.4136,0.2524 0.3973,0.263 0.3804,0.2731 0.3628,0.2832 0.3444,0.2929 0.3249,0.3026 0.3042,0.3123 0.2815,0.3221 0.2561,0.3324 0.4086,-0.1425 0.4115,-0.1339 0.4142,-0.1251 0.4167,-0.1164 0.4191,-0.1076 0.4213,-0.0987 0.4233,-0.0898 0.4251,-0.0809 0.0556,-0.4159 0.0828,-0.4197 0.1072,-0.4225 0.1301,-0.4246 0.1518,-0.4259 0.1726,-0.4266 0.1929,-0.4267 0.2126,-0.4264 0.2319,-0.4255 0.251,-0.4239 0.2696,-0.422 0.2881,-0.4194 0.3063,-0.4165 0.3243,-0.4129 0.3421,-0.4089 0.3598,-0.4044 0.3772,-0.3994 0.3945,-0.3939 0.4117,-0.3879 L 0.78,-28.1092 0.52,-28.1152 0.26,-28.1188 0,-28.12 l -0.26,0.0012 -0.26,0.0036 -0.26,0.006 -0.2599,0.0084 0.4117,0.3879 0.3945,0.3939 0.3772,0.3994 0.3598,0.4044 0.3421,0.4089 0.3243,0.4129 0.3063,0.4165 0.2881,0.4194 0.2696,0.422 0.251,0.4239 0.2319,0.4255 0.2126,0.4264 0.1929,0.4267 0.1726,0.4266 0.1518,0.4259 0.1301,0.4246 0.1072,0.4225 0.0828,0.4197 0.0556,0.4159 0.4251,0.0809 0.4233,0.0898 0.4213,0.0987 0.4191,0.1076 0.4167,0.1164 0.4142,0.1251 0.4115,0.1339 0.4086,0.1425 0.2561,-0.3324 0.2815,-0.3221 0.3042,-0.3123 0.3249,-0.3026 0.3444,-0.2929 0.3628,-0.2832 0.3804,-0.2731 0.3973,-0.263 0.4136,-0.2524 0.4293,-0.2417 0.4445,-0.2307 0.4592,-0.2192 0.4735,-0.2075 0.4873,-0.1954 0.5008,-0.1831 0.5137,-0.1703 0.5264,-0.1573 0.5386,-0.1438 0.5504,-0.1302 -0.2208,-0.1372 -0.2222,-0.1352 -0.2233,-0.1331 -0.2246,-0.131 -0.2258,-0.129 -0.2269,-0.1269 -0.2282,-0.1247 -0.2293,-0.1227 0.1626,0.5417 0.1447,0.5384 0.127,0.5345 0.1094,0.5301 0.0918,0.5252 0.0744,0.5197 0.0571,0.5139 0.0397,0.5073 0.0225,0.5002 0.0054,0.4926 -0.0119,0.4844 -0.0291,0.4756 -0.0463,0.466 -0.0638,0.4558 -0.0815,0.4447 -0.0996,0.4327 -0.1184,0.4195 -0.1382,0.4049 -0.1598,0.388 0.3277,0.2826 0.3217,0.2894 0.3155,0.2961 0.3091,0.3028 0.3028,0.3091 0.2961,0.3155 0.2894,0.3217 0.2826,0.3277 0.388,-0.1598 0.4049,-0.1382 0.4195,-0.1184 0.4327,-0.0996 0.4447,-0.0815 0.4558,-0.0638 0.466,-0.0463 0.4756,-0.0291 0.4844,-0.0119 0.4926,0.0054 0.5002,0.0225 0.5073,0.0397 0.5139,0.0571 0.5197,0.0744 0.5252,0.0918 0.5301,0.1094 0.5345,0.127 0.5384,0.1447 0.5417,0.1626 -0.1227,-0.2293 -0.1247,-0.2282 -0.1269,-0.2269 -0.129,-0.2258 -0.131,-0.2246 -0.1331,-0.2233 -0.1352,-0.2222 -0.1372,-0.2208 -0.1302,0.5504 -0.1438,0.5386 -0.1573,0.5264 -0.1703,0.5137 -0.1831,0.5008 -0.1954,0.4873 -0.2075,0.4735 -0.2192,0.4592 -0.2307,0.4445 -0.2417,0.4293 -0.2524,0.4136 -0.263,0.3973 -0.2731,0.3804 -0.2832,0.3628 -0.2929,0.3444 -0.3026,0.3249 -0.3123,0.3042 -0.3221,0.2815 -0.3324,0.2561 0.1425,0.4086 0.1339,0.4115 0.1251,0.4142 0.1164,0.4167 0.1076,0.4191 0.0987,0.4213 0.0898,0.4233 z M 0,3 a 3,3 0 0 0 0,-6 3,3 0 0 0 0,6"
       inkscape:connector-curvature="0" />
    <path
       id="path1335"
       inkscape:label="Center cross"
       style="fill:none;stroke:#000000;stroke-width:0.1;stroke-miterlimit:4;stroke-dasharray:none;stroke-opacity:1"
       d="M -3.9793506,0 H 3.9793506 M 0,-3.9793506 v 7.9587012"
       inkscape:connector-curvature="0" />
    <circle
       id="circle1337"
       inkscape:label="Pitch circle"
       style="fill:none;stroke:#000000;stroke-width:0.1;stroke-miterlimit:4;stroke-dasharray:none;stroke-opacity:1"
       r="22.799999"
       cy="0"
       cx="0" />
  </g>
  <g
     style="fill:none;stroke:#00ff00;stroke-width:0.1;stroke-miterlimit:4;stroke-dasharray:none;stroke-opacity:1"
     info="N:12; Pitch:11.9380519336; Pressure Angle: 30.0"
     transform="rotate(18,131.70816,361.64262)"
     inkscape:label="Gear12"
     id="g1347">
    <path
       inkscape:connector-curvature="0"
       d="m 20.1978,-3.6222 0.4159,0.0556 0.4197,0.0828 0.4225,0.1072 0.4246,0.1301 0.4259,0.1518 0.4266,0.1726 0.4267,0.1929 0.4264,0.2126 0.4255,0.2319 0.4239,0.251 0.422,0.2696 0.4194,0.2881 0.4165,0.3063 0.4129,0.3243 0.4089,0.3421 0.4044,0.3598 0.3994,0.3772 0.3939,0.3945 0.3879,0.4117 L 28.1092,0.78 28.1152,0.52 28.1188,0.26 28.12,0 l -0.0012,-0.26 -0.0036,-0.26 -0.006,-0.26 -0.0084,-0.2599 -0.3879,0.4117 -0.3939,0.3945 -0.3994,0.3772 -0.4044,0.3598 -0.4089,0.3421 -0.4129,0.3243 -0.4165,0.3063 -0.4194,0.2881 -0.422,0.2696 -0.4239,0.251 -0.4255,0.2319 -0.4264,0.2126 -0.4267,0.1929 -0.4266,0.1726 -0.4259,0.1518 -0.4246,0.1301 -0.4225,0.1072 -0.4197,0.0828 -0.4159,0.0556 -0.0809,0.4251 -0.0898,0.4233 -0.0987,0.4213 -0.1076,0.4191 -0.1164,0.4167 -0.1251,0.4142 -0.1339,0.4115 -0.1425,0.4086 0.3324,0.2561 0.3221,0.2815 0.3123,0.3042 0.3026,0.3249 0.2929,0.3444 0.2832,0.3628 0.2731,0.3804 0.263,0.3973 0.2524,0.4136 0.2417,0.4293 0.2307,0.4445 0.2192,0.4592 0.2075,0.4735 0.1954,0.4873 0.1831,0.5008 0.1703,0.5137 0.1573,0.5264 0.1438,0.5386 0.1302,0.5504 0.1372,-0.2208 0.1352,-0.2222 0.1331,-0.2233 0.131,-0.2246 0.129,-0.2258 0.1269,-0.2269 0.1247,-0.2282 0.1227,-0.2293 -0.5417,0.1626 -0.5384,0.1447 -0.5345,0.127 -0.5301,0.1094 -0.5252,0.0918 -0.5197,0.0744 -0.5139,0.0571 -0.5073,0.0397 -0.5002,0.0225 -0.4926,0.0054 -0.4844,-0.0119 -0.4756,-0.0291 -0.466,-0.0463 -0.4558,-0.0638 -0.4447,-0.0815 -0.4327,-0.0996 -0.4195,-0.1184 -0.4049,-0.1382 -0.388,-0.1598 -0.2826,0.3277 -0.2894,0.3217 -0.2961,0.3155 -0.3028,0.3091 -0.3091,0.3028 -0.3155,0.2961 -0.3217,0.2894 -0.3277,0.2826 0.1598,0.388 0.1382,0.4049 0.1184,0.4195 0.0996,0.4327 0.0815,0.4447 0.0638,0.4558 0.0463,0.466 0.0291,0.4756 0.0119,0.4844 -0.0054,0.4926 -0.0225,0.5002 -0.0397,0.5073 -0.0571,0.5139 -0.0744,0.5197 -0.0918,0.5252 -0.1094,0.5301 -0.127,0.5345 -0.1447,0.5384 -0.1626,0.5417 0.2293,-0.1227 0.2282,-0.1247 0.2269,-0.1269 0.2258,-0.129 0.2246,-0.131 0.2233,-0.1331 0.2222,-0.1352 0.2208,-0.1372 L 14.4005,23.6859 13.8619,23.5421 13.3355,23.3848 12.8218,23.2145 12.321,23.0314 11.8337,22.836 11.3602,22.6285 10.901,22.4093 10.4565,22.1786 10.0272,21.9369 9.6136,21.6845 9.2163,21.4215 8.8359,21.1484 8.4731,20.8652 8.1287,20.5723 7.8038,20.2697 7.4996,19.9574 7.2181,19.6353 6.962,19.3029 6.5534,19.4454 6.1419,19.5793 5.7277,19.7044 5.311,19.8208 4.8919,19.9284 4.4706,20.0271 4.0473,20.1169 3.6222,20.1978 3.5666,20.6137 3.4838,21.0334 3.3766,21.4559 3.2465,21.8805 3.0947,22.3064 2.9221,22.733 l -0.1929,0.4267 -0.2126,0.4264 -0.2319,0.4255 -0.251,0.4239 -0.2696,0.422 -0.2881,0.4194 -0.3063,0.4165 -0.3243,0.4129 -0.3421,0.4089 -0.3598,0.4044 -0.3772,0.3994 -0.3945,0.3939 -0.4117,0.3879 0.2599,0.0084 0.26,0.006 0.26,0.0036 L 0,28.12 0.26,28.1188 0.52,28.1152 0.78,28.1092 1.0399,28.1008 0.6282,27.7129 0.2337,27.319 -0.1435,26.9196 -0.5033,26.5152 -0.8454,26.1063 -1.1697,25.6934 -1.476,25.2769 -1.7641,24.8575 -2.0337,24.4355 -2.2847,24.0116 -2.5166,23.5861 -2.7292,23.1597 -2.9221,22.733 -3.0947,22.3064 -3.2465,21.8805 -3.3766,21.4559 -3.4838,21.0334 -3.5666,20.6137 -3.6222,20.1978 -4.0473,20.1169 -4.4706,20.0271 -4.8919,19.9284 -5.311,19.8208 -5.7277,19.7044 -6.1419,19.5793 -6.5534,19.4454 -6.962,19.3029 l -0.2561,0.3324 -0.2815,0.3221 -0.3042,0.3123 -0.3249,0.3026 -0.3444,0.2929 -0.3628,0.2832 -0.3804,0.2731 -0.3973,0.263 -0.4136,0.2524 -0.4293,0.2417 -0.4445,0.2307 -0.4592,0.2192 -0.4735,0.2075 -0.4873,0.1954 -0.5008,0.1831 -0.5137,0.1703 -0.5264,0.1573 -0.5386,0.1438 -0.5504,0.1302 0.2208,0.1372 0.2222,0.1352 0.2233,0.1331 0.2246,0.131 0.2258,0.129 0.2269,0.1269 0.2282,0.1247 0.2293,0.1227 -0.1626,-0.5417 -0.1447,-0.5384 -0.127,-0.5345 -0.1094,-0.5301 -0.0918,-0.5252 -0.0744,-0.5197 -0.0571,-0.5139 -0.0397,-0.5073 -0.0225,-0.5002 -0.0054,-0.4926 0.0119,-0.4844 0.0291,-0.4756 0.0463,-0.466 0.0638,-0.4558 0.0815,-0.4447 0.0996,-0.4327 0.1184,-0.4195 0.1382,-0.4049 0.1598,-0.388 -0.3277,-0.2826 -0.3217,-0.2894 -0.3155,-0.2961 -0.3091,-0.3028 -0.3028,-0.3091 -0.2961,-0.3155 -0.2894,-0.3217 -0.2826,-0.3277 -0.388,0.1598 -0.4049,0.1382 -0.4195,0.1184 -0.4327,0.0996 -0.4447,0.0815 -0.4558,0.0638 -0.466,0.0463 -0.4756,0.0291 -0.4844,0.0119 -0.4926,-0.0054 -0.5002,-0.0225 -0.5073,-0.0397 -0.5139,-0.0571 -0.5197,-0.0744 -0.5252,-0.0918 -0.5301,-0.1094 -0.5345,-0.127 -0.5384,-0.1447 -0.5417,-0.1626 0.1227,0.2293 0.1247,0.2282 0.1269,0.2269 0.129,0.2258 0.131,0.2246 0.1331,0.2233 0.1352,0.2222 0.1372,0.2208 0.1302,-0.5504 0.1438,-0.5386 0.1573,-0.5264 0.1703,-0.5137 0.1831,-0.5008 0.1954,-0.4873 0.2075,-0.4735 0.2192,-0.4592 0.2307,-0.4445 0.2417,-0.4293 0.2524,-0.4136 0.263,-0.3973 0.2731,-0.3804 0.2832,-0.3628 0.2929,-0.3444 0.3026,-0.3249 0.3123,-0.3042 0.3221,-0.2815 0.3324,-0.2561 -0.1425,-0.4086 -0.1339,-0.4115 -0.1251,-0.4142 -0.1164,-0.4167 -0.1076,-0.4191 -0.0987,-0.4213 -0.0898,-0.4233 -0.0809,-0.4251 -0.4159,-0.0556 -0.4197,-0.0828 -0.4225,-0.1072 -0.4246,-0.1301 -0.4259,-0.1518 -0.4266,-0.1726 -0.4267,-0.1929 -0.4264,-0.2126 -0.4255,-0.2319 -0.4239,-0.251 -0.422,-0.2696 -0.4194,-0.2881 -0.4165,-0.3063 -0.4129,-0.3243 -0.4089,-0.3421 -0.4044,-0.3598 -0.3994,-0.3772 -0.3939,-0.3945 -0.3879,-0.4117 -0.0084,0.2599 -0.006,0.26 -0.0036,0.26 -0.0012,0.26 0.0012,0.26 0.0036,0.26 0.006,0.26 0.0084,0.2599 0.3879,-0.4117 0.3939,-0.3945 0.3994,-0.3772 0.4044,-0.3598 0.4089,-0.3421 0.4129,-0.3243 0.4165,-0.3063 0.4194,-0.2881 0.422,-0.2696 0.4239,-0.251 0.4255,-0.2319 0.4264,-0.2126 0.4267,-0.1929 0.4266,-0.1726 0.4259,-0.1518 0.4246,-0.1301 0.4225,-0.1072 0.4197,-0.0828 0.4159,-0.0556 0.0809,-0.4251 0.0898,-0.4233 0.0987,-0.4213 0.1076,-0.4191 0.1164,-0.4167 0.1251,-0.4142 0.1339,-0.4115 0.1425,-0.4086 -0.3324,-0.2561 -0.3221,-0.2815 -0.3123,-0.3042 -0.3026,-0.3249 -0.2929,-0.3444 -0.2832,-0.3628 -0.2731,-0.3804 -0.263,-0.3973 -0.2524,-0.4136 -0.2417,-0.4293 -0.2307,-0.4445 -0.2192,-0.4592 -0.2075,-0.4735 -0.1954,-0.4873 -0.1831,-0.5008 -0.1703,-0.5137 -0.1573,-0.5264 -0.1438,-0.5386 -0.1302,-0.5504 -0.1372,0.2208 -0.1352,0.2222 -0.1331,0.2233 -0.131,0.2246 -0.129,0.2258 -0.1269,0.2269 -0.1247,0.2282 -0.1227,0.2293 0.5417,-0.1626 0.5384,-0.1447 0.5345,-0.127 0.5301,-0.1094 0.5252,-0.0918 0.5197,-0.0744 0.5139,-0.0571 0.5073,-0.0397 0.5002,-0.0225 0.4926,-0.0054 0.4844,0.0119 0.4756,0.0291 0.466,0.0463 0.4558,0.0638 0.4447,0.0815 0.4327,0.0996 0.4195,0.1184 0.4049,0.1382 0.388,0.1598 0.2826,-0.3277 0.2894,-0.3217 0.2961,-0.3155 0.3028,-0.3091 0.3091,-0.3028 0.3155,-0.2961 0.3217,-0.2894 0.3277,-0.2826 -0.1598,-0.388 -0.1382,-0.4049 -0.1184,-0.4195 -0.0996,-0.4327 -0.0815,-0.4447 -0.0638,-0.4558 -0.0463,-0.466 -0.0291,-0.4756 -0.0119,-0.4844 0.0054,-0.4926 0.0225,-0.5002 0.0397,-0.5073 0.0571,-0.5139 0.0744,-0.5197 0.0918,-0.5252 0.1094,-0.5301 0.127,-0.5345 0.1447,-0.5384 0.1626,-0.5417 -0.2293,0.1227 -0.2282,0.1247 -0.2269,0.1269 -0.2258,0.129 -0.2246,0.131 -0.2233,0.1331 -0.2222,0.1352 -0.2208,0.1372 0.5504,0.1302 0.5386,0.1438 0.5264,0.1573 0.5137,0.1703 0.5008,0.1831 0.4873,0.1954 0.4735,0.2075 0.4592,0.2192 0.4445,0.2307 0.4293,0.2417 0.4136,0.2524 0.3973,0.263 0.3804,0.2731 0.3628,0.2832 0.3444,0.2929 0.3249,0.3026 0.3042,0.3123 0.2815,0.3221 0.2561,0.3324 0.4086,-0.1425 0.4115,-0.1339 0.4142,-0.1251 0.4167,-0.1164 0.4191,-0.1076 0.4213,-0.0987 0.4233,-0.0898 0.4251,-0.0809 0.0556,-0.4159 0.0828,-0.4197 0.1072,-0.4225 0.1301,-0.4246 0.1518,-0.4259 0.1726,-0.4266 0.1929,-0.4267 0.2126,-0.4264 0.2319,-0.4255 0.251,-0.4239 0.2696,-0.422 0.2881,-0.4194 0.3063,-0.4165 0.3243,-0.4129 0.3421,-0.4089 0.3598,-0.4044 0.3772,-0.3994 0.3945,-0.3939 0.4117,-0.3879 L 0.78,-28.1092 0.52,-28.1152 0.26,-28.1188 0,-28.12 l -0.26,0.0012 -0.26,0.0036 -0.26,0.006 -0.2599,0.0084 0.4117,0.3879 0.3945,0.3939 0.3772,0.3994 0.3598,0.4044 0.3421,0.4089 0.3243,0.4129 0.3063,0.4165 0.2881,0.4194 0.2696,0.422 0.251,0.4239 0.2319,0.4255 0.2126,0.4264 0.1929,0.4267 0.1726,0.4266 0.1518,0.4259 0.1301,0.4246 0.1072,0.4225 0.0828,0.4197 0.0556,0.4159 0.4251,0.0809 0.4233,0.0898 0.4213,0.0987 0.4191,0.1076 0.4167,0.1164 0.4142,0.1251 0.4115,0.1339 0.4086,0.1425 0.2561,-0.3324 0.2815,-0.3221 0.3042,-0.3123 0.3249,-0.3026 0.3444,-0.2929 0.3628,-0.2832 0.3804,-0.2731 0.3973,-0.263 0.4136,-0.2524 0.4293,-0.2417 0.4445,-0.2307 0.4592,-0.2192 0.4735,-0.2075 0.4873,-0.1954 0.5008,-0.1831 0.5137,-0.1703 0.5264,-0.1573 0.5386,-0.1438 0.5504,-0.1302 -0.2208,-0.1372 -0.2222,-0.1352 -0.2233,-0.1331 -0.2246,-0.131 -0.2258,-0.129 -0.2269,-0.1269 -0.2282,-0.1247 -0.2293,-0.1227 0.1626,0.5417 0.1447,0.5384 0.127,0.5345 0.1094,0.5301 0.0918,0.5252 0.0744,0.5197 0.0571,0.5139 0.0397,0.5073 0.0225,0.5002 0.0054,0.4926 -0.0119,0.4844 -0.0291,0.4756 -0.0463,0.466 -0.0638,0.4558 -0.0815,0.4447 -0.0996,0.4327 -0.1184,0.4195 -0.1382,0.4049 -0.1598,0.388 0.3277,0.2826 0.3217,0.2894 0.3155,0.2961 0.3091,0.3028 0.3028,0.3091 0.2961,0.3155 0.2894,0.3217 0.2826,0.3277 0.388,-0.1598 0.4049,-0.1382 0.4195,-0.1184 0.4327,-0.0996 0.4447,-0.0815 0.4558,-0.0638 0.466,-0.0463 0.4756,-0.0291 0.4844,-0.0119 0.4926,0.0054 0.5002,0.0225 0.5073,0.0397 0.5139,0.0571 0.5197,0.0744 0.5252,0.0918 0.5301,0.1094 0.5345,0.127 0.5384,0.1447 0.5417,0.1626 -0.1227,-0.2293 -0.1247,-0.2282 -0.1269,-0.2269 -0.129,-0.2258 -0.131,-0.2246 -0.1331,-0.2233 -0.1352,-0.2222 -0.1372,-0.2208 -0.1302,0.5504 -0.1438,0.5386 -0.1573,0.5264 -0.1703,0.5137 -0.1831,0.5008 -0.1954,0.4873 -0.2075,0.4735 -0.2192,0.4592 -0.2307,0.4445 -0.2417,0.4293 -0.2524,0.4136 -0.263,0.3973 -0.2731,0.3804 -0.2832,0.3628 -0.2929,0.3444 -0.3026,0.3249 -0.3123,0.3042 -0.3221,0.2815 -0.3324,0.2561 0.1425,0.4086 0.1339,0.4115 0.1251,0.4142 0.1164,0.4167 0.1076,0.4191 0.0987,0.4213 0.0898,0.4233 z M 0,3 a 3,3 0 0 0 0,-6 3,3 0 0 0 0,6"
       style="fill:none;stroke:#00ff00;stroke-width:0.1;stroke-miterlimit:4;stroke-dasharray:none;stroke-opacity:1"
       id="path1341" />
    <path
       inkscape:connector-curvature="0"
       d="M -3.9793506,0 H 3.9793506 M 0,-3.9793506 v 7.9587012"
       style="fill:none;stroke:#00ff00;stroke-width:0.1;stroke-miterlimit:4;stroke-dasharray:none;stroke-opacity:1"
       inkscape:label="Center cross"
       id="path1343" />
    <circle
       cx="0"
       cy="0"
       r="22.799999"
       style="fill:none;stroke:#00ff00;stroke-width:0.1;stroke-miterlimit:4;stroke-dasharray:none;stroke-opacity:1"
       inkscape:label="Pitch circle"
       id="circle1345" />
  </g>
  <g
     id="g1357"
     transform="rotate(180,159.63364,6.999989)">
    <path
       id="path1349"
       style="fill:none;stroke:#000000;stroke-width:0.1;stroke-miterlimit:4;stroke-dasharray:none"
       d="m 153.92461,40.162592 -0.2132,0.032 -0.2195,0.0092 -0.2235,-0.0067 -0.2268,-0.0199 -0.2294,-0.0321 -0.2316,-0.0433 -0.2333,-0.0541 -0.2349,-0.0644 -0.236,-0.0743 -0.237,-0.0842 -0.2376,-0.0938 -0.238,-0.1032 -0.2381,-0.1125 -0.238,-0.1218 -0.2377,-0.1308 -0.2371,-0.1399 -0.2362,-0.1489 -0.2352,-0.1577 -0.2339,-0.1666 -0.0383,-0.4114 -0.0274,-0.4123 -0.0164,-0.4128 -0.006,-0.4131 0.006,-0.4131 0.0164,-0.4128 0.0274,-0.4123 0.0383,-0.4114 0.2339,-0.1666 0.2352,-0.1577 0.2362,-0.1489 0.2371,-0.1399 0.2377,-0.1308 0.238,-0.1218 0.2381,-0.1125 0.238,-0.1032 0.2376,-0.0938 0.237,-0.0842 0.236,-0.0743 0.2349,-0.0644 0.2333,-0.0541 0.2316,-0.0433 0.2294,-0.0321 0.2268,-0.0199 0.2235,-0.0067 0.2195,0.0092 0.2132,0.032 3.4021,0.9715 0.1004,-0.3253 0.1143,-0.3207 0.1277,-0.3155 0.1412,-0.3098 0.1542,-0.3035 0.167,-0.2966 0.1795,-0.2892 0.1917,-0.2814 -2.8808,-2.0542 -0.1579,-0.1466 -0.144,-0.166 -0.1342,-0.1789 -0.1257,-0.1897 -0.118,-0.1994 -0.1105,-0.208 -0.1032,-0.2162 -0.0962,-0.2237 -0.089,-0.231 -0.0819,-0.2377 -0.0748,-0.2442 -0.0677,-0.2505 -0.0605,-0.2563 -0.0532,-0.262 -0.0459,-0.2674 -0.0384,-0.2726 -0.031,-0.2775 -0.0233,-0.2822 -0.0155,-0.2868 0.2977,-0.2864 0.3052,-0.2784 0.3126,-0.2703 0.3195,-0.2618 0.3264,-0.2533 0.333,-0.2446 0.3394,-0.2356 0.3455,-0.2265 0.2761,0.079 0.27,0.0855 0.2637,0.0919 0.2572,0.0981 0.2505,0.1042 0.2435,0.1102 0.2365,0.116 0.2291,0.1217 0.2214,0.1273 0.2136,0.1328 0.2053,0.1382 0.1967,0.1435 0.1878,0.1487 0.1783,0.1541 0.1681,0.1593 0.157,0.1648 0.1445,0.1707 0.1298,0.1773 0.1078,0.1866 1.3617,3.2656 0.3169,-0.1242 0.3219,-0.1107 0.3264,-0.0968 0.3302,-0.0828 0.3334,-0.0687 0.3361,-0.0543 0.338,-0.04 0.3395,-0.0256 -0.1901,-3.533 0.0162,-0.2149 0.0399,-0.216 0.0562,-0.2165 0.07,-0.2167 0.0823,-0.2165 0.0938,-0.2161 0.1046,-0.2155 0.115,-0.2146 0.1251,-0.2136 0.1348,-0.2123 0.1442,-0.2108 0.1536,-0.209 0.1627,-0.2071 0.1717,-0.205 0.1804,-0.2026 0.1892,-0.2 0.1977,-0.1972 0.2061,-0.1942 0.2145,-0.191 0.4096,0.0542 0.408,0.0651 0.4061,0.0758 0.404,0.0866 0.4015,0.0973 0.3988,0.1079 0.3958,0.1184 0.3926,0.1289 0.1104,0.2651 0.1014,0.2644 0.0926,0.2634 0.0836,0.2623 0.0747,0.2608 0.0658,0.2592 0.0567,0.2572 0.0476,0.2549 0.0386,0.2525 0.0293,0.2498 0.02,0.2467 0.0105,0.2433 8e-4,0.2395 -0.009,0.2354 -0.0198,0.2308 -0.031,0.2255 -0.0433,0.2195 -0.0577,0.2119 -0.0786,0.2007 -1.7042,3.1007 0.2947,0.1703 0.2873,0.1827 0.2791,0.1948 0.2706,0.2065 0.2616,0.2179 0.252,0.2288 0.2421,0.2394 0.2316,0.2494 2.6437,-2.3514 0.1782,-0.1213 0.1938,-0.1035 0.2043,-0.091 0.2129,-0.0804 0.2206,-0.0706 0.2274,-0.0615 0.2338,-0.0525 0.2395,-0.0439 0.245,-0.0354 0.25,-0.027 0.2547,-0.0186 0.2592,-0.0103 0.2634,-0.0019 0.2672,0.0064 0.2709,0.0148 0.2743,0.0232 0.2775,0.0316 0.2803,0.0401 0.2831,0.0486 0.213,0.354 0.2035,0.3596 0.1939,0.3648 0.1842,0.3698 0.1743,0.3746 0.1643,0.379 0.1542,0.3833 0.144,0.3873 -0.1385,0.2516 -0.1434,0.2442 -0.1483,0.2366 -0.1529,0.2289 -0.1573,0.221 -0.1616,0.213 -0.1658,0.2047 -0.1696,0.1962 -0.1734,0.1876 -0.177,0.1786 -0.1804,0.1695 -0.1836,0.1599 -0.1868,0.1499 -0.1899,0.1396 -0.1927,0.1284 -0.1957,0.1164 -0.1985,0.1029 -0.2017,0.087 -0.206,0.0637 -3.4867,0.6008 0.0506,0.3367 0.0363,0.3384 0.0217,0.3398 0.007,0.3403 -0.007,0.3403 -0.0217,0.3398 -0.0363,0.3384 -0.0506,0.3367 3.4867,0.6008 0.206,0.0637 0.2017,0.087 0.1985,0.1029 0.1957,0.1164 0.1927,0.1284 0.1899,0.1396 0.1868,0.1499 0.1836,0.1599 0.1804,0.1695 0.177,0.1786 0.1734,0.1876 0.1696,0.1962 0.1658,0.2047 0.1616,0.213 0.1573,0.221 0.1529,0.2289 0.1483,0.2366 0.1434,0.2442 0.1385,0.2516 -0.144,0.3873 -0.1542,0.3833 -0.1643,0.379 -0.1743,0.3746 -0.1842,0.3698 -0.1939,0.3648 -0.2035,0.3596 -0.213,0.354 -0.2831,0.0486 -0.2803,0.0401 -0.2775,0.0316 -0.2743,0.0232 -0.2709,0.0148 -0.2672,0.0064 -0.2634,-0.0019 -0.2592,-0.0103 -0.2547,-0.0186 -0.25,-0.027 -0.245,-0.0354 -0.2395,-0.0439 -0.2338,-0.0525 -0.2274,-0.0615 -0.2206,-0.0706 -0.2129,-0.0804 -0.2043,-0.091 -0.1938,-0.1035 -0.1782,-0.1213 -2.6437,-2.3514 -0.2316,0.2494 -0.2421,0.2394 -0.252,0.2288 -0.2616,0.2179 -0.2706,0.2065 -0.2791,0.1948 -0.2873,0.1827 -0.2947,0.1703 1.7042,3.1007 0.0786,0.2007 0.0577,0.2119 0.0433,0.2195 0.031,0.2255 0.0198,0.2308 0.009,0.2354 -8e-4,0.2395 -0.0105,0.2433 -0.02,0.2467 -0.0293,0.2498 -0.0386,0.2525 -0.0476,0.2549 -0.0567,0.2572 -0.0658,0.2592 -0.0747,0.2608 -0.0836,0.2623 -0.0926,0.2634 -0.1014,0.2644 -0.1104,0.2651 -0.3926,0.1289 -0.3958,0.1184 -0.3988,0.1079 -0.4015,0.0973 -0.404,0.0866 -0.4061,0.0758 -0.408,0.0651 -0.4096,0.0542 -0.2145,-0.191 -0.2061,-0.1942 -0.1977,-0.1972 -0.1892,-0.2 -0.1804,-0.2026 -0.1717,-0.205 -0.1627,-0.2071 -0.1536,-0.209 -0.1442,-0.2108 -0.1348,-0.2123 -0.1251,-0.2136 -0.115,-0.2146 -0.1046,-0.2155 -0.0938,-0.2161 -0.0823,-0.2165 -0.07,-0.2167 -0.0562,-0.2165 -0.0399,-0.216 -0.0162,-0.2149 0.1901,-3.533 -0.3395,-0.0256 -0.338,-0.04 -0.3361,-0.0543 -0.3334,-0.0687 -0.3302,-0.0828 -0.3264,-0.0968 -0.3219,-0.1107 -0.3169,-0.1242 -1.3617,3.2656 -0.1078,0.1866 -0.1298,0.1773 -0.1445,0.1707 -0.157,0.1648 -0.1681,0.1593 -0.1783,0.1541 -0.1878,0.1487 -0.1967,0.1435 -0.2053,0.1382 -0.2136,0.1328 -0.2214,0.1273 -0.2291,0.1217 -0.2365,0.116 -0.2435,0.1102 -0.2505,0.1042 -0.2572,0.0981 -0.2637,0.0919 -0.27,0.0855 -0.2761,0.079 -0.3455,-0.2265 -0.3394,-0.2356 -0.333,-0.2446 -0.3264,-0.2533 -0.3195,-0.2618 -0.3126,-0.2703 -0.3052,-0.2784 -0.2977,-0.2864 0.0155,-0.2868 0.0233,-0.2822 0.031,-0.2775 0.0384,-0.2726 0.0459,-0.2674 0.0532,-0.262 0.0605,-0.2563 0.0677,-0.2505 0.0748,-0.2442 0.0819,-0.2377 0.089,-0.231 0.0962,-0.2237 0.1032,-0.2162 0.1105,-0.208 0.118,-0.1994 0.1257,-0.1897 0.1342,-0.1789 0.144,-0.166 0.1579,-0.1466 2.8808,-2.0542 -0.1917,-0.2814 -0.1795,-0.2892 -0.167,-0.2966 -0.1542,-0.3035 -0.1412,-0.3098 -0.1277,-0.3155 -0.1143,-0.3207 -0.1004,-0.3253 z m 11.0754,-6.1626 a 3,3 0 0 0 0,6 3,3 0 0 0 0,-6"
       inkscape:connector-curvature="0" />
    <path
       id="path1351"
       inkscape:label="Center cross"
       style="fill:none;stroke:#000000;stroke-width:0.1;stroke-miterlimit:4;stroke-dasharray:none"
       d="m 168.97936,36.999992 h -7.9587 m 3.97935,3.979351 v -7.958702"
       inkscape:connector-curvature="0" />
    <circle
       transform="scale(-1)"
       id="circle1353"
       inkscape:label="Pitch circle"
       style="fill:none;stroke:#000000;stroke-width:0.1;stroke-miterlimit:4;stroke-dasharray:none"
       r="13.3"
       cy="-36.999992"
       cx="-165.00002" />
    <circle
       r="15.586791"
       cy="36.999989"
       cx="165"
       id="circle1355"
       style="fill:none;fill-opacity:1;stroke:#0000ff;stroke-width:0.09999999;stroke-linecap:round;stroke-linejoin:round;stroke-miterlimit:4;stroke-dasharray:none;stroke-opacity:1" />
  </g>
  <g
     id="g1457">
    <g
       id="g1331"
       transform="rotate(180,160.63364,41.999989)">
      <circle
         transform="scale(-1)"
         id="circle1284"
         inkscape:label="Pitch circle"
         style="fill:#ffe6d5;stroke:#000000;stroke-width:0.1;stroke-miterlimit:4;stroke-dasharray:none"
         r="13.3"
         cy="-36.999992"
         cx="-165.00002" />
      <circle
         r="15.586761"
         cy="36.999989"
         cx="165"
         id="path1322"
         style="fill:none;fill-opacity:1;stroke:#0000ff;stroke-width:0.09999999;stroke-linecap:round;stroke-linejoin:round;stroke-miterlimit:4;stroke-dasharray:none;stroke-opacity:1" />
      <path
         id="path1282"
         inkscape:label="Center cross"
         style="fill:none;stroke:#000000;stroke-width:0.1;stroke-miterlimit:4;stroke-dasharray:none"
         d="m 168.97936,36.999992 h -7.9587 m 3.97935,3.979351 v -7.958702"
         inkscape:connector-curvature="0" />
    </g>
    <g
       id="g1382">
      <path
         id="path1140"
         inkscape:label="Center cross"
         style="fill:none;stroke:#000000;stroke-width:0.1;stroke-miterlimit:4;stroke-dasharray:none;stroke-opacity:1"
         d="m 114.22062,46.999992 h 7.9587 m -3.97935,-3.979351 v 7.958702"
         inkscape:connector-curvature="0" />
      <circle
         id="circle1142"
         inkscape:label="Pitch circle"
         style="fill:none;stroke:#000000;stroke-width:0.1;stroke-miterlimit:4;stroke-dasharray:none;stroke-opacity:1"
         r="22.799999"
         cy="46.999992"
         cx="118.19997" />
      <circle
         r="28.122334"
         cy="46.999992"
         cx="118.19997"
         id="path1361"
         style="fill:none;fill-opacity:1;stroke:#0000ff;stroke-width:0.1;stroke-linecap:round;stroke-linejoin:round;stroke-miterlimit:4;stroke-dasharray:none;stroke-opacity:1" />
      <g
         id="g1394"
         inkscape:transform-center-x="3.5693359e-06"
         inkscape:transform-center-y="-3.4440918e-06">
        <circle
           style="fill:none;fill-opacity:1;stroke:#ff0000;stroke-width:0.1;stroke-linecap:round;stroke-linejoin:round;stroke-miterlimit:4;stroke-dasharray:none;stroke-opacity:1"
           id="path1370"
           cx="145.32394"
           cy="46.999992"
           r="1"
           inkscape:transform-center-x="-27.123978" />
        <circle
           r="2"
           cy="-46.999989"
           cx="-92.075989"
           id="circle1372"
           style="fill:none;fill-opacity:1;stroke:#ff0000;stroke-width:0.1;stroke-linecap:round;stroke-linejoin:round;stroke-miterlimit:4;stroke-dasharray:none;stroke-opacity:1"
           inkscape:transform-center-x="26.123981"
           transform="scale(-1)"
           inkscape:transform-center-y="-3.4758301e-06" />
      </g>
    </g>
    <g
       transform="rotate(180,122.55037,41.999989)"
       id="g1390">
      <circle
         cx="-165.00002"
         cy="-36.999992"
         r="13.3"
         style="fill:#ffe6d5;stroke:#000000;stroke-width:0.1;stroke-miterlimit:4;stroke-dasharray:none"
         inkscape:label="Pitch circle"
         id="circle1386"
         transform="scale(-1)" />
      <circle
         style="fill:none;fill-opacity:1;stroke:#0000ff;stroke-width:0.09999999;stroke-linecap:round;stroke-linejoin:round;stroke-miterlimit:4;stroke-dasharray:none;stroke-opacity:1"
         id="circle1388"
         cx="165"
         cy="36.999989"
         r="15.586761" />
      <path
         inkscape:connector-curvature="0"
         d="m 168.97936,36.999992 h -7.9587 m 3.97935,3.979351 v -7.958702"
         style="fill:none;stroke:#000000;stroke-width:0.1;stroke-miterlimit:4;stroke-dasharray:none"
         inkscape:label="Center cross"
         id="path1384" />
    </g>
    <path
       style="fill:none;fill-opacity:1;stroke:#ff0000;stroke-width:0.1;stroke-linecap:round;stroke-linejoin:round;stroke-miterlimit:4;stroke-dasharray:none;stroke-opacity:1"
       d="m 93.972712,37.024991 a 2,2 0 0 0 -2.520155,1.284492 2,2 0 0 0 1.284002,2.519995 2,2 0 0 0 2.519993,-1.284002 2,2 0 0 0 -1.28384,-2.520485 z M 144.30549,54.4305 a 1,1 0 0 0 -1.26016,0.642491 1,1 0 0 0 0.642,1.259998 1,1 0 0 0 1.26,-0.642001 1,1 0 0 0 -0.64184,-1.260488 z"
       id="circle1398-3"
       inkscape:connector-curvature="0"
       inkscape:transform-center-x="0.024405192"
       inkscape:transform-center-y="-0.34546454" />
    <path
       inkscape:transform-center-y="0.34542674"
       inkscape:transform-center-x="0.024416032"
       inkscape:connector-curvature="0"
       id="path1438"
       d="m 92.736547,53.17047 a 2,2 0 0 0 -1.283843,2.520486 2,2 0 0 0 2.519996,1.284001 2,2 0 0 0 1.283999,-2.519994 2,2 0 0 0 -2.520152,-1.284493 z M 143.68732,37.666957 a 1,1 0 0 0 -0.64184,1.260489 1,1 0 0 0 1.25999,0.642004 1,1 0 0 0 0.64201,-1.260002 1,1 0 0 0 -1.26016,-0.642491 z"
       style="fill:none;fill-opacity:1;stroke:#ff0000;stroke-width:0.1;stroke-linecap:round;stroke-linejoin:round;stroke-miterlimit:4;stroke-dasharray:none;stroke-opacity:1" />
  </g>
  <g
     transform="rotate(-165,131.76604,112.58859)"
     id="g1487" />
  <g
     id="g1659"
     transform="rotate(-6.286,1344.3714,181.51736)">
    <path
       inkscape:connector-curvature="0"
       id="circle1653"
       transform="matrix(0.14795312,0.21934952,-0.21934952,0.14795312,216.06567,-185.93664)"
       d="m 590.2832,580.91016 a 50.267716,50.267716 0 0 0 -5.01953,0.28515 50.267716,50.267716 0 0 0 -4.96094,0.78516 50.267716,50.267716 0 0 0 -4.85937,1.27344 50.267716,50.267716 0 0 0 -4.70898,1.7539 50.267716,50.267716 0 0 0 -4.50782,2.2168 50.267716,50.267716 0 0 0 -4.26953,2.6543 50.267716,50.267716 0 0 0 -3.98047,3.06445 50.267716,50.267716 0 0 0 -3.65625,3.45312 50.267716,50.267716 0 0 0 -3.28906,3.79688 50.267716,50.267716 0 0 0 -2.0918,2.875 l -0.002,0.002 a 50.267716,50.267716 0 0 0 -6.88477,40.46485 l 0.43165,0.11718 1.48242,0.23243 1.01953,0.0547 0.0273,-0.002 a 5.6692913,5.6692913 0 0 1 1.35352,-0.53906 l 0.0566,-0.0312 0.006,0.01 a 5.6692914,5.6692914 0 0 1 2.30469,-0.60742 5.6692913,5.6692913 0 0 1 2.66015,0.0254 5.6692913,5.6692913 0 0 1 3.44922,1.72852 5.6692913,5.6692913 0 0 1 1.43945,1.94336 5.6692913,5.6692913 0 0 1 0.48242,2.41797 5.6692913,5.6692913 0 0 1 -0.99023,3.63281 5.6692914,5.6692914 0 0 1 -1.79687,2.05078 5.6692914,5.6692914 0 0 1 -1.98633,1.30078 l -0.0391,0.0176 a 5.6692914,5.6692914 0 0 1 -1.35546,0.67578 l -0.65625,0.80859 -0.78711,1.21485 -0.21875,0.43554 a 50.267716,50.267716 0 0 0 13.56836,13.83008 50.267716,50.267716 0 0 0 28.44531,8.59375 50.267716,50.267716 0 0 0 5.00976,-0.28125 v 0.004 a 50.267716,50.267716 0 0 0 4.96485,-0.78516 50.267716,50.267716 0 0 0 4.85937,-1.27148 50.267716,50.267716 0 0 0 4.70899,-1.76172 50.267716,50.267716 0 0 0 4.50976,-2.21289 50.267716,50.267716 0 0 0 4.26758,-2.6543 50.267716,50.267716 0 0 0 3.98633,-3.0664 50.267716,50.267716 0 0 0 3.65039,-3.45313 h 0.002 a 50.267716,50.267716 0 0 0 3.28516,-3.79101 50.267716,50.267716 0 0 0 2.10156,-2.87891 50.267716,50.267716 0 0 0 6.31446,-42.87305 l -1.2129,-0.082 c -0.20661,0.12214 -0.42224,0.22633 -0.65039,0.29883 l -0.26757,0.25195 -0.0117,-0.006 c -0.54794,0.5303 -1.22544,0.86577 -1.94336,0.99805 -0.6336,0.48555 -1.38964,0.73099 -2.1543,0.76172 -0.68186,0.30681 -1.43055,0.3959 -2.15039,0.2832 -0.77108,0.11036 -1.56018,-0.0297 -2.25391,-0.38086 -0.83281,-0.20257 -1.57902,-0.69028 -2.11718,-1.41406 -0.36956,-0.33821 -0.67773,-0.74265 -0.89454,-1.23047 -0.21255,-0.47751 -0.31391,-0.9761 -0.32226,-1.4668 -0.1892,-0.89357 -0.0341,-1.78875 0.37109,-2.55078 0.19895,-0.74684 0.62276,-1.41 1.20899,-1.91015 0.39456,-0.61727 0.97018,-1.11407 1.65429,-1.41993 0.53642,-0.55438 1.2324,-0.95112 2.02344,-1.09765 0.57821,-0.44398 1.27755,-0.73249 2.03711,-0.78516 l -0.002,-0.0117 0.36523,-0.0254 c 0.22192,-0.13146 0.45749,-0.24403 0.70313,-0.32812 l 0.63672,-0.81446 a 50.267716,50.267716 0 0 0 -14.9043,-15.98632 50.267716,50.267716 0 0 0 -28.44141,-8.59375 z"
       style="fill:#ffe6d5;stroke:#000000;stroke-width:0.37795275;stroke-miterlimit:4;stroke-dasharray:none" />
    <circle
       r="15.586761"
       cy="36.999989"
       cx="165"
       id="circle1655"
       style="fill:none;fill-opacity:1;stroke:#0000ff;stroke-width:0.09999999;stroke-linecap:round;stroke-linejoin:round;stroke-miterlimit:4;stroke-dasharray:none;stroke-opacity:1" />
    <path
       id="path1657"
       inkscape:label="Center cross"
       style="fill:none;stroke:#000000;stroke-width:0.1;stroke-miterlimit:4;stroke-dasharray:none"
       d="m 168.97936,36.999992 h -7.9587 m 3.97935,3.979351 v -7.958702"
       inkscape:connector-curvature="0" />
  </g>
  <g
     transform="translate(0,120)"
     id="g1673">
    <path
       id="path1661"
       inkscape:label="Center cross"
       style="fill:none;stroke:#000000;stroke-width:0.1;stroke-miterlimit:4;stroke-dasharray:none;stroke-opacity:1"
       d="m 114.22062,46.999992 h 7.9587 m -3.97935,-3.979351 v 7.958702"
       inkscape:connector-curvature="0" />
    <circle
       id="circle1663"
       inkscape:label="Pitch circle"
       style="fill:none;stroke:#000000;stroke-width:0.1;stroke-miterlimit:4;stroke-dasharray:none;stroke-opacity:1"
       r="22.799999"
       cy="46.999992"
       cx="118.19997" />
    <circle
       r="28.122334"
       cy="46.999992"
       cx="118.19997"
       id="circle1665"
       style="fill:none;fill-opacity:1;stroke:#0000ff;stroke-width:0.1;stroke-linecap:round;stroke-linejoin:round;stroke-miterlimit:4;stroke-dasharray:none;stroke-opacity:1" />
    <g
       id="g1671"
       inkscape:transform-center-x="3.5693359e-06"
       inkscape:transform-center-y="-3.4440918e-06">
      <circle
         style="fill:none;fill-opacity:1;stroke:#ff0000;stroke-width:0.1;stroke-linecap:round;stroke-linejoin:round;stroke-miterlimit:4;stroke-dasharray:none;stroke-opacity:1"
         id="circle1667"
         cx="145.32394"
         cy="46.999992"
         r="1"
         inkscape:transform-center-x="-27.123978" />
      <circle
         r="2"
         cy="-46.999989"
         cx="-92.075989"
         id="circle1669"
         style="fill:none;fill-opacity:1;stroke:#ff0000;stroke-width:0.1;stroke-linecap:round;stroke-linejoin:round;stroke-miterlimit:4;stroke-dasharray:none;stroke-opacity:1"
         inkscape:transform-center-x="26.123981"
         transform="scale(-1)"
         inkscape:transform-center-y="-3.4758301e-06" />
    </g>
  </g>
  <g
     transform="rotate(180,122.55037,101.99999)"
     id="g1681">
    <circle
       cx="-165.00002"
       cy="-36.999992"
       r="13.3"
       style="fill:#ffe6d5;stroke:#000000;stroke-width:0.1;stroke-miterlimit:4;stroke-dasharray:none"
       inkscape:label="Pitch circle"
       id="circle1675"
       transform="scale(-1)" />
    <circle
       style="fill:none;fill-opacity:1;stroke:#0000ff;stroke-width:0.09999999;stroke-linecap:round;stroke-linejoin:round;stroke-miterlimit:4;stroke-dasharray:none;stroke-opacity:1"
       id="circle1677"
       cx="165"
       cy="36.999989"
       r="15.586761" />
    <path
       inkscape:connector-curvature="0"
       d="m 168.97936,36.999992 h -7.9587 m 3.97935,3.979351 v -7.958702"
       style="fill:none;stroke:#000000;stroke-width:0.1;stroke-miterlimit:4;stroke-dasharray:none"
       inkscape:label="Center cross"
       id="path1679" />
  </g>
  <path
     style="fill:none;fill-opacity:1;stroke:#ff0000;stroke-width:0.1;stroke-linecap:round;stroke-linejoin:round;stroke-miterlimit:4;stroke-dasharray:none;stroke-opacity:1"
     d="m 93.972712,157.02499 a 2,2 0 0 0 -2.520155,1.28449 2,2 0 0 0 1.284002,2.52 2,2 0 0 0 2.519993,-1.284 2,2 0 0 0 -1.28384,-2.52049 z m 50.332778,17.40551 a 1,1 0 0 0 -1.26016,0.64249 1,1 0 0 0 0.642,1.26 1,1 0 0 0 1.26,-0.642 1,1 0 0 0 -0.64184,-1.26049 z"
     id="path1683"
     inkscape:connector-curvature="0"
     inkscape:transform-center-x="0.024405192"
     inkscape:transform-center-y="-0.34546454" />
  <path
     inkscape:transform-center-y="0.3454296"
     inkscape:transform-center-x="0.024415504"
     inkscape:connector-curvature="0"
     id="path1760"
     d="m 92.736546,173.17047 a 2,2 0 0 0 -1.283843,2.52048 2,2 0 0 0 2.519998,1.28401 2,2 0 0 0 1.284001,-2.51999 2,2 0 0 0 -2.520156,-1.2845 z m 50.950774,-15.50351 a 1,1 0 0 0 -0.64184,1.26049 1,1 0 0 0 1.25999,0.642 1,1 0 0 0 0.64201,-1.26 1,1 0 0 0 -1.26016,-0.64249 z"
     style="fill:none;fill-opacity:1;stroke:#ff0000;stroke-width:0.1;stroke-linecap:round;stroke-linejoin:round;stroke-miterlimit:4;stroke-dasharray:none;stroke-opacity:1" />
  <path
     inkscape:transform-center-y="-0.0003574"
     inkscape:transform-center-x="-24.090445"
     inkscape:connector-curvature="0"
     id="path1788"
     d="m 128.60395,164.79926 -0.34723,1.96989 1.30843,0.23043 -1.3084,0.23107 0.34731,1.96936 6.89365,-1.21541 -4.3e-4,-0.002 c 0.46937,-0.0824 0.82679,-0.48943 0.82681,-0.98237 3.1e-4,-0.49311 -0.35724,-0.90051 -0.82682,-0.9829 l 3.9e-4,-0.002 z"
     style="fill:none;fill-opacity:1;stroke:#00ff00;stroke-width:0.1;stroke-linecap:round;stroke-linejoin:round;stroke-miterlimit:4;stroke-dasharray:none;stroke-opacity:1" />
  <path
     style="fill:none;fill-opacity:1;stroke:#ff00ff;stroke-width:0.10000001;stroke-linecap:round;stroke-linejoin:round;stroke-miterlimit:4;stroke-dasharray:none;stroke-opacity:1"
     d="m 132.31431,164.77444 -0.38809,1.449 -0.38809,0.10387 0.18035,0.67231 -0.18035,0.67283 0.38809,0.10387 0.38809,1.44901 2.89801,-0.7767 a 1.5,1.5 0 0 0 1.11156,-1.44849 1.5,1.5 0 0 0 -1.11207,-1.44694 l 5.3e-4,-0.002 z"
     id="path1861"
     inkscape:connector-curvature="0"
     inkscape:transform-center-x="-25.731042"
     inkscape:transform-center-y="-0.00011014809" />
  <path
     inkscape:transform-center-y="-0.00010943035"
     inkscape:transform-center-x="13.471806"
     inkscape:connector-curvature="0"
     id="rect2249"
     d="m 177.99999,163.99981 v 6.00015 h 4.09277 a 13.299999,13.299999 0 0 1 -0.1633,-0.75603 l 0.0997,-0.0816 0.32091,-0.20929 0.24546,-0.12454 a 1.5,1.5 0 0 0 0.40049,-0.0176 h 0.0114 a 1.5,1.5 0 0 0 0.62012,-0.10076 1.5,1.5 0 0 0 0.65474,-0.30231 1.4999999,1.4999999 0 0 0 0.63045,-0.77153 1.4999999,1.4999999 0 0 0 0.14366,-0.63614 1.4999999,1.4999999 0 0 0 -0.13901,-0.62477 1.4999999,1.4999999 0 0 0 -0.64751,-0.78909 1.4999999,1.4999999 0 0 0 -0.64027,-0.29249 1.5,1.5 0 0 0 -0.6227,-0.10077 v -0.003 l -0.0171,10e-4 a 1.4999999,1.4999999 0 0 0 -0.38551,-0.015 l -0.007,-0.003 -0.24029,-0.12299 -0.33332,-0.21549 -0.092,-0.0749 a 13.299999,13.299999 0 0 1 0.16071,-0.76016 z"
     style="fill:none;fill-opacity:1;stroke:#ff00ff;stroke-width:0.1;stroke-linecap:round;stroke-linejoin:round;stroke-miterlimit:4;stroke-dasharray:none;stroke-opacity:1" />
  <g
     transform="rotate(-32,406.68194,49.688773)"
     id="g2247">
    <path
       style="fill:#ffe6d5;stroke:#000000;stroke-width:0.37795275;stroke-miterlimit:4;stroke-dasharray:none"
       d="m 590.2832,580.91016 a 50.267716,50.267716 0 0 0 -5.01953,0.28515 50.267716,50.267716 0 0 0 -4.96094,0.78516 50.267716,50.267716 0 0 0 -4.85937,1.27344 50.267716,50.267716 0 0 0 -4.70898,1.7539 50.267716,50.267716 0 0 0 -4.50782,2.2168 50.267716,50.267716 0 0 0 -4.26953,2.6543 50.267716,50.267716 0 0 0 -3.98047,3.06445 50.267716,50.267716 0 0 0 -3.65625,3.45312 50.267716,50.267716 0 0 0 -3.28906,3.79688 50.267716,50.267716 0 0 0 -2.0918,2.875 l -0.002,0.002 a 50.267716,50.267716 0 0 0 -6.88477,40.46485 l 0.43165,0.11718 1.48242,0.23243 1.01953,0.0547 0.0273,-0.002 a 5.6692913,5.6692913 0 0 1 1.35352,-0.53906 l 0.0566,-0.0312 0.006,0.01 a 5.6692914,5.6692914 0 0 1 2.30469,-0.60742 5.6692913,5.6692913 0 0 1 2.66015,0.0254 5.6692913,5.6692913 0 0 1 3.44922,1.72852 5.6692913,5.6692913 0 0 1 1.43945,1.94336 5.6692913,5.6692913 0 0 1 0.48242,2.41797 5.6692913,5.6692913 0 0 1 -0.99023,3.63281 5.6692914,5.6692914 0 0 1 -1.79687,2.05078 5.6692914,5.6692914 0 0 1 -1.98633,1.30078 l -0.0391,0.0176 a 5.6692914,5.6692914 0 0 1 -1.35546,0.67578 l -0.65625,0.80859 -0.78711,1.21485 -0.21875,0.43554 a 50.267716,50.267716 0 0 0 13.56836,13.83008 50.267716,50.267716 0 0 0 28.44531,8.59375 50.267716,50.267716 0 0 0 5.00976,-0.28125 v 0.004 a 50.267716,50.267716 0 0 0 4.96485,-0.78516 50.267716,50.267716 0 0 0 4.85937,-1.27148 50.267716,50.267716 0 0 0 4.70899,-1.76172 50.267716,50.267716 0 0 0 4.50976,-2.21289 50.267716,50.267716 0 0 0 4.26758,-2.6543 50.267716,50.267716 0 0 0 3.98633,-3.0664 50.267716,50.267716 0 0 0 3.65039,-3.45313 h 0.002 a 50.267716,50.267716 0 0 0 3.28516,-3.79101 50.267716,50.267716 0 0 0 2.10156,-2.87891 50.267716,50.267716 0 0 0 6.31446,-42.87305 l -1.2129,-0.082 c -0.20661,0.12214 -0.42224,0.22633 -0.65039,0.29883 l -0.26757,0.25195 -0.0117,-0.006 c -0.54794,0.5303 -1.22544,0.86577 -1.94336,0.99805 -0.6336,0.48555 -1.38964,0.73099 -2.1543,0.76172 -0.68186,0.30681 -1.43055,0.3959 -2.15039,0.2832 -0.77108,0.11036 -1.56018,-0.0297 -2.25391,-0.38086 -0.83281,-0.20257 -1.57902,-0.69028 -2.11718,-1.41406 -0.36956,-0.33821 -0.67773,-0.74265 -0.89454,-1.23047 -0.21255,-0.47751 -0.31391,-0.9761 -0.32226,-1.4668 -0.1892,-0.89357 -0.0341,-1.78875 0.37109,-2.55078 0.19895,-0.74684 0.62276,-1.41 1.20899,-1.91015 0.39456,-0.61727 0.97018,-1.11407 1.65429,-1.41993 0.53642,-0.55438 1.2324,-0.95112 2.02344,-1.09765 0.57821,-0.44398 1.27755,-0.73249 2.03711,-0.78516 l -0.002,-0.0117 0.36523,-0.0254 c 0.22192,-0.13146 0.45749,-0.24403 0.70313,-0.32812 l 0.63672,-0.81446 a 50.267716,50.267716 0 0 0 -14.9043,-15.98632 50.267716,50.267716 0 0 0 -28.44141,-8.59375 z"
       transform="matrix(0.14795312,0.21934952,-0.21934952,0.14795312,216.06567,-185.93664)"
       id="path2241"
       inkscape:connector-curvature="0" />
    <circle
       style="fill:none;fill-opacity:1;stroke:#0000ff;stroke-width:0.09999999;stroke-linecap:round;stroke-linejoin:round;stroke-miterlimit:4;stroke-dasharray:none;stroke-opacity:1"
       id="circle2243"
       cx="165"
       cy="36.999989"
       r="15.586761" />
    <path
       inkscape:connector-curvature="0"
       d="m 168.97936,36.999992 h -7.9587 m 3.97935,3.979351 v -7.958702"
       style="fill:none;stroke:#000000;stroke-width:0.1;stroke-miterlimit:4;stroke-dasharray:none"
       inkscape:label="Center cross"
       id="path2245" />
  </g>
  <path
     id="path2299"
     transform="scale(0.26458333)"
     d="M 850.39453 581.10156 A 50.078739 50.078739 0 0 0 826.79297 587.0332 L 826.39062 587.6543 L 826.36133 589.22656 L 826.56445 590.22656 L 826.57227 590.25391 C 826.90959 590.60661 827.19933 591.00061 827.43555 591.42773 L 827.47852 591.47656 L 827.4707 591.48438 C 828.00343 592.08614 828.40215 592.79308 828.64062 593.56055 C 829.0572 594.35765 829.2776 595.24324 829.28516 596.14258 C 829.46582 597.45577 829.17996 598.7913 828.47852 599.91602 C 828.1136 600.64554 827.59669 601.28772 826.96094 601.79883 C 826.30927 602.31538 825.55157 602.68218 824.74219 602.87305 C 823.5186 603.28747 822.18994 603.27169 820.97656 602.82812 C 820.07719 602.62491 819.24151 602.20502 818.54102 601.60547 C 817.84872 601.20386 817.24832 600.66168 816.78125 600.01172 L 816.75586 599.97656 C 816.37481 599.64177 816.03907 599.25752 815.75977 598.83398 L 814.8125 598.40234 L 813.32031 598.10352 L 812.6875 598.31641 A 50.078739 50.078739 0 0 0 801.16602 622.12109 L 801.39648 622.80664 L 802.60938 623.81055 L 803.51758 624.27539 L 803.54297 624.28711 C 804.02905 624.24327 804.51879 624.26211 805 624.34375 L 805.06641 624.33984 L 805.06641 624.35156 C 805.86903 624.31025 806.67127 624.44026 807.41992 624.73242 C 808.30282 624.90375 809.13232 625.28268 809.83984 625.83789 C 810.97918 626.51537 811.84509 627.57065 812.28711 628.82031 C 812.62995 629.56046 812.80929 630.36591 812.8125 631.18164 C 812.81004 632.01321 812.62481 632.83404 812.26953 633.58594 C 811.83073 634.80106 810.99004 635.82984 809.88672 636.50195 C 809.16706 637.07841 808.31761 637.47067 807.41211 637.64453 C 806.66648 637.9354 805.86773 638.06545 805.06836 638.02539 L 805.02539 638.02539 C 804.52608 638.11459 804.01697 638.13753 803.51172 638.0918 L 802.58398 638.5625 L 801.41797 639.54297 L 801.17383 640.21484 A 50.078739 50.078739 0 0 0 811.99805 663.32031 C 812.04691 663.37814 812.11065 663.45733 812.16406 663.51953 A 50.078739 50.078739 0 0 0 812.62109 664.01172 L 813.29492 664.25781 L 814.83594 663.9375 L 815.76562 663.51758 L 815.78906 663.50391 C 816.05767 663.09632 816.37746 662.7231 816.74219 662.39844 L 816.78125 662.34766 L 816.79297 662.35547 C 817.26114 661.70222 817.86327 661.15707 818.55859 660.75391 C 819.24288 660.17016 820.05649 659.75828 820.93164 659.55078 C 821.55165 659.3167 822.20265 659.19464 822.85547 659.18555 C 823.50829 659.17645 824.16278 659.2793 824.78906 659.49609 C 825.58072 659.69112 826.32133 660.05432 826.96094 660.56055 C 827.60799 661.0822 828.13421 661.73845 828.50195 662.48438 C 829.1783 663.58508 829.45706 664.88426 829.29492 666.16602 C 829.29689 667.08807 829.07338 667.99544 828.64648 668.8125 C 828.40883 669.5768 828.01224 670.28293 827.48242 670.88281 L 827.45508 670.91602 C 827.21357 671.36211 826.91519 671.77596 826.56445 672.14258 L 826.35352 673.16016 L 826.39453 674.68359 L 826.76562 675.28906 A 50.078739 50.078739 0 0 0 827.67773 675.8125 A 50.078739 50.078739 0 0 0 850.32812 681.25781 C 850.39566 681.25859 850.43661 681.25336 850.49805 681.25391 A 50.078739 50.078739 0 0 0 852.56055 681.15234 L 853.12305 680.80664 L 853.83398 679.40234 L 854.08594 678.41406 L 854.08984 678.38672 C 853.93866 677.92259 853.84677 677.44046 853.82031 676.95312 L 853.80469 676.89062 L 853.81641 676.88672 C 853.59757 676.11339 853.54576 675.3028 853.66406 674.50781 C 853.63432 673.60885 853.81974 672.71592 854.20312 671.90234 C 854.61022 670.64093 855.44646 669.56248 856.56641 668.85352 C 857.21248 668.35617 857.95934 668.0028 858.75391 667.81836 C 859.15954 667.72803 859.57111 667.68221 859.98438 667.68164 C 860.39763 667.68107 860.81255 667.72563 861.21875 667.81445 C 862.50095 667.97202 863.69087 668.56222 864.5918 669.48828 C 865.31391 670.06164 865.8832 670.80331 866.25586 671.64648 C 866.70521 672.30881 867.00973 673.0594 867.14844 673.84766 L 867.16016 673.88867 C 867.35835 674.35563 867.49252 674.84689 867.56055 675.34961 L 868.22656 676.15039 L 869.44336 677.06836 L 870.19727 677.16211 A 50.078739 50.078739 0 0 0 889.58594 662.35352 C 889.62331 662.30754 889.64932 662.26902 889.68359 662.22656 A 50.078739 50.078739 0 0 0 890.81641 660.64062 L 890.89844 659.98633 L 890.24219 658.55469 L 889.62695 657.74219 L 889.60938 657.72266 C 889.15243 657.55122 888.71852 657.32139 888.32031 657.03906 L 888.26172 657.01367 L 888.26562 657.00195 C 887.52462 656.69086 886.85835 656.22481 886.31055 655.63672 C 885.58915 655.09946 885.0064 654.3988 884.60938 653.5918 C 883.87698 652.48704 883.55522 651.15945 883.69922 649.8418 C 883.71317 649.02659 883.90084 648.22457 884.25195 647.48828 C 884.61501 646.74016 885.13973 646.08105 885.78516 645.55664 C 886.70778 644.65243 887.91155 644.08988 889.19727 643.96289 C 890.09577 643.75577 891.03028 643.77348 891.92188 644.00781 C 892.71984 644.06942 893.49642 644.29866 894.19922 644.68164 L 894.23828 644.70117 C 894.72686 644.83746 895.19553 645.03647 895.63086 645.29688 L 896.67188 645.27539 L 898.14648 644.89844 L 898.69727 644.35938 A 50.078739 50.078739 0 0 0 900.47266 631.18164 A 50.078739 50.078739 0 0 0 898.63867 617.95508 L 898.16797 617.47266 L 896.64062 617.09375 L 895.62109 617.06641 L 895.59375 617.06836 C 895.17483 617.31872 894.72486 617.51508 894.25586 617.65039 L 894.19922 617.67969 L 894.19336 617.66797 C 893.4881 618.05337 892.70759 618.28605 891.90625 618.34766 C 891.03643 618.5767 890.12457 618.59315 889.24609 618.40039 C 887.92564 618.28432 886.68836 617.70961 885.74805 616.77539 C 885.1194 616.2562 884.60874 615.60857 884.25195 614.875 C 883.89343 614.12469 883.70482 613.30423 883.69727 612.47266 C 883.56555 611.18754 883.87758 609.89677 884.58008 608.8125 C 884.97833 607.98089 885.57326 607.25985 886.3125 606.70898 C 886.85819 606.1235 887.52215 605.66029 888.25977 605.34961 L 888.29883 605.33008 C 888.71 605.03308 889.15979 604.7913 889.63477 604.61328 L 890.26562 603.78711 L 890.89062 602.39844 L 890.82031 601.71289 A 50.078739 50.078739 0 0 0 870.12305 585.21289 L 869.45898 585.2793 L 868.20898 586.23633 L 867.55469 587.01953 L 867.53906 587.04102 C 867.4736 587.52464 867.34686 587.99825 867.16016 588.44922 L 867.14844 588.51367 L 867.13672 588.51172 C 866.99835 589.30342 866.69354 590.05573 866.24219 590.7207 C 865.87871 591.54339 865.32342 592.26732 864.625 592.83398 C 863.71096 593.79398 862.49054 594.40395 861.17383 594.55664 C 860.37597 594.72445 859.54991 594.71941 858.75391 594.54102 C 857.94376 594.35355 857.18515 593.99035 856.53125 593.47656 C 855.44437 592.77829 854.62849 591.73111 854.21875 590.50586 C 853.81687 589.67599 853.62406 588.75934 853.6543 587.83789 C 853.53675 587.04623 853.58774 586.23917 853.80469 585.46875 L 853.81641 585.42773 C 853.8406 584.92109 853.93104 584.418 854.08789 583.93555 L 853.83594 582.92773 L 853.14062 581.57227 L 852.52539 581.17578 A 50.078739 50.078739 0 0 0 850.39453 581.10156 z M 850.39453 619.8418 A 11.338583 11.338583 0 0 1 861.73242 631.18164 A 11.338583 11.338583 0 0 1 850.39453 642.51953 A 11.338583 11.338583 0 0 1 839.05469 631.18164 A 11.338583 11.338583 0 0 1 850.39453 619.8418 z "
     style="fill:#ffe6d5;fill-opacity:1;stroke:#000000;stroke-width:0.37795264;stroke-linecap:round;stroke-linejoin:round;stroke-miterlimit:4;stroke-dasharray:none;stroke-opacity:1" />
  <path
     inkscape:transform-center-y="-5.0137252"
     inkscape:transform-center-x="-25.11495"
     inkscape:connector-curvature="0"
     id="path2291"
     d="m 141.32463,159.80942 -0.0785,1.49801 -0.35802,0.18229 0.31621,0.62013 -0.0367,0.69561 0.4012,0.021 0.68087,1.33666 2.6732,-1.36227 a 1.5,1.5 0 0 0 0.78612,-1.64794 1.5,1.5 0 0 0 -1.3886,-1.1841 l 8e-5,-0.002 z"
     style="fill:none;fill-opacity:1;stroke:#ff00ff;stroke-width:0.10000001;stroke-linecap:round;stroke-linejoin:round;stroke-miterlimit:4;stroke-dasharray:none;stroke-opacity:1" />
  <text
     id="text2295"
     y="194"
     x="144"
     style="font-size:5.64444447px;line-height:1.25;font-family:FreeSans;-inkscape-font-specification:FreeSans;fill:#0000ff;fill-opacity:1;stroke:none;stroke-width:0.1;stroke-linecap:round;stroke-linejoin:round;stroke-miterlimit:4;stroke-dasharray:none;stroke-opacity:1"
     xml:space="preserve"><tspan
       style="fill:#0000ff;stroke:none;stroke-width:0.1"
       y="194"
       x="144"
       id="tspan2293"
       sodipodi:role="line">Slack: 12 out of 36</tspan><tspan
       id="tspan2320"
       style="fill:#0000ff;stroke:none;stroke-width:0.1"
       y="201.05556"
       x="144"
       sodipodi:role="line">Center-Distance: 38.07mm</tspan><tspan
       id="tspan2322"
       style="fill:#0000ff;stroke:none;stroke-width:0.1"
       y="208.11111"
       x="144"
       sodipodi:role="line">Module: 3.8</tspan></text>
  <path
     inkscape:transform-center-y="-0.00010943035"
     inkscape:transform-center-x="13.471806"
     inkscape:connector-curvature="0"
     id="path2304"
     d="m 178.99999,163.99981 v 6.00015 h 4.09277 c -0.0617,-0.25037 -0.0787,-0.3273 -0.12576,-0.58084 l 0.0747,-0.20673 0.3084,-0.25935 0.24546,-0.12454 c 0.13368,0.0121 0.26838,0.006 0.40049,-0.0176 h 0.0114 c 0.2115,0.0106 0.42284,-0.0238 0.62012,-0.10076 0.23958,-0.046 0.46433,-0.14979 0.65474,-0.30231 0.29192,-0.17783 0.51435,-0.45003 0.63045,-0.77153 0.094,-0.19894 0.14301,-0.41612 0.14366,-0.63614 -8.5e-4,-0.21583 -0.0483,-0.42894 -0.13901,-0.62477 -0.11695,-0.33064 -0.34606,-0.60984 -0.64751,-0.78909 -0.1872,-0.1469 -0.40667,-0.24716 -0.64027,-0.29249 -0.19808,-0.0773 -0.41034,-0.1117 -0.6227,-0.10077 v -0.003 l -0.0171,10e-4 c -0.12732,-0.0216 -0.2569,-0.0266 -0.38551,-0.015 l -0.007,-0.003 -0.24029,-0.12299 -0.32081,-0.26555 -0.067,-0.20003 c 0.0462,-0.2549 0.0622,-0.3332 0.12317,-0.58497 z"
     style="fill:none;fill-opacity:1;stroke:#ff00ff;stroke-width:0.1;stroke-linecap:round;stroke-linejoin:round;stroke-miterlimit:4;stroke-dasharray:none;stroke-opacity:1"
     sodipodi:nodetypes="cccccccccccccccccccccccccc" />
</svg>
